<mxfile host="65bd71144e">
    <diagram id="dp2DN16GyrZW2xcvSTXK" name="Page-1">
        <mxGraphModel dx="459" dy="526" grid="1" gridSize="10" guides="1" tooltips="1" connect="1" arrows="1" fold="1" page="1" pageScale="1" pageWidth="827" pageHeight="1169" math="0" shadow="0">
            <root>
                <mxCell id="0"/>
                <mxCell id="1" parent="0"/>
                <mxCell id="2" value="" style="shape=image;verticalLabelPosition=bottom;labelBackgroundColor=#ffffff;verticalAlign=top;aspect=fixed;imageAspect=0;image=data:image/png,iVBORw0KGgoAAAANSUhEUgAAAggAAAGACAYAAADI95pLAAAAAXNSR0IArs4c6QAAIABJREFUeF7sXQVU1MsX/thdlhSkJATE7o5nd3cHkgoIkqIiBqgoKgqISKqIEiYqtmKAit3dDYgiSPfC/8ysoIjK8sT4P2fOeefJTn/3zsw3d+78RkwgEBTn5eWBBYYAQ4AhwBBgCDAEGAIlCIgxgsCUgSHAEGAIMAQYAgyBLxFgBIHpBEOAIcAQYAgwBBgC5RBgBIEpBUOAIcAQYAgwBBgCjCAwHWAIMAQYAgwBhgBDoGIEmAWhYoxYCoYAQ4AhwBBgCPx1CDCC8NeJnHWYIcAQYAgwBBgCFSPACELFGLEUDAGGAEOAIcAQ+OsQYAThrxM56zBDgCHAEGAIMAQqRoARhIoxYikYAgwBhgBDgCHw1yHACMJfJ3LWYYYAQ4AhwBBgCFSMACMIFWPEUjAEGAIMAYYAQ+CvQ4ARhL9O5KzDDAGGAEOAIcAQqBgBRhAqxoilYAgwBBgCDAGGwF+HACMIf53IWYcZAgwBhgBDgCFQMQKMIFSMEUvBEGAIMAQYAgyBvw4BRhD+OpGzDjMEGAIMAYYAQ6BiBBhBqBgjloIhwBBgCDAEGAJ/HQKMIPx1Iv+1Hf6nU1dYWZpDX0+vSir28/fHjh07kJaWgUGDBmGZ65IqKbeqCzl+4gQ8PFZjU3AQVFVVq7T44uJiZGRkYIqJGTYHB0FaWhpiYmJVWgcrjCHAEGAIMILAdOCnIkAIguV0MxjoG1RJPSnv3yA9LRkurh5QU9f8LQTh8ZMnuHr1GiZOGP/NPr17G4cnj+6iTftukJSUrpK+lxTi5b0WnTv+g2Ur3GCor4eMzGzo6+mKRBIOHz6Cg4ePlGtPn969MGrkCPp7ckoKtm7ZhmfPn0NdTR3jxo2Gjo4OjcvOzoaD47xy+Wvr6GCmvV2V9pMVxhBgCPxeBEQmCGlp6cjMzICMjAySkt7TyUhdXY3+TUJBQSFevXoFTc2ayMrKwvv371FYKICOTi26wyGB/P7u3Tvk5xdAUlISamqqkJCQKEWAxCcmvkVRcRFUlJVpej6fDxUVFRQVFSEuLh7y8nLgcrl4k5iIgoICGkfSkpCXl4e3b98iNzcX4uJ8qKrWKK377dt34HA5SEtLg4y0DC0nISEBcnJytAy2A6saRSQyI7IpLiqCikoNDBg0GJbTp5USBCLHxMREZGRkgsfjQllZGfLy8qWVk90xkWF6ejqVs6KSEhSqVy/XOCsrS8jJK5YjCKT8N28SkZmVCR6XR2UrJ1etNH9ycjJycnKgpqaGhIQ3dMGTlJKEtpYWOBwO1TOig5mZmeByOeXa9/r1axw6fAQ3rl+Bje0MWq6ioiJUa9Qo1fFXr1/Tf/PFxaGtrQ1xcfEy7ScYkT6SMSMlLQU1VVWq5yS8S0pCbk4uqlWrhvfJ78ERE6MWCFlZWRpP8Nmzawu27dyHJ0+eo2/vbhg1Ygj+6dyTtr+i4OOzFjt37cG4UYNK6yR5WrRshY6deiA1NRX6BkaQkZZA187tcfXGbTx/EY8N6wNRr25dpKWlolv33hg5rD80NdVLq6uhqoqRoyZWVH2ZeEK0ZGVkoK7+qZxKFcASMwQYAj8VAZEJwqFDB7F5cxhq19ZBvTrquHXnIYrF+Fiz2oNOTB8+pMB4iikM9CfTCbSaLJ8u4DY2M9CgQSO6MC9cvASpH5JQr7YWHj55iXr1G2Kh0wLawZzcXLi4LMX9+3fRplUzpHzIQlxCArp37QQbG1ta1gz7mZSAvE9OQW52OnhcMfTvPxCDhwyn8au9vHH5yiU0bVQXb98lo5qcIla6Laflu61cgfv3H6Nls3o4d/EG2rRpjZTkt3jxMhH+fj5QVlb6qUD/DYWnpqVh5szZyMxIQ/OmDZBXKIYDBw9jhp01JQhkcQtctx6nT59Gowa18D45FW/epmDJ4oVo1KgRjQ8N24K9eyNRS0sNObl5eJ+cgfnz56JVyxZlIPwWQVi3PgjHjkehScM6SE5JRUpqFrw83VHj4wK+N3I3dkceQLNmzXDn9k2oKMtDU1Mb0y2twedLYHNIGPbt24umjesiLT0TSe/T4OmxihIKEkJDgrD/wGGkZ2Shfdvm9LcuXbph4KBh9N9PHj/E5s1ByMzMwp37TxG6eVNpXhKfmpqGWbMdIMHnQLWGEm7eeYiO/3SEjbUVJctr1njh4OFj6Na1E5QVpHHh0nUoKath8SJnShpISElOwhzHeWjRrD4kpeVgMtUEYhwugIqPGQhBiI45jeCgAMjKfiJOYmIciHF4WOvjg8jIvQgJDoC6hiayszJhPt0arVu3w8yZ9pQg9OzdDwG+a9C+fbtPMhETA4dTlghVpPPde/ZCt66d4brUtaKkLJ4hwBD4DQiITBCOHj0MB8cFOBgZBg3NOkh6m4ApplZwcHBAjx49kJOTDXMLS7p7c1k4E+3atQeKAa64DJ146KQTsglbQgMhzpdBQvxLGJnYwMnJGT17dMfzFy9gaGiEvbs2Q05eCc+ePIKesRX09SbAysqWLh4uS5bi+ImTsJymj7FjRgNkUuPyweVKIjs7C/5+azFm1GBoatVBSkoS9I0s4LPWB/Xr18OqVSsQHxePpUsWYZqFNdq2aYlxY0dh7ARjBAb4oFWr1r8B/v9WlUePRsFx3nzs3x0KdQ0tXLt2BaYWM2E/w4YShHv372OyniE2BnqgSdMWKBbkw372AiiqqGGRsxNevHgJPQMjuDjbo3fvPhAUFsDJeSnkFVXgOGcOtSiUhK8RBGJB8lnrhVYtm6BHz17IykzHyLEGMDYyhIG+Ps366OFdTNA1Rvu2LeDlsQR8CRmIiXHB4UlTkrku0A9162ihX7/+yMnOgq6BGYYOHYppZmY0f1FhLtat34Bnz59h+Uf/B6LfHK7QElZcJECRIBfPnz+HhdUshIYEQ01NuEMu0WFCIny9V0FGVg6vXj6BvrEN9VWoV68evL3XYNfuvQha54U6dRogLu45JuiaYVPwBjRs2JCW8+DBA1y+dBqDB4+ghMLJ2aWcleJbmkUIwrHj0fBa7VFq/SPWs+rVq9P2WVrbQqxYgMDAABDSICRFG3HgUBS2b9tWShAC/X3RoUOHH1LgqVON0bp1S1hZsaOJHwKSZWYI/CQEKkUQ1q1fj4idEXTiyM3Ngbn5dLRo0Qz29jNRUJAPC0trFOTnYX2gP/gSUmWabG1jg0YN68LS0obudGh+i+nQ0tLEEpclOHDwAHbtisDGoGBq7s/KyoSp2TR07tSBEgQSVq1yx/6DB7EnYivdVX0eiouLcOvmdUTuO0SPQPILCnDjxg24LV+CXr36UILA4fBgOd0S062sMHL4YPTo2Rt9+w+G71ovdOjwz0+C+O8pdsOGjTh69BB1IiQ6kp2VgZ69B8DKypwShL379mH+goXo+E97cLg8CsybhDhUr64APz8fXDh/EXPnL8DZMychISFNVlRkpCfThauavHKZY6CvEQSSLj7uJbZu34lXr+IhEAhw8dJl6E2eiBl2wkXo7ds3GDh4OLaGBaFRo+bAZ859JP+bhNc0/4uXcRAUFuLqtesYNmQgFiwQWrpICFwXgGdPnsBtpfs3hfv06ROYW1iVIQjk6Gv8RF306tEFdnb2tD9EbydN0oWBoSEGDxpECULs2fOUMEhLy9Cjmk5du2F9YACaNxdaLCgJKSoEhysOQWEueOJkrFVsPSB5CUFYH7SZHr+VHElISUpSSxuxkhBLiraWBlxdl5X27VjUEazy8ELU0SOUIHTp1otadKorKJSm6dTxH0zWnVQpZRcUZgvJ2UdyVanMLDFDgCHw0xGoFEHYunUbNm3aTBuVn5+P6ZZW0NaqCWfnhZQgkMlFS1Mdzs6LyjVcT18PA/r3h/5HZ7XCwkJYWtmAz+dirfdahG8JxblzF+Dr40vzkt2gtY0tWjRv/IkguHsg5tQpHNgXWbq7KamIkAJdPX20b9MUwwb3BcSKsXSFL9299unTnxIESUkZmJqaUJIybuxwdO7SA336DYDv2tXo0KHjTwf7/60CsmASUmZkZAQVlbIL9Nf64r3WB7duXgMhCiSQ8/xOnbvB0lLog7B9xw4sW74Sfl6Lyyz2srLyaNK8Aw4fjcIKNzecPXO6Qqi+RhCSk1MwYaIudGppwFBvNOSqyWKm4zIMHjQQ9vb2tMykd4kYN0EXETt3UP+CzwMx/xsYGqO6vDSmGo5H9epycHLxpNYwZyen0qT/liCkp6dh4iQ9jB41DCYmQosECWZmpujZsyd0dSdTgnDh4hVKEEr8Ejp16Yp1Af6lBKFCcL6TgBCEk9Ensd53BWRlPjpPiolBXKoGcnILYGllDSUlRXi4fyI/+/bvw/r167F/335KELp2742B/XtAQ13od0FC06bN0H+A8JiFBYYAQ+C/gUClCIKPrz/279tHe04crczMLdC5Yzu64JYQhHp1dTBnztxy6Dg4zISScg3McZhD44hzmJn5dHpWPWfOPBw6tA9bt0UgNCTkY/mZMDGdhi6dP7MguHvg3Pnz2LMrolz5586dg+syV0Tu3gEeTwIfUlMxSdcADrPtvkEQRqBzl+6MIHxE8sjRKNy7d78cri9fPkNcfCJ8vNdQp9TvhY3Bwdi9ezcO7N9Pk6WkpKD/wCGwsbagBOHIkcOYPWceog4foA6qJOTm5tGzd3KGHhMTg5mz5uDM6ehS8/fr13HUf6Vx40YVHjFcunSJnpfv2BKEuvUaISs7B8NHjMHQIWUJwkRdfezYvg1KSmX9Tm7fvg0TU3Ns3uiLho2aUb+YCZP00b5dmyohCMS6NkFXD61btcSC+fNLSdKIkaNgb2eFHj37/BKCEB1zhhKQEp+GEpkWFQkwb/4CPHr8BOGhIZCSEloBFy92QXr6B3pts8QHwd/XCx3at/2kDsQSUEkfBCJXcqzzJVH7b0ytrBcMgf9/BCpFEGbPmY8N6wLRpEljvHz5ElbWtljtsQytWneokCDERB+F64rV2BIWSm8WPHnyBHYzZiLQ1xMNGrfAq5fPMFHXkE7cCgrVcf/BA2qhMNCbWMaC8C2CcPPmdeq4FbFzJ514Dx85iuUr3OA0fw6GDRsBT89VX1gQGEH4XH0L8lJRVJhTTqNPRJ/BzVv3MWvWHIjzJb+r8TExJ2FjNwshmzehXt061Nozf4EzZtrbUoLw+tUzTNA1hIGeHvT09KjOzJk7H82bNYXldAt6PGBgZEItFuTKHVk8rG1noG7tWli0aCG4H48lSCNsbW3AE5fEooVO4HC4kJKSxK1bN2FqZoGg9YGo36AhzsTGwsVlCQYNGoA5Dg7g8XjUgvAtgvDgwX36bQGfNV5o0rQpLl2+DCenhejSpRNcFi+m+UkIDw8DIVRrvb1LF/mSxZYcIxDLyYsXz6l+rwv0R40awlsKfL449XeJOn4Ga7w8oaCggJu3btHjC4KZpqbWLyEIx0/EwNfHGzIfb0aQPnE5HEoYzpw+jtlzFmHRImd0/KcDHedTTc3htswZffoOqjIfBGKdGjx0OFRrqGBTsNDixAJDgCHwZyFQKYKwadMmtGzRFE+exSMp6R369emC6ZZ29Gy/IgtCTnYGgjeuw5lz18CXkCTeXhg9ciCGjxxPzyHz8nLhs3Y1Tp46Dy0tLTSoo4VrN++gU8cOH/0WgFXfsSAQhzQn5wV4n5IJDXVVtGnVCI+fvMD5C9ewZMliHD92hBGESuoemcTPnz2B1q3bU2/5iq6CZmWmwXuNJ2LPX4OqqhratW6KHbv2wcjQgC765Lz9/JljCNq8DQWFxIe1GLW1VWFhPh3qGtooRhHOnjmOTSHbkZWdT07bUVdHAxbTLaBRs3aZ+g8f3IPV3oGorqAIRUUFrFjmCr44Fx7ubrh9/ym0NbXQqmUjFBbkY1vEftjPsEP/fv2+SxBycrKwdo0nLl27g1ra2mjWpB54PA5CwnfB1sYaQ4cMoQg+eXyfEp/8gmJKdlu1bA5ra2tqVVu42AXvk5KpPj97/oISJXLldrLuBAwbNgzZWWnw9/fBzduPqdWkSJAPvYmj0Lf/MHB54r+EIGzYGAINDY0y1yJraqgjMMAPAkE+du/cSjErLCyiLhrDhvTGJF1DSEtXqzKCQK5EDx85GitcF5beAKmkerLkDAGGwE9GoFIEYdv2HdgQ6IPCvFQ6WfMkFMHhCXeVZDEpyH1PzYw8ifL31kka4gFemJ+KYupgJQGehAK94SDMX4TUD+/AQw69blZQLIHp1rMwdGBfjJ84maYh9RIPcb50eVM3qV+QnwFBQTrEOOIQl1SCoDAHgrw08KSUUCzIo45cXL4cbSe5XcHhSiI/KwHiksql/fjJeP/nixcUZFMZEwdDogeC/HRwxWXB5ZdcqSN68gFFBdl0gSTyILL4FD7Fg8MBT1wOXL7wGwCfh+KiAhTkJFGHPXC44Eup0vIEBVkozEujzofiEsSJTkwob74cePxqVPfyc96BL61KiemXgbY/L5X6/NH8YhwU5JD81cDjy33UVQEKSR8EuTSey5MGly8PFAto2SBt+iJwJeRL89NxkPcBxcUCqoMEp5JxUJifRscJ8QkoIWR5mfEQl1IBhyv8VsKPBFK+IC+9XBGkfr7Mx9sWRYUoyE2ht0zEuGQ8K5TWTcZpVYyZnTt3IHjTZoRu3ggl5ar90uSP4MPyMgQYAp8QqDRBCN4Y/FPwI06J5BpjUXExhg4ejAcPHyEiYgdCgtdDRbXmT6mTFcoQYAj8egTIEYzj3PloVF8bxlOnlXM4/vUtYjUyBBgCX0NAZIJw6lQ09u/fD3d3z5+CJLEAvH5xH2t8AvHg4VOoqCjBevoUtG3f46fUxwplCDAEfg8ChYUFOH7sEPr07gNxifLWod/TKlYrQ4Ah8CUCIhMEYtItKiqg5tSfFYj5sogcBRATLfkyG5d4twuPIFhgCDAE/hsIkM1AcXEh9V0S9fsN/42es14wBP6/EBCZIPx/dYu1liHAEGAIMAQYAgyBH0GAEYQfQY/lZQgwBBgCDAGGwH8UAUYQ/qOCZd1iCDAEGAIMAYbAjyDACMKPoMfyMgQYAgwBhgBD4D+KACMI/1HBsm4xBBgCDAGGAEPgRxBgBOFH0GN5GQIMAYYAQ4Ah8B9FgBGE/6hgWbcYAgwBhgBDgCHwIwgwgvAj6LG8DAGGAEOAIcAQ+I8i8K8JQtL79zAymoplri5o2bLlD8NTWFgIZ+dFOBkdjezsHMyaOQMGBvo/XO7PKMDXzx+hYeGIOXkckpLff+HwZ9TPyvx5CJw+cwYOcxyRn1+Axo0bY12AP2RkKv9xsNDQMJw+Ews/37UQFxf/eQ1mJTMEGAIMgZ+EwL8nCEnvYEgJwiK0avXZu/D/sqHk62pv4p8jJfkdXFeswYD+fWFkPPVflvbvsx08dBiaNWuiZcsW3yzk4f2bePrkIQYMHl3mCeJ/XyvLKQoCz54/x+aQUBTkF0BKSgr169WjTznLy8uLkl2kNJkZqUiIe4b9B4/i2o379LlmGZnPH5MSqRhs3rwRsWcvfiQIP/7I0ue1pqSkYE/kPkydYiRaY75IlZ2djQ1BG2FhPu2PJS8nTkbTJ6h79mSfWv9XQmaZGAJVgIDIBIEs4OQ524yMDPpMLHne2Wza9DIEgTy4lJaWBmINILum6tWrl5mA8vPzkUriC0ri5ctNULm5OfR5525dO5YjCJ/KF3ws/1N+0r7UVOErk9IyMviQkoKCggJISEhARUWFQkX+Ju0ju0Mej0sXFhJPAnlAJinpPaaaTMWE8RPQu3cv+ru6unrps7ik7+npwpfwxDgcqKuplXmCmLQhPSMD2VnZ9CljWRkZyMmVvABYjPfvk+nf2dlZyMnJoXUrKipW+IxyFcj5lxTx7l0S3W1/vqASmX34kIoaNVQojkQ3iJyILvDExaHwhY4kJyeDy+VCVlYWZCEksiJWGiUlRVy+fAnm020wang/iEEM5y9dR3pGNjYGrUO9unVLcSQyIrpKPuNLnmOWk6tWBmMix8xMEg/a3mrVysaT38kCH3Us5rcQhDJ6zhdHdflPek7afvnKFXitXg1/f3/aB/L6qbKyUmkfc3NzkZaeDkGhAHwJPsWYYEoCibt1+zZmzZqDTcEbqA4SOagoK5fq+ecy4vJ4kJeTozIg+p2S8oGOvZycbPp/8jsZUwRDIrOSsZSamkbrIjKvVk2WyqHkdco3bxKhoFCdyigvPx+SEhJ0riBpSUhISMCy5W7Q1lTDZD0D+tl1Mk6kKmmtI/pD+lKjRo1fov+sEobAfw0BkQkCmbgdHOehIDcL2to1kZaRi9u378Br9UpqQSAT1wq3VUhMjIeqigISEpPRoEFDOM5xoAM/MzMTK9098fDBPWioKePd+1Q0btwUcx0dSicv4QT2dYJAFtTlK9zw8sVz1NRQwcvXiejevQemmZlSmZDJa9my5Xj67BmaNm2Ge3dvQVJSnLbB1taekgO/gECcPRuLujqaSPmQBlU1TbgsXkjzkwXLe407NoXuQMvmjVFTQ/gE7VJXNzoBkxAdfRyHDx3Aq7gEPHseh9MxJ0uPGEj9sbFnsXqNN2prq4FMrPEJ72FtbYWO/3RAfn4eTEynoXXr1sjOTAOPV4yr1+/BQN8AQ4cO+U/o1YwZdpCRlcPSJS6l/Vm3bj1OnT6FjUFBdIEgE//TJ4+hpVkDb94mQ1VVg8qAzxfushctdkZqahYUFBTw8sVTSEvx0bxla5iZTislCLt3hkJbSwupqSmYO28h+JKycF/lRhe7s+fOIyAwEGo1FCAQCPA6PglWlhbo3q0brf/CxUtYu9YHcrKSEOOIISk5HdPNp9GdaskC9jsJAiEHc+cvQFFBLuTkZJDwJgn1GzSGrY01JCUlEH0yCmHh4bh15xF6df+HYla7dh1MM7ei44xYB8hLifl52aguL4tnL+LRt09fTJ1qTMfZgwf34LXaE+cvXkff3p3pb2pq6jQ/IXZEjz1Xr8Hdu7egrqqExLfvUU1eCfPnOUJZSQl2M2ZCICiEYnUZXL1xHx3/aYecrDSkZeTB18ebtmdnxC7s378PNdVVkJ6RhezcQix0mg8dHR0a3617T3Tu1AmKCrIoKMjFxcu3MW+uIzp16kjjXVwW4GT0WSgoyKN+XR3aRn0DYzRp0qxS48TG1gZx8QnYHRFRqXwsMUOAISBEQGSCsHtPJLZtC0fYJn/6Nvy52NOwsndGyKb1lCAcPRqFLVtDEejrQR9Zevc2ASYW9pg3dx6dnEm8v78vwjb5QlJaDolv4mBrvwC2djNofEn4FkEgu86VbsvgNN8e4nwZxMe9gJ6xNU5FnyzdeWzeHAyP1T6YYjAOltNNISbGAzhc8MRl6W5l9Wp3TJowHLVq1UNKchL0jCzg7+ePunXr0ImxqDAHrdt3w9LF8zBk0ADaJC6fmJfF6L+LBPkoFuRj1569cF/ti9MxJyApKUXj8vLyMdXUDJ07NIcZIS3FgF9gILbvPIjjUYfB5XJgajaN7rxCNwWAx5OG91pv7DsQhRPHo0r78P+smPv27cECJxdER5+AkqIi9SXpN2AQ9HTHwtzcEu/evYWnpzv9m5DDJ48fQtdgOgIDfNG+fXva9R3bw+G2yhujRgyAwyxrcDjkwS4uuOLSuHRJaEHYs2s7atUSLjZXLsXCccFS7Ni2hS4kI0ePhdnUSRgzajShjdgUEoIz524g0N+XkkQSP370YJhMNaJi9fdfh0dP47Bq5Up6bFESfpcF4UxsLNzc3LBxnTeUlGsgJysVAetDMNVkGhQUFKkOXr50EYuWLMeByB3CQczhgsMjvjBiePjwAbZvD4O52VQoKirjzOkYuHkEUmuBmpoaiosKcf/ebRibWuFk1F5ISkiSAsDhSVGCdPr0GSxavBgb13lBo6YWBIU50DeyxMRJkzF2zGjMmDETiYkJ2LwpAH0HjISVuTE6duwEfSMznDxxHIlv32LsuPHw816Opk1bgDzytnjpCshVV4Wjw2za3g4dO2H4kP5wnDOLWuI8PVcjJTUby5cto/E5WR9gO2MOWrVsgmmmJvQ30r/KPty2eLETEhPfwd8/8P95WLG2MwR+GwIiEwRHR0eoq6vA1nYmbeybhHjoGRrBY9UKShBmzp6NRw8fon6Dhh8XUwGuXLmKIUMGYq7jXNjNmEF3A+T4gJgMiwSFSEl+A2kZeUjLCM3wJHyLIBQVCXDxwlnEnD6PtLR0ar48dfo0ok8co+ZJEnbu3AF3Dy9s2hiAxk3K+hCQlyLv3bmJI8ei8f59CvLy83D+3HksX+aCnj17l9bfolVbLFu6GEOHDv2mUHZG7MQq99VlCAKxkAwYOBhHD0VCVk6RmDRw6dJ5TJtuhy1hmykJIQRh8IDemDBJ6Hy5bdtWeHqVEI3/f2fHN29eY/iI8XBwmIlxY8ciNjYWVtZ22LUzDHXrNQKRwZ3b16npPik5BTnZ2TgZfQqr3FwxcOAgisnRIwexbIU7toVvgnrNWmVkcOnSxXIEIfn9OwwdMQZ79+zCm8Q3MDE1R6sWzVHto19CZnoanjx7jp3bt+H169cwMbPA1rAg1K/fmOphdlYasrMyoKisUYak/S6C8OL5IxgYT6O7/p49uqNtm9aQkuRBjMuHmJjQBH/58hUsXLgQhw4dLKejxUUCnDkTgzOxl5CRmYn09FTcvfcAm4M3QEenNk3/4MEDGBpPxSniZPsZKSJxy5avwN59+9G5U0e6eNP09++hTZvWWLpkKSUI0tIScHV1xciRo2A/0576gujpG2H/3j04ePgQVri5o+M//0BCUmh5I3MFOcLbvm0b/btTl65Y4eqCHh/H3Z49EThy9BgCA4QLObGiWNvaonXLZrCwsPrmOKwogpAbMg4JuWSBIcAQqDwCIhMECwtzusubMkXoOEh2g4ZGU+gCSwjClCnG1PQ/qH/PMq1QUa2J+g1bQk9fjy4CepMnf7eV3yIIjx8/gaGRMSaOG4ZO/7QfBMyjAAAgAElEQVRGTm4u5jmvwt7I3VBSUqZlRkTshLePPyJ37YDix99KKiP+Bbp6+mjfpimGDe4LiBVj6Qpf2M+wQZ8+/Uvb9G8JAjli6dd/IM6fiy01Vd+7dwe6ekYIWh+A5s2bU4IwaeI4DBwoPFLYvn07PFavwano45CS+vMmMWJVWbXKHUZGRlBRUa7QV4IQgAXzHZGVI6Amf8/VXnjx7BF8/QLo4nbv/n1M1jPEsMG9MXRQbyrDGbOXYumShRg8WIhJVNRhrFu/EcEbg1Ct2ifiSOK+RhBevnwBfUNj7I7YgadPn8HC0hpOc62hqqJUKlOeOB+t2nbF1avXMN3KDkcO7YOqqtp39fB3EQSC4f07F+AbEILbdx6gUFAEk6lToK83udRf53sE4WhUFBYscIbplIlo27o53r57X2pBIEcRdMH/DkFwnDsPt2/dxDyH6WXkraSshoZN2lCCoKgoDycnZ4whFgX7mahbpw70DQwRuWcXtm3bhrDwrTS/7Ge3P6SkZNC6vdDhsGv37ljl5oZOnTrRv/fv24v9Bw9iXeC6KiUIlZ8OWQ6GAEPgcwREJgjz5ztCQVEZs2bOovnj4uLoguvt5U4JgrPzfBQWFsN1qfD8mSwu+R+dBMXEuHRXqaZWE/b29jSeOA/dvXcfigrVoaWlVdqmbxEEP38/3L19C2u9vaipMeFNIkaMGoujhw+UIQhrfQOwL3IX5OWFVoWScO7cObguc0Xk7h3g8STwITUVk3QN4DDbrkoIAjnCIBaEPbsjSp0iY2PPwMZuJnZsDYV2LZ0/miAcORqFe/fulxsdL18+Q1x8Iny810Bd/fuLKtWLV49hZGKFyN27MFF3MlYuW4gmzdrQcnfs2Al3D0/EnDwMKSlZPH36FOMn6WOpS1mCELQxBEEb1kFWtlqZ9nyNIPgHBCAmJhpBGzbg1auXMJpiBo+Vy9C1a1ehngkEKC4qhjhfAndu38IUU3Ns2rie+qmQQI6uyO2I5s2alXGY/V0EgY6dIgGKBHn4kJKEu3dvY/GyNfDx9kaTJo1pm79HEKxsbJGbkwV/H2/wxCVwJvYMnJxd6BGDKATBy8sTUceisW1LCHU8JIHs6PkSkuBwuBUShJjoE1jluRYhweuhra1N8xcUFlLrDI8n9DP5VQSB+GNkZmVBUUEBPB6vnG6zHxgCDIHvIyAyQYjcsxMbN4Vj65ZwOtgOHT6CBU4LER4aRAnCudhozJg1H5FkR6+oiHfv3sHKxg4rli1Fo0aNEH3iCFasWoMtW8Kpd39cfDzMpllgkfM8dOv26SoTOTqwsrZGu7atMWWK8PyReEuHhGzE+QtXsNbbm5orvdZ4Y8vWbTi4PxI1a2rS3Q6xIPj4BmJvZEQ5gnDj+lXMne+EvZGRtEziE+G0cBGWujhj8OChpeblrt26wdzcnJrIi4qK6bk2ny9OCQ85wyZh9+5d8Fi9FieOHaFOilwujzpuWVpaQEenLmbNEh7DkLNV4hRJdlZFxfijCUJB7gcUFWaX05bTsRdx9vwVzJ/vDHG+KMcgxZg6dQo6de6GY1FHELJ5MyQ++mlERkbCZckyagLni4tj67btWLnKA65LnDF8+EgqQ2JBqIggkMVLS6sWHj16BHMLS0yeNAaWVjZ0YRw7fhKat2iJhU4LqEzDwrfgxo2b1KJRkJeDsRMmoXfv3rC2sqL1EcLy7Nkz+PqsLeODEBa6CQcOHYO/31rIyMhSnS/xshdlUvm31xx37ozAjRu34OQ0DxwulzrPjhkzBh7u7mjWTEhqrl+/Dhu7GThy6ODHa7bF1MmTtM/B0RHv3iYhMMCPknDnhYtw6dJl4U2PevVpn588eUyPGEI3b0LNmjWpnktICPNfv3YB06bbw9N9FTp0aE913sx8OoyNDNG3T+8KCUJBXjb6Dx6BuY6OGDpkMB2ry1esRC1tbUz5eC2zIoJAbkjZ28+iNx3mzZtH+0zaVuLIKgr+JA2Zn06ePIlTMScgLl61V01FbQNLxxD4f0ZAZIJAdjOLXRbj2YsEaGnWhKaGEk7HXsJSl0Vo264DcrIzsTEoEDFnLkJBUQn5ebno1rktjKeag8PhITsrHevXB+Ds+auQlpFFQX4e+vTsBCNjM3C4nz4kQxbaAH9f7Ny9D7W0dVC9ujz1cs/JTsccx3mQk1eiVoc2rRrhePQZ5OQUYv78uaito/NdgpCZkYa58xyRm18MNVVV1K+jgecv43D9xj3MnzcX7du3o3LctmUjtmzfB9lqcpCSlMC4MaMwcNBgei1x5iwHZGVnIykpCa9fx6F1q5b0toLJVGPqlX375mV4efuCw5UUXreU4sLW2gJ16jWlE/3/4xFD9ImD6NixC6Rkqld4xFAyEMLDNsNzjR+MDCbBysqm9Ow8If4l5i9wBocngZoaGmjTsjFOxpxC4tsPWOa6BPXq1ROJIGhoqNMJXwwC9OvdmXq4y1ZTpCTu4b3r8PYNRE6egJI7rpgAFtNM0LK10OP/zq1L8A8IQnpmHjhcDiT5HFhamKFFqw5l+nf3znU4ODpBvroiXZhcFi2EtvYnS1dFg/7fEoTEN6/g6elJbwWQcVOQn4vWrRrB2NgM0jLCHX1S0ls4LViAN+9S6BVOzZoamGVvDyVlZdy5dQWuKzygrKwKFWVFDOjfA94+gZCTU6QYk9shZCwsX+6K67fuQ0lRid4WmD1rFrXkFRUVImJ7KPYePA4ZWXnk5mSjSaPa1Mm0uoJyhQSBkKnTMUcQFLwFfElpSpxrKMnBzs4O6hpCn5KKCAKR4+GDkVjjE0gdLQkJHz50MEaNJo6nogVCjnr26oOxo4bAzp44RwodjVlgCDAEREdAZIJABq0gPx2C/DRAjAuehAIK81MhLqH40YOaePnnoTA3BUVFBdSpSlxSERzOJ+ZeVJiLwrwPwngOH+JSZeNLmi0oyEZB7nvqYEQcpfjSGtTTujAvBYKCLLoAi0sq0/rJ33xpFfqbID+T/saXUQc51vg8fN5+MY44xKWUqYd2YV4qbSdXvOQOdyEKc5JQJCBt5EFcUoF6eJOz4bzMeGL/LYeuuJSSMH9xMa2/MD+TpuHx5cCTEH7Eh1ogct6CKy5X6jRVmJ9B8ZCQJRYQoUPYfyEQmRD58SQUweN/dkxAMMhLRVFBJsWWJ6lMrRaF+WngS9WgekRkT3RMXFq1HCZEf/Jz3lGcSSDpeZJKdCH9PBTmkW9tCL9XwRWvBnEqg08LBJF5YUEGvWnC5ZePF8qrCAU571BUmEfLITpFbu+IGv4tQSDlC/U4DcXFAjp+eEQHuUKHvxJdEhDd/6hnRD9JGqrz5Ggv9z29kcOlvytSHS8i40RG4+NNADKWhXUQfRbjSkBcUqn0lgC56VBAxrGAfMeAB66EAi2LhPzsJHprgoyZ/Kw34EqQ7xeIIz87UVi+GIdiR+YBQWG28AYKXx488U+3gfIyXoMnpVxapqAgk8qdL/3pewVkjijMeS+cK+h8I186RkWRwf3792FoPAUb1/ujWfNWomRhaRgCDIEvEBCZIDDkGAIMAdER+BGCIHotLOW3EAgLC8O5c7FY4+Ul4tEYw5IhwBD4EgFGEJhOMAR+AgJbt4ZSnxniO8DeYvgJAFdQ5OlTJ1BHRxOatYTXrllgCDAEKo8AIwiVx4zlYAhUiAA5biOmeg7v0yeGK8zEElQZAiVHE/+lo7sqA4cVxBAQEQFGEEQEiiVjCDAEGAIMAYbA34QAIwh/k7RZXxkCDAGGAEOAISAiAowgiAgUS8YQYAgwBBgCDIG/CQFGEP4mabO+MgQYAgwBhgBDQEQEGEEQESiWjCHAEGAIMAQYAn8TAowg/E3SZn1lCDAEGAIMAYaAiAgwgiAiUCwZQ4AhwBBgCDAE/iYEGEH4m6TN+soQYAgwBBgCDAEREfirCAJ5KZI8mkQC+bqdlJTw+/IsVB0C5IldEgi2BG9BURF9vfNXBYFAANIGGRkZkH/n5OZCRlqaPtzEwp+FAHmfJDsnBzwuFxISn96aqKiV5IXIzMxMyMrKUhkTPZOuhIxJ/qysbEhKStBXIskDbFKSUhAXZ09Cf4k9eeqbvOhJsP7VgdRN5EvmEvL4XVWGEh0gMiePgWVkZkKCzxf5xVCqu9nZtF2kfeQxv5J/V2U7f3dZfxVB2LM7AidOHMO9B0/QqlUreHp4/G78/3P129jaIjs7B/5+PnBZshQPHjzEzh3bf1k/7927CwOjqTiwby/u378HO/tZ2Ll9Cxo0YJ/c/WVCELGiV69ew9rGFnMd7NCxc3cRcwHx8fEYMGgoTh47jMtXr2KxiyuCg9ahaVPhc9gVhffv32PsuAmYN3c2tLS0MVHXAN5eHujR49Oz8xWV8bfE+/n70yezI3bu/OVdvnL5PFyXu8N7zRpoaWlWaf0pKckYOXo8hg0djNmzZqJvv/6wtrLAiBGjRKqHEIRJunqoVk0Wfr5rYTfDHtXl5eHq6ipS/v+XRL+VIBCQSSDM6/yFC5hqMg18vjh9kpY8n2xubgYtzapTDPI6XVFhPuY5LwV5c361p9f/i5z+b9q5aJETklPSsNrTA+4eHnj+7BkCA9f9tPZ/rkOkkjdv4jF2/CRE7t6Fx48fwdLaDgf374GGRsV6RMqaMFEXDx89QmGhgLaZx+OiS+fO8F6zGmRHM36iLl6+fAUpKUno1KoFff3JGDhgAN15ZGVllcZzuZ9e5yS7463hoahbty6Mp5rizZs32By8EaqqwtcLx0+YBJfFi+iDkyam05CRkYGiomK6e+LxeCCbJzVVNRw9chC790RiscuSMvE1aqhgw/pA2p4LFy9iylSz0nwlwOtOmog5DrNx7949TJqsTx/EJE8ik/6RHRDJ37xZM2wM3gR3j9XldtMTxo/DvLmOiI09CzPz6RAn7eKI0Z171y5dYD/DDmpqqiLLmezg7GfOQp1aarCxnUVfaxU1JCYmYuiwETh/7gzOn4uFw1xnhIVsRL16DUQqIiUlBZN0J8N1iTNU1dQxYuR4+PmuQceOnUTK/zsSfannv6oN5GVU8jIoX0btV1X5WT3F8F7jjtt3nyIwwI9ae0oC2b1vCApG5N691MLRqmVLzLS3Q61atUSyNmRlZWLosFGYMH40zM0tMHLkSNjPsEX3Hr1E7ue0aebg8fnw8fbC3LlzoaSogNkOjiLn/39IKBJBIOY8/4B1GDt2NGrr6JT2KybmFJ1MDQ306QR5+/YdnDt/Hrm5eTRdv359ISMjTdNnZGRiy5attIynz54jNjaWptObPAna2to4f+4snBctxmKn2cjMysTly9dw9uINuK9ciSZNGtMyUlNTceRoFOLi4lFNrhr69u6NunXrlLaHTOAnTkbj4cOH1GzUqVMntGrZoowcyEBznDsf+fnZjCD8BA31WeuF1/GJWObqCn9/f7x5EwdX1xW0pr1794HL42HokMGfySwfPr5+mGJsSInhh9RUHD0Shbj4eCgpKWJA//7Q0FAvTR+xazfkqlVD+/bt6GL57l0SmjZpjGHDhtKJIT8vF4OHDsf2bVvx4sVzTDO3QszJKMhWk6uwt0Q3bt24iKysDLivDoC0lBSmm5N2KaFR41bIzsnG+ImT0bxpfQwd1BfxCQkI27IHzZq3hLPTfBQVCUrjhw8dUFofmdhatPwH0jKyMJ4yFffvP4CtrQ0mTZxA04wdNw5LlyyFlqY67t6+ikJBIW7dvost2yIx296C4kBIRtv23fE28TWePnmAGzfvYNuOvTReXV0dTZu1hZS0DM6fj8Ush3lwsLeAiopyaRvUNTRRu05jZGak4dbNS0hJ+YBFSzwwe+Z06GhroknzdqhWTR5BQRsQGr4VC+bYQPrj2CWFqKlrok7dxjh9OgZz5i7A3NlWUK2hQk2zBw5G4UN6LjYHB1WIcUmCy1euYObMWQha74/6DYTjW9SQlPQOupP1cSzqCK5dvQJru1nYvjUUmpralPQQgvW1IC0jQ83IaWlpMDA0hJfnKirbvgMGY8M6P7Rq1UakJhA9efbsOY6fOEnrIvo5YEB/KCkq0mfdQ8PCoa2thZ4fLRJkAQvetBl9Ps5XL1++xLnzF9GmdUscO34SAkEhnSubNBbiUFBQiG3bt9Myk98n0zkvJzcHE8aNK53viN4fOXqU6r98dXn079uHLo4lIS0tHVFRZBwl0Lm5R49uaNa0qcjxZ8+dx+nTZ2h6on9mpiZlsCFzbcyp07h37z44YmLo8E97/NOhQ+kiHrQxGBMnjKdtf/78BRo0qI8hgwdV+qjv0aN7MDAyhae7Ozp3/kTgFi5ajIT4F5gwdiRkZWUQe+4i9u4/hpDNwahdu3aFciSYEyuUseFkTJ6sDz09PTjOmYNmzZuXyfvs+XNEROzGqFEjUL9evTJxcxzn0OfNVyxfhmXLXEGIuonJtArr/jwBIbvbtu9Ahw4d0LlTx0rl/RWJRSII5NGZSbq66NmrL8ynmdF2EQUxt7CCspIcVq5ciZcv46BvaIShg3tDU0MV4dv2Ytiw4bAwFwKWlpYKExMzdO/ejQ6sfr070fPp4SPGoHbt+pQgLHdbiX1799L0+XlZmDXbAUnJ6dgSFkLPGW3sZiAnKwMjhvbBg0fPEHX8LCJ2boOqqiqdGJYsXYaT0ScwfsxQZGZkYc/+KHi6r0LXrl1KsWQE4eeq1Y7t4Xj89CXmOToiNDwcH5KTYGtnTyslTyD7+K1H7OmY0jPnnTsjsH37Vrow8fmS0NM3hLQUH8MG98alq7dw4dINHD64H9WqVaNleHq64fbdJ3j39i2aNK6LenW0oVGzFt0NlJxT6upOgp+fPxIS4mBhaYOYE8ch9tnuQxQEyEJerZoctRyUBLLrIARh0IB+sLKyQnFxEV4/v4fRE02wJTwUNTXUy8R/rR5SLlesCC9exePA/n2UyJYQhEaNPh2DREcfx7Llq7ApOAg1a5a3fpw4HoUVKz3KxROCMG/BIrpYa2t/WjC+bEtCfBxGjZ1A0zVq1Kg0mshh565IbNsShurVq5frAiEIC5xdsDl4A2rXFpLzB/dvY5KeMa5evlRml/ctnMkYdF22DDdu3MTWLaEQFxfd/4CUSczD9jNmYNPmEDx+9ADTrexoOcrKKrh58ya10nwtLFwwHyNGjkBmZgYsLKbD12ctCGno3bc/1gf4oWEj0YjKhw8fMGHSZHTv0g4N6ungwOGTkJCqhkB/X9r/h/cuw2bmQuzauYP6wuzYGYHDh/Zh44Z14PCkcO3qJcyeswBqqjVgbaGPazfuYOeeozhy+AAlMMS6OWvWLLRp0wZ7Ivejd4/24HC5GDBgCOo3aAJifTEyNoGsLB89u3XA9Zv36X979+yGhASfdn3uvAWIj3+FEUP6IDUtA9sjDmJXxI7ScVRR/N0713Hn1lVcvnYb9x88xcEDB8pA6ucXgLAt4TCbMom2J2jzDixd4oJePXvSdCNGjoSaugY6tG2K2to14brKF+Zm0zBu3FhRhl9pmqKiQowZNwHt2rWjcwoZ42TdGDZ0KILW+0C9plAHE+JfYfxEfTg7zUX//gNFqmP8hIkw0NfF0KHDYWNrjTkOc8qNtdizZzHd0gZenivQu3e/MuWuWuUGFIthtoMD/P19oaaqilGjK9e/u3fvYKqpOYwN9UAsEn9aEIkgkEYfPhQJH7+N2Ld3D2WBxMxqYGSMQF8PNGrSCu/eJeL+3Wvo2q0XNX9euXIZK1Z6YW/kHtrnvLxcmFtYIiEhAWu9VqBePeFkKMYVh5gYtxxBoEw8ZBOCgsOwZ/dOvHz1CstclyLQbw3EJaRRWJCHhYtdISklg5VuK5CY+Ba6k/UQvIGcV9Whu7k9e3ZTByRDI7PSxYMRhJ+rgmmp75Gbk4MaappI/ZCEIkEBlFRq0kofPriLiZON4b5yOfr06UNJ36gx49C/bw/Y2NjRv8/HnkCTZs1Ro4Y6yCKmq2+CRQud0LdvX1pG5J4ILF66Es7z7DB8+AiIifHIGRU4XHGiTTTNqxcPUVOrLp1o4149Qb0GZa1IoiAgCkEg5RCSMGHCBOjpG6BP716UIDRqSHZLQ0qrkZOXoyZQclxAyq1XtxYeP36Kbt17YoqxEcaNH08tCH8KQQgJ24pZM2dARlroXMrhctCyRUsoKFSnFoQSgqCjUxspHz5gw4Yg3LlzA6Eh4aJAK9xcTLdCw3o6cHScR+VXmVBYWIA38c+gVash8vNy8OrlY+jUaQweTxw5OVlIeP30q8WpqNaEnLwSigQCvH71GFq1GoDDEcOTh7egVas+JCSF1s6KwqLFi8GBAHa2NpR4ZmdlwHSaNRa7LEbrVq0hKCyAv/9aXL56B0ZGBnB2XgRf75Vo0aoDLfr69SuYZm6NIwcjUF1RFQV5OZTI9u7dh+5kydESIVD79h+Cr9cytO8g3DmXzJXHjh1DWHgo1nq5Q4zDQ3GRAHPmOaFly9YwnybckI0aPQYrly9E3XqNiJLizu1r0NCsC2UV4bFWRfGkzOJiAbbt2Inw8K1lCAJpX/8Bg+DluRRNm7YEioGQsBBs3LQVx6OOUIvFyFGjMKh/L5iaTaO7bH//AJw5ewFbt4imI5/LwNNjJR4+fg7vNV6lG4vC/HRwxWVp2SQQy2JgQABCQ4Kgpq5VkQhp/MvnD6CgWANy8opUZ1TUNMuR1fi4lzgWdQC9+wyEdq26ZcpNehdH+66iqonkpDfgifMhX11JpLpLEr1//xZHD0eiWfPWaPlRPypVwE9OLDJBSExMgIGhMRbMX0CtAKFhWxATfQxBG4Lo+SE5hvD28cXBg4foRF9cVAw5OVnERJ+kXSCT9XRLa/D5PPis9aak4PPwpQWBxEVG7oa7pzd2bAvHoUOHsGatH/jiZCH4FLS0tECcD8nZ68qVbtizW0hISCBPvpLBweEKWTUJjCCIrlEEKzKZE/N2VXgRk0lHz8AAderUx+JFzrh27RpMzCwQtjkQzZq3oTuRqGPH4efrh4Q3b6isyDHUEhdnjB49hjY8KuowVnutxZawUCgoVm4wit5z0IW8IgtCSXmmpibUSjV27DhKEIgTHZkkS0Kzpk3o5EY8wUm5zZo1Qed/WsFjzXpsWBcAE1PTKiUIU00tqW/B5zJb6OyE0aNGlrbpexYETy8fSEt/8hyXlOBTn5K2bdtSgmA+3Zb6KBA/BmKqra2jhdXurqjfsKVIEKenp9OFY8jg/jAwMBYpj6iJiM6UnNd/mYfgURV63KNXH3rcSW5ffB5srC1gaCjsT15uOibpGuLp81dwXTwbQ4aNK53zCEFwWeJaOleRBXeBkxMK8vPg7u5Bx8GqVe6IORWDQwf2URLweXCY44DDR46D/8Wti/btWiEgQOjvs2TJQuzac4ia9YncmzRpQv1mSkJF8SXptm7bhrCwsDIE4fmL5zAzm4a9kZHUB4WEs7FnYGFlhwP79tAjY0IQ3JYvRcNGwmONLVu3ITy8bDmiynTnzq2I3HsI6wIDqEXm80COb3z9AnD06GH4ermiToNWpRsFUctn6b6NgMgEobAgH3PnzUN6Rja8Vntg7LjxMDebgmHDhV6fa7zX4vLlC3Cwt4KysjKePX8Bp0UrEH3yBI0vIQg6tTQxf75TuRZ9jSBs2LABYeFbsS9yF7Zt34pz5y/AxXlOmbxcHp8y49jY0/Basxa7IiK+K29GEEQfDgSroA3rUKduA/Ts1ZOeNf5ouHzpNBa6rKLm1w1BG3H50nkEBweDyxXHlStXqZVpvqM12rVti8ysLJia28N+hjVGfzTdEYKwfsMmbAzaUGou/dE2fS1/ZQgCMadaWkxDl67dKEEY2K8HLKZNLS1WjMMFhydDF6cSgjDD1gaWVpYYO24iAgICsMRlSZVZEGbNnodZ9uao8ZkPQr36TaCq9umo4rtHDBG7ER4SCHm5j34bYmLg8qTpQlXigzDPwYbuvt29AuDmuhDt/+lSjvR/Sy7EB8DE1AyjRg6Frq5+lYrv1atXCAhc/9UyR48eSfXqR0OPnr0wcvhgjBn1yUpEypSvrgJ5BRVaPLn2Nn26Be7dfwSnBXMxdOiw0moJQXBd5lZ6M4BYNOY7OSM3JwurV3uVEoQXL57C3z+wXHNnzbJHbl4eHOwty8TxJaShpiH0EcvKSAG5BXDn7j3cvHUfyalZWOa6BA0bCB05K4ovKfhrBOHJ4wewsLSl1uESgnDu3FlqBdm7Zyd0dOpQguDp4Y46dYS77h8hCJGREdi+Yw91pJWRKXvdkpR76OA+LFvqTK1AX248f1TWf3t+kQkCAer0qWNYuHglTE2nYP2GDQjZtBFaWsJzTmIaG9C/D/QNjCmD3xO5F2u8vXHqCwtCvbo6mDNnboUEgVghbGfMBI9TBB8fX8SeiYHLUjccPnyIMndSR3JyMuTk5Ohu7fWrF5ikZ4joEyc+7m6KQRyhiDPRuLFjSp1jGEH4usoTR8FTp06XiywUFODVyzhs3xaOel846fybwUPMlmPGjKM7JtdlyzHf0RZt2gp9RPbvP4AVbm6IPR1NF6MHDx7A0NgEc2bblSEIQRtDKHGRlRX6JfyMIApBILr08OEjGBobY9uWUNSooSqSDwKxIMy0n4mY6Cis9V0PaSlJzJ+/oMoIwq/yQailrYVly5fi4qVbCA0J/qrPwtdkk52dhWnm09GhfWtYW9tVqfg+pCTh4vnor5bZrEVbaGqVNRP/m8otLadBUVENLi6LKOkjO37iXKuooED/psQ6aCMidkXA2sIIC5d6YUt4CBrUr0+rIwTBdsZsRJ84Tuclsgu2trFDk0Z1YGM7s5QgEB8Cb2+fck0MC92Ig4dPIDwstNTnIzk5BfLycvQYS2h5y6W3U4j/mKAgC8tXrEJaZh7cV62qMP7zCr9GEAryc9GtZx8cPLCfOmaSQByQFy52wYWzMZCUkhUSBE8P1Pnop/IjBGHdOn9cuHgFfr4+kJQs++2ag08qwjMAACAASURBVPt3g2w6m7YQHt9UdSC3JZ6/eIHq8tVRs6ZGVRePvPx8PHv2jPoi1dLWFsmHp8ob8Z0CK0UQyHnfpMl6yMnJQ7OmjbB8+QpwuULz10o3Vzx/+YbeKX3w8CFOHD+Ki5euYvOmTdCupQ0UF9Ejhu8RhPnOCzHXcS69Lnb+/AU8fHCPOofo1GmE9LQPMJ5qgqbNWmD40KF4k5iIDUFBcJrrgHYdOiI7OxO2traQraZATWrE94A40owc3g9TphLnD+Hulwwe54WLcPfuXTg6zgFfnI/69euVM139SiH8CXUJCsmxUEG5ppDbKw3q1UHfAcNKZf2j7fX3W4sr128hPS0VoZs3UT8SEi5cOA8rmxnUsVRRURFHjx7B9p27MGH8GEy3mE4nPGJB+FkEgejGxYuXqGe+j68vpKSkMXWKMZSVlNCyZQvkfLzF0LBBPQwcOAivX7/G9h070aNrB8yaNQeFAuEtBhI/aNCnmxqkb40aNqR3uUssCIQgpH54TwnQm8R3CNkULBJBiI9PwL3793H71k3s3rMX1taWUFfXQLu2behuriInRWLev3jpMj6kJMNtlQesrSypSbhtmzZ0gSFOiiGhW2Fvbwvpjz4IpP2k7C6dO5XxQSDe4inJiTC3sKH+FKQsUQLxD5q/YAHevUvG+nUBVTopEp8QcpT1tUAsOSVn1qK081tp7ty6jJkOTjAyMqY7cvIthtMx0dQSRjYrhDQucFoAt2XOqKVTH+sCfXHr3jP4eK+hhIAQBLIDHzRwEAYPHojnz15g/Yb1CFrnA22d+hUShMyMD9DVM0Sv3n3RvVs3vH79CiGhofD19gK5rVJUXAxTU1MMHzYcOrV16EehyI2icaOHYPjI8RXGE8Jy89Yt2v0TJ04i6lgU3FYIbyLVrVOH+qLMn++ID6nZMDIypB+fI07B/fp0gpGxBSVJVUUQyJgk1iZ1dVW4EN8PTtljnbCwEDRu3ARt27b7EZF+M290dAxs7Oyx1ssNPXuVdVKsigpv3bpFj1nNTAwwdeonX7mqKLsqyqgUQSAVbg0PxpLlXtixNQjNmn8Syvt3cXCcuwA37zzEiGH9YWVhgtlzFyHhTRI2rAuEsrJShQRhqtl02icZGSl07dQOM+0soKkjPMMiihL34h5clnvg2vW70FBXxSzbqejea4jQUae4GB/ev8TKVWtw4tRFWobVtMkYPXYyONyyXtLXr56D7cx5eP/+AzVTrw/0Q4sWlXdkqwoB/Oll5Ge/hbikMsjkWlXh2rXLmGJigUkTxsDBQXhViISC/Gz4+KzBjl2H6I0Al4WzcfnyFfgGhsJvrTfatW/30wnC6LHj6QT/eejapTP9GApxtCUEgFzbIqctWpoaMDEah1GjxoHLr4aSWw4k/sswd84s6OvrlyEI5BA/PDwYrivWYHfEDpEIQkTETjgvWlqmeHKdcRO5VaBTu0KCcOfObYyfqFcmv6SEBL0N0aJFc0oQPFavLdd+TU0NRB05/AVBEHqQ37pxAcamtpTslVxJrkhXiNnY1y8I4WGbUaOG0HHu/yUQEnIm+hBWrg5E4tsktGjeCPMcbFGvYWt6tDBoyDCYGE2EnoHwamBeTiZMzKahwz+dKYkiBMHNbRWmGo7DcvdAelwwz2E6hg6fSNOX+CB8y4JA0jy8fwVLXD1x/+FTqoeOs8zRscunq7VXL8VghbsfXrx4jeoK8phqOBYTJhpAjCP0jfle/PukJHTvJXQK/jKs9lyJAf0HIO3DG3is9sLRqFiI88VhNmU8dCcbgycu3OFXFUEgH7UiY9LWahrGjBVeC/48GBgaYED/fvSq4s8I3mt9EB19gh6JCh2hqzYcOnQYTs4LcfrkYcjI/Tyfqn/b6koThCJBHooKs8EVr1bGeYYMmqKCbBQXF0KMyweHK4WigiwUo4h6m5IdPPkbHC64vPKfOCa7V0FB5sd+iEGMI06vBH3O+GkdhdnUbEYcI0k8h/NJaIQkCOPJTlhMGP+Zg2IJSCVmN6CIpqPesF84Av1bQFm+ihEQ4p8JMa4EuFzJT17sxeTjQLkoFuRR+XJ5MlTWRYIccMVlqE4UCfJBdFDowfzjPhFlW1uMwvwMoLjsDlSoi0Irh6Dg83jiWyBRSkCJ/pWN/1S6UBclISDlc3ilY+Bb44k42JLxRIjH52OgJH3ZdnPA5RM8uNQxV5hP+PeXQYj9l98J+DQGigpzKd7lghgHPL48vZUiHP9kzAjLL5FnZcZRdlYaDI2nUh+EUSNHVKw0f1SKYpDrd0UFBKciijOH+mgIjz4F+eng8CTL6EUR0XcOj85JhCCscHPH1vAQ+hEi4gpP8pfMVXQeIzIoLqZ6/7VAjuqE863g41gR+oh8PseRsoXx5JbPp/aUyOxb8WSeFeSnfbVeMg5IO4VzbQ6Ki4SfrqdzNYdfOiaFtwyI341QR4R6mweeRMXfI/m84l279yA4OAjhoZsgX/3Tdz1K0pDxyuHw6Tj8GcHQyAiGeuPRu29Zi2BV1bVo0WJoaijBxNSy0rd5qqoN3yun0gThVzSK1cEQYAj89xG4cfUsZjouxsGP34P47/dY2MMSgrB927a/pcv/qp/k2zaDhw7DyqXz0Kpdt39Vxo9kItYgPX09BK1fj+oKQl+Lqg7kiMZ1qQtqan77myVVXWdlymMEoTJosbQMAYZAlSFAfJr2Ru5ATU0ddO7y97yDkJDwCqdjTmCibtVe8awywfwhBV24EIu4l08xfNQE+hG1Xx2IM+2rF4/QsHHLKvFd+Vr7796+jIaNW9FvePyJgRGEP1EqrE0MAYYAQ4AhwBD4zQgwgvCbBcCqZwgwBBgCDAGGwJ+IACMIf6JUWJsYAgwBhgBDgCHwmxFgBOE3C4BVzxBgCDAEGAIMgT8RAUYQ/kSpsDYxBBgCDAGGAEPgNyPACMJvFgCrniHAEGAIMAQYAn8iAowg/IlSYW1iCDAEGAIMAYbAb0aAEYTfLABWPUOAIcAQYAgwBP5EBBhB+BOlwtrEEGAIMAQYAgyB34wAIwi/WQCs+v9PBE6ePAGvNWuxfl0gVFVVf3knbt28iXkLnOkjS8rK5b9R/ysaZGNrS1/3I6+o/o6waPEi1NapA0NDg0pVbzZtGrp27QYD/bKPVpUUkpeXB1fXxYiLi8fV63dw8/rVSpVfUWLyhPDoMeMQFrr5t8muojayeIYAQaBKCQJ5g3zUmHEI3Rz8rxVf39AYc2bPRLNmzf5ICR09GoXXcXEwmTrlj2wfa9SvQUBQkI3CvFTwpWv8loe+bt64jnlOC7GZEgSVX9PpL2rJz3lHH0vjSShUuv5VHp5QUVaGUSUX988rWrhoAWrr1IORkVGl6jc1NUG37j1goP/1FwDpQ0QFWfR1ziEjJuLM6ZhKlV9RYkIQRo0eg/CwkN8mu4rayOIZApUmCHHx8Th79hzS0tKgqKiEXj27Q0lJ+ETli5cvERQUjKhjxzFm9EjIyMigdm0dDB40iMaTJ0wfPHiIK1ev0vfDtTQ10b17N0hJCV92zMzMxOaQUKzfEIThw4bSXRl5ivlzlp+Wlo5Tp07jTeIbyMrKomuXLqhVS5vmj409S99if/DwITQ1NenTuVFRx1C/fn107tSRvjJGdgZnzsTi2fMX4PPF0aF9+9Lnackb6Nt3RGDc2NE4cjQKiYmJtIwe3bvT8gUCAQ4ePITQsDDIycmjTZvW9PdhQ4dAW1vYBhZA354nb8jHJyTQd+PJe/UaGuoUmsdPnuDEiWjo6+lS/SAhOuYUyITZv18/pGekY8+eSIr5tevXQeTdqFEDKmcOR/gkNHkeVUZWFq1atsD/2LsKqCqXLrppUMpAsRsTO7AwSDsIEQnpVLETRQQBKenuVEwsFLs7sAMDBRXpkIZ/zVy4inlR9Fffd9Z663mZ3jPfzJ4zZ+YcSjqM7Oxs2scK8nJsT3KXLl3G7Tt36PvpfXr3wogRw9npSR4XLl7C/fv3ibM82scjZUbUC7985Qru3r1Hx6yUlBQdPzw8LK90L1++ROK+/fTfoiKimDVrBh2LH8v9+w9w6fJlOs67dOkC2bFjICDA8jZHxl9RcTHatmmDa9dvgI+PF+PHjUOHDu0bNHx+lCCQPrh27Tr69e2Lq9euo7qqCiNGkO+gDxu/+G3bISMzAjzc3Dh2/CSKigqhpKiIHj260zoePpKMJ0+e0H8PGjgQo0aNZNedzA27du/B+HGyNH/Shz2lemDkSBnw8rK8DYaGhSNhx060ayuJQYMGg5eHF1OnTka7du0ahMHPEIQxY2Wpe+yHjx6hefPmkJebCDExsXrlFxcXQ3nSlM8IAiEQZL4jcyGJIykpScesuDgrPXVN/yodZ8+dQ2FhEVpJSGDceFk0Exen4Z8SBNbck4BhQ4eiZ08pjjEoKCik89EcdbUf3pBxXBgT8T+JAMcahKzsbOjpGaJf3+4YMrAPLl9NwcuMd4iLiabApb98Dl8/b5w4dRE682ZBuGkTtG/fEePlptDwFy/SoKGphUlKsujQThLRcXuhoaEBI0MDGk7YekSYPwJD46E5ZxraSrZC06bCmKXKYvlEO7Fo8VK8e/saKjOVcP/BE5w4fRn79+1Bs2bNsGWLA46fPAdTQw14+UagR/fu6NG9A3YnJmPH9jhISEjA1s4ep0+fhu68WcjKysG2nQcRGOCPQQMHsD/a7j2kMGxwL7QQF4WDqz82bdwIObmJlCCcOHYALu5+6Na1A0YOZxEE4ga0bbs/0xPX7x7RZOJTVddA82YimD55Ii5cuoETpy9i7+5dlMgV5L/DzNlzoaExF0aG+khLe0lVrfa2q6E0aTpSU1OhraNHF20N1cnIzc2B89ZgbFi/DtOnTaPNcXFxxINHz/Hq5Ut079YRPXt0ps5+Zs1WpwtcZFQMgkOCMU9jBsrLyhEevRMW5mbQm69Lw2Pj4hESGkLHaHVlNR1vFhbm0JqnSfPfuXMXiA94Xa1ZlBSEhCdQj27GteM0I/0Fjh89iOycPOw/dApRkWGQlGQRICJXrlyFqbkFNFSnQEKiBUIiEiA7Vha2GzfQ/BwdN+Ng0jEMGzoQU5XH0u+gsLgMwYH+EBXl3BXujxKEw4cPYr2NPaT79YGe9iycPX8Fh46coZqITp1Y49hygRl69x6AuLg4yE0YBXExESgqTUXffv1p+OmTSUh78QzHT15Arz79sGL5Cnb701+lYabKHEi2bg09XVUUFRRgq084fLw9MVJGhsaLiwlGeNQOSPXojBFDB1BcJspPQWvJ30cQ8vKL0KyZCAb0k0JU3B5MnToV69asrvfJfI0g5BcUYPqMWRg5fAD6S/dC3Pb96Ny5K7w8t9L0ZLMzc7YaOnWUxKD+vXHw8Gm0bdsewUH+NPxTgmC32QFpzx/Dz8cDPHwiHH+2r16lQVF5GnZsj0GfPn+mxpXjxjAR/0gEOCYIT1JTYW5ujj074yAo1BQl74tw+fJFjJVVBC8fH/U7fujgfrh7+iEmIhgtJSSon3KigiTy+nU6Um5egry8MqpranDl8iVscfXGnt27aDhh3c+ePsQcTT2EBHijnzQZ8MSPOT8NT0m5jY22Ngjy9wC/QFNUlJdhvc0miIiKY7O9PZydHZGdnQPrdWtham6JMaNGYPr0aZgxey7CQgLRUqIVdOfrIdDbBc0lJFFdVQlvX396xhgXG43Kigqq9tOcMwva2jqoARdsNtriXVYO/P38aP2I33uSh6ysLAz0dWm9uLj5fpmnrz9yxHyjUgcOHoSLiyviooIhLCoO4q3PzMIKw0eMxJLFVjRl6uPbWLd+MzZvdkBgUDAkJYRhuXAxeHkFkZr6GFra+tDX04SBPiGONbC3t8frzDxsdXOhGqLduxNga+eMVcssoKqiwlLvU3/3/Hj95i3U52hi1XILjJOdQNMnJx9GzLZEhIUEUY3UPC1tSPfrheXLloALXHhw/zYqKmvQf+AwSiCMTU3RWqIFNqxfC25uHjx+eBdFxaUYPHQkDa+pqUZNdQWePn0KM4vF9QgCcQ+rM18fA6V7YcWKpeDh4cXtlBtYuGQdYqIiqGbLyckBZ89dQGiQD1pKSCLr3WvMVNFCbEwUe4HmpN9/lCAkHzkE6w12CA7wRN9+A1BdXQEDQxNMnjId6mqqtGhX1y1I2JEI1y0bICMzmoUvGecEa6oNrABqquHs4kLHfz2CkP4Sk6bMhIPdWkyaRDYHNVhktQR9+w6AqakJawEtzIOp+QJMHD+GfTzwI9/Rz2gQSD/6+3iAm4cPt2/fwgKrVTiafJiOsTr5GkGwXr8BZaVFcLC3pZjk5r7D3HkG8PTwQK9evbDJzh6FBTlwsN8ILi5eFBbmwdPTGxYLFlPNax1BiIoMR+K+gzictB+uzg7o2Jlz7QGpY0F+LsLDAjB3ri4kWn8gqZyMHyYOgwAnCHBMELKy3kFPTx+FxaXQmKMGldmz6K78YyEEwc3DB7HREZCQaFUvrKS0FD4+flSVRj48Iq0kWuDkiePseM+epUJdQwuhwf6Qlh5QL31wcDDctnp91qaOHTsg6eB+ShD4+QVgYmIKC4sFmD17GsaOHQ85BWUEB/qhorIaOrqfu1dt2bIF1TAIC4tQghAWEoC27VhHBi6ubrh69Qri4+LY5Wpra2Hc+AkwNGBpPhj5gICntw/8/QM/g0RJUQHOWxzZKuaEhGg4u/qiX58e8PP1hYAg67ihjiC4uWzGyFEs/+/79u1CVHQCQkMCaR8dOXIIbu6eVHPVrDnreKtOrl67ChNTS5CF+mORaNkcO3ckUDVsbEwoHJ19MGbMKKirqWHM6FHsepE0OxNiYGPnipEjR2COmho9BuPj+9wVa2rqE5iaWdYjCK9evYS2rj7WrFwCBUXW0RpZSMeOm4CgwECqGSEE4fGTZ/D18WYvRqPHyIIsFl27duV4OP0MQXDd6o2IsGC0rl1UnJw2o7y8CtbW1rR8Pz8fXLlyGaEhYZTkf02ctjiAi4vnM4KgojYXIUH+6NuXtavd7GAHPl5+LK/VNBA3usam5pAbPxZ6+oYct/nTiD9DEIYMGQxTU3OaZU5ONtTnaCDA3x/dunVjF/M1gjBm7DiYmxlDU3MejUuOkszNzSAjIwNDQyNq32BmagJNTZZWirW5KAM3Nz/Fs44gLFq4AFs9PLF3RziERCR/GAcmIYPAr0KAY4JAGPfrV09x9txZ3LlzH3fuP0bHjl2w2X4TmjRpQuv3LYLg6+uP06ePY9liC7RqLYFnz9NgY+uME8ePsdv2LYIQGOCL8xcuYv3aZfWw4OXlR4fOPeHi4gRBwaYgBkgWFguhpjoDo0bLQk5BiRIEckSxdp01An1d66Unu7y2HbqjoqKSZThELItryc1/nSCQiS0w0J+qlkePGsU+o/7aYNzq4YFTJ0/CdcvGelGaNBVF6zad2OkPHjoARycX9JfuB3c3N/YCXEcQPLc6Y9hwljp6//69iIiMQWhICNUAEIIQFBzG/v1xQWRRIztTV8f1IMSxTrh5eNC+oxT1uV5dVYZrV87j0uWruHv/EZ49z4CxkSFmzpxB7RBI+I3rl3Dp0hUa/vTZK+ho60BdXZVth0Dy/RJBSEt7QTUI69ashLy8Irt8QigJIejbty8lCKlP0+Dr7Uk1b0R+N0Fw9/BFeFgwWrVi3b7YssWRLlo2Nrb0NyEIaS9fwmGz4zfnna8RBFV1TYQGB6B37z40/WYHe4p9nabhTyAIo0aPgV6tcWNOTg405mrCy8MNPXux6kzkawRhxMjRIIu75lwNGq+iohzmFgswZHB/mJpaQGbUaFgtWgSNOepfxK+OIDRvJoqSklLMVlGFtpbWd7+vb3YGE8gg8AsQ4JggfCi7BtVV5ch+9wrGZkthZmYORUXWZPgtgjBv3jxMUlaAljbL4nj/gQNUHc2pBuHkiWRsdnTFkcNJ7KoQYy/hWmM3okH4FkFo2aIFps9SxcnjR+lCQ+Tj9F+yLP4vEQRXt604fvzEZ0OsBtV49SoDCdvjqbHZt4ScWW9xccOFc2cgKChIo+bm5bGNs8hvYssxbfpMuDishrObP6ZMmwlVldk0bh1BWLt6BabW2hz4+Xrj8tXr8PXxoQathCCEhEYiJJilUfhYnjx+CC1dA9isXwtlZdYOnuzuqqtrICjIMhL8eBxXlhfh4IFExO9IQlCgP9twkhWnBlXlRSxCEkY0GEEQrzUyY9X1cw1Cbm425mrqUENXg1oNE1lkJsorID42hhossgmCjyddNIn8boJAviNyPbLO5sDKahF695KCiakFrQ8hCBkZr7Fpk903+/tvJgjE1mjlCpbtRGZmJmbMUsHRpANoKvLBDuRrBEFLax6GDB2OxVas651k80GOrhaYG2L8RCUQLeOwESOx0JKFZ2VlJZKSDmPgwAH0mKlurokI8cTDx0+xaMk6hAQHYMjgwd/E+0uBxFiSfBetW9XX2DY4IyYBg8AXEOCYINy6dRO+foHU2ItY+z579gw+vr7w8nBB1249adY3b1yBibkVlixehE4dOyE7JweTJimDm4sLDptt8eZtLpYsXYzU1KdITNyNq1dvICoqEu3btaO7yPy8HCgoTaEf2PDhw6gF9OBBA6lqOD83G7r6BhghMwpTJk3C28xM+Pn5Y8WyRZAZOYYeMXyLIBBLd6vFVuDlE4Khvh5KSkvg5xcABXlZ6OoafGY4RNrzJYKwYcNavH6TA329+XTxIQZWo0eP+usHV1VlCT1br7+G1iA4NBxt27TGlKkq4Kld0L7W2GdPH2O+vjEmTZpMb6I8e/4MTk7OsNu0AbKy46nx1pKlK9CjWzssWbIcKbeuwXzBcri5uUBmxAg8ffqE2iAMGTII2traKC8vg+0me8ycPgnmZpbg4ub+JkGoKC/FunVrkfbqLZ28ic0AuRnTqlULrFm9BlVVlViw0Aq9+/SBgpwcKquqkJCwDeX03vtm2qwVK1dSg7JJykpUNbxr9068y8yEq4sreHh56dgtryhHRvorODg5w2bDenqTp42kJMhxlb+fF5KOnMLKFcvRVLgpoqJiUFyUBxdnFzQVFvkjCMKqNTbQ0FCHgoICXqalwdXNDVvdnDFw0JDvEgRi55OekU7jRUVF0CMGLS3WewJ9+/TBmzcZ+J4Ggey4rRYvQWlpGQz09UGs+MlNgIZY8JPyfvyIwQDvsnJhamJCb07sTUxE2ounCAwIovYWdUI0HVOnzYC19Trax2KiopRUXbxwApsdPWBlZUUX5tNnzuD0qeOIjAgHH78QLl04CXvHrTA0NES7dm1x4+YtHNifiKiIcAiLiNWba5o3E4O/nzcuXr2NAH8/CNUSa04mlMePH0NFbQ5CAn0wbPiHmyScpGXiMAhwggDHBKGyogw7EqIRGrkDOTm56NGtM5YtNsaQ4cQYjPVRVVdVIDDAExHRu6khYv9+vRAQEERVt1mZr7Bq9TrcuvMQM6YpwtLMEMtX21AVLjEgY10VrMHRpJ3Y7OKP/LxCSPXoCidHe3Ts1JV1dej5Pdg6uOL6jbt00Vq2yACyE6ZQQ6HvEYT+/QcgP/cVnLZsxbGTFyAmIgJjgzlQUdUEN68gxwQhP/c1FlmtwPVb9yApKYE5qjNhYGjKCdZ/ZZzy92/BJ9gSXNysa37fEtJHmRn3sc7GBVeu3Ub3rh2xfLEhhsnIUSPCqKhohEeEY/+e7RASbk4NW2OjQ7B733GEBAUgKyuTEgSrBfpI2HUQL9JeYfqUiVi1ciX4BFg7u29pEEh4ZXkB/AP8EROXCF4+XnrjhZwHCwg1p+nz3j3Dxs1uOH/xOr3qqqw4DgssTCAqToy8uJCf/QJ2ju44e+4quHm4oSg/FlYLzCDWvB3evHlLNWAZr19/BsOyJYugr6+P6spSJCTEwDcwhqqPlRXGYsUyKwiLkTNmrj+CIGz19MFc9en0Wy4rK8UCM12oz9FmGwR/S4MQHx8PWzuHLw6Di+fPoLAw/7sEgXznjx7cwOp1dnj27BVatZKA1SJzKCuzbjxxKj9KEHTn60J+4mjcu/8EycdOo2ePLnCw34COnXvVK5oQSjc3J4RFbKd/nzB+LHy8vVFTXY3kw7vgsjUYWdm59CbGmtWL0aFTbxqPHMeePLYPrh7ByHj9FgOke2PdqsXo1nMgDf9UW1lW+h7mluYQFW0JN1dnjo8anJ234FbKTURHxtQjNpzix8RjEPgeAhwTBHJpvLq6nE6A5AMHFw94eIU+eySGhFdXkTjEHocXPHysO+Lko6mueI+amkpw8fCDm0eIPkZSgyoah+xEiNAyKoiRWW0ZfE3YYTSPyvf0NgG9IcErxL4lUVX5vvbWgyDNl5RBLKOryvNZ+XPzUpLBSk92ylys9LW3JEhYVUUBvWZE7s8TYe2qK8HL/0GVzWpHMV3cWNbdApRgMMJC4PM+agLuOut3OjbKwMsvyp7QyG/yH+mjp09TKUHw8XRB//69qYEf6Ucyzj6Q0HJ2fKIh+JJUVZaipm4M8giAh/ZPbVzSzx+NAS4ePjoW2XnVCyfDnDVW624wVJUXklH6WbEkTt04oG2q/U5o/XmE2O0lYwo1VeDmbcoukzy4RMcdBySsruCfMVLc6uWH8GB/NBMnxqE1H30HtUSf4FdTDR4+lm3Rx8JqG/nWPhcefvIOADmaKWR/c6zviPVtsvqxdpxUV6Gqspj2Mf2WeQTZ3yKn39KPEoTK8kJaFvm26VxA5rKP5hl2HYlxYdXH8xkfaz6jc2FlLQ41dG7h5iXzVJ1BZ204nceq6fxFw2v799O5pu5hJjKf8PCxDHa/J+SoTl5BCUaGOtDUbNhLkt/LmwlnEKhDgHOCwGDGIPCLEaizQfDxdsfgwUN/cWl/d/Y/SxD+ny8wNhbyP0oQGqv8/2c+aWlpmDx1Bk4eO4CWEm3/n1Vhyv6HEWAIwj/cuX9b07LevUV4eBDmzJmHDh27/G3V6z6vxwAAIABJREFU/631TX/1gtrxaOsYfGas+a2KPLiXghMnjzc43W9tHIeFHdi/Ey1atILMSNaV2P+S5OfnIPXRHQwaOoZ5h+W/1PG/ua0MQfjNgDPFfR0BomqlR0vkCaOvHB8w+LEQ+FGsfjTdn4g7OQb5r44VVj+Sk6svH7P9if3F1OnvQ4AhCH9fnzE1ZhBgEGAQYBBgEPjlCDAE4ZdDzBTAIMAgwCDAIMAg8PchwBCEv6/PmBozCDAIMAgwCDAI/HIEGILwyyFmCmAQYBBgEGAQYBD4+xBgCMLf12dMjRkEGAQYBBgEGAR+OQIMQfjlEDMFMAgwCDAIMAgwCPx9CDAE4e/rM6bGDAIMAgwCDAIMAr8cAYYg/HKImQIYBBgEGAQYBBgE/j4EfjtBKCoqRtLhwxg9aiTatCEOchj5lxA4dvwEdeksN3ECLl68RD16Es+OjS0HDyVBWFgYY8eMbtTHYrKys3E46QimTJlEnS0dP3ECSooK1KMoI/URIH0tLiaGIUMa7qb4Z7AsLCzE7j17MWvmDGS+e4fLl69AQV6O4z4qKSnB/v0HMXToYOr6PenwEYyTlUWHDu1/plpMWgaBfw6B304Q3rx5DTMzc6xetQLDRzAuSv+1EbVkyWIUFb+nXu/s7e3w6NEjxMbGNXozjY2N0aZtW6y3tqYutxtLUp88wpy52ti2LQ452dkwMbNAfEwEpHqyPPUx8gGBZUsXo0uXrrCwXPBbYcnIyIDy5Kk4eewwLl+5gg02dggLDUKfPn05qkd2dhZU1TVgvWYF2rfvAPW52vD0cIPsWFmO0jORGAT+Kwj8UoLwpedAiRfEqvIilvc0br4G4Uz8xs9SUYOD/SZIS0vXS1teXo6IyCgkJR2GoAAP8VEHUVFxLFq0AL17fXDjunDRYrrzmDBhfIPKroscHh6ByqoqGBro/1D6fz2Rvb0t3r3LgYuLC9y3uiPt+TN4efv+cLPJGCL/EZfhH0tVeQH1wsfyotew52YDg4LRonkzqKiofFYvsnhMmz4LcbHRyMvLg5GxGRL3JECyTbsfbsOvTvj/ena3srwIXNzc4OH93Ovjr2zz27dvMWPmbJw7ewoXL5zDspXrEBMVhq5du3NUbG5uLjTnacFx80ZItJLE1Omz4e/rheHDR3CUnonEIPBfQYBjgkDUcKdOncbIkTLw8wsAHx8f1q5ZhREjhlOs3r3Lgpm5JVxcnHDhwkUEBYWg+H0xggL80b+/NDIzM+luLCPjNY3v5eGO4cOHsXF+8+YNVqxcg/XWa7HeZiOysrJgoK+HOepqNM7bzEyoz9HEu3fv0KRJE7prbCMpiT27d9Dw9IwMzFZRQ3ykJ1q1bofKinLYO7rhweOX2JkQj+LiYhgYmeDhw0cQEBAALy8vTXfyeDKEhITg4+uPyqpKnDxxCtL9+0FzrgaWr1hNVdjLli1BVWUllixbgdOnz4Cbmwv8/AI0/VZ3V4yUYSaWuo4M8PfG87QM2G/ahIDAQLx9kw6bjXY0+MGDhzA2NcPaNasRFh6Jd5mZmD59KiwtzNlagOUrV6GVRCtozFHDqjXrkJqaCiUlRdist6ZEYMGixVSlTISolW03bmCTh7z8fMzT0oGpiTHOnDmLa9dvYEB/adhssIaoqCjev3+PORrzkPbyJXi4ucHHz0/zsdtkAwV5efrv6qpKyCsqIyoyAgUF+dA3NMGxI0lo0pQzN7wkj0OHkuDnH4jCokKMIeNnyRKIiYmirKwMlgut0KVzZ6xauZzWm/xNXUMTa1atpN+Sj68fbt1KwdgxYxAZHQNh4aZYuWIZZEawxhiJP2OWKny9PXD5yjUQskPcD/v6eqFXz540TlraSzg4bsHde3fRqWNHLFy4AMOGDmF/a8+fP4fTFhc8ePgIbdu2wUJLC/Z3TL+l9Aw4bnHGnTt3ISnZGhbmZhgzehQ7/VrrDTh69Bj9rT1PE5aW5uww8o/8ggJscXbB2bPn0bx5M+jN18XUKZPZ/TRpynSsXb0Su3bvwa2UFIwYPgwrVyyHmBhxF/19IXPA/PnzceDAfhCvlhYLlmD7tmi0bVv/iGD1mnW0LZERofUyJf2qq6sHL083iIk1w0QFZYQE+qH/gIHfL/yjGDt27oKnpzdOnzreoHRMZAaBvwUBzglC0kHYb94CTY2ZUFaUw42bKfAPikJ4eBjatmmDosICGBqbon37dhDk58aE8aNRU12DQUNl0KJFa5SXleL+vRt04Xdy8aZEYMyYDyq9169fQ22OBmRHy2CuxizkZOdgo70bXF2cMWjQIJo++cg+rN/ojBVLzdGlcye60A8YzJq4Xr58CW0dXcTGkImiLd11Zr1LR1lpMdq274Gqqkrcv3MN2vqWsDCZj4ED+tF0Q0fIgpubBx4ebjh9+jxs1i/DBtst6NC+PRTlZWG9cQu2xceiW9euePwgBavWbcQA6b6YrCxH0/fsLQ0xceZ8um7Anzh+BC9fZUBbWxdHjiShqCAXKmqaNPj+/bvQ1JoPBblxMNTTQl5+Llav2wwdHR3oaGtRAuDv74VDSSchKiKEaVMU0KqVBMSbtcSAgcNo+IP7N1GQl4uwyDg0aSqOLU4ObHKRn5+H6TNV0KVzBxjqzYOYmAhs7V3Qp09/Ot6II6jbNy/DdasvBvTvDdkxrLHTrUdvtGgpyf5mN6xfAyurpSgpeQ8XV2e4um7lyGMeGXNRMTFI3LsHJobaEBERxr79h5HxJheenu4QbtoUz5/ex/KV67Fy5SpIS/ejZJgHFVi/fgOEmojA03Mr4rbthKWZPsaMHI7zFy8hJGI7wkKC0KFDB0oGps2YgR5SPcHHXQVFhQng4eHGoMEjISbeHK9epcPC0hLTpypgYP++ePzkKcKjEuDi7Ix+/fqitLQUaupzoDprMvr374v0VxnYtTcJdnZ29Lsh4apqczB9qjyGDx2EjNdvELd9LzbZbkLnzp0pRk8e3UZOdha2JexB6zbtsGL5CjZ2hIgTrUuPbu0xbaoS3rzJhLdfKBYuXITJk5RpvFGjx6KnVDcYGWhDRLgJHLZ4QFZ2AkxNTTiaN8kC7+O1FavXbkD6qzQ4uzhj40Zbuth/LER7+Cr9NXbuYG0i6oT2q7MTli5bQecQEm/FipXo2JHVPk4lNiYSzm5euHGNRVgZYRD41xDgmCAcPnyI7jqSDx8ENw8/iosK6ESgqKQAvfl6KC8voxqE9PRXiIkMQXP2hMvyzFenBs3JyYaegSFWLFvyGUGYPHU6zp44iCYiLVFWVgrLBQswZPAgmJlZ0PTPnz+FuoYWQoP80U+6P+2LOvVyael7rFi+HJeu3oK8/ERMnzoVgwcPopoCooGudX6GQUOGw93VCePHT6hNT3OBp6cb3r59BxubjVi4aBFkhg/B9BkzMX6iMoIDfTF0KEvboaOjjXHjJsDgoyOGhqq4/7VB9HF7qirLUF1dBV4+IZB/A9Xg5WOpoFkEQQ+b7ayhrMwyXPT2csODRy+o5klIUAgHDyRijbUtosN80Lc/wZx1fMA6RfgwjqzXr0NJScVnBGHGTFWoq82gY4bEDw0JwNnzV+Hr4wUhQUHqK5LsqMfJjoWKqjq76h/3YVlJAfgFhFGDGpSXFkKwiThHXVZQUIi587SgNnsapk6bQXxSoqK8GGoauogID0XXrl3pOD5+9ACc3fxgaWkBPz9fxMWEQES0FR3Lnp4eOJJ8FOFhwdSVcU11JVWnL1u+gtaZCBl7BQUFVK3OJ1Cn2WB9Z+5bt+LSpUvwcHcFLy8/bYOLsyPadeiCBZaWyMwk6nkVhAQHoHfvPpQ0FeW/QRPhluDh5UdWViYmTZlBVe6DBxOtAytcqGlz8PIJ0vLrvuUtzo7g4uKpRxCOHDkCB0cnRIYHoX0H4rK7BmEhAbhy/Tb8fFlHTcNlRmHDuuWYPGUm/b0tPhpnzl6Ej48PRzgTL44VZUXgFxSlY430kYCQ6GckLj8nDdVV5WgmUf/ogdS/vKwQ/AIidFyVvs8Dv6AIuLlZWkVOpaQ4G8X5b9CyLWe2D5zmy8RjEPhTEGgQQYiOjkZUVAytex0hIDv5devWoaKiHOYWCyAmKgxnZ+ev7rgIQZivTwjC4s8IgqaWFk4cO0ondpL/Iqsl6NWzOxYtWkzLfPYslUUQgv0hLT2gHob0oy/Jw/Ub13Djxi08ePgE6W+yoa6qClVVFfYuc9DgYXBz3YIJE1gEoU4IQSh+X4bly5bBavESKMiPg9xEJYyWnYCgAG8MHy5Do2pra2Hc+AkwNDD4U/rwl9WDYHrlylU20frZguoIQmiQLwYNHkqzI0dEO3Ylws/Xh1qUHzlyCF7efoiOjICYeP0d4cflr7Ne+1WCYGlhDNXaxT8+PgaHkpLp4kSOpogsWGBJF1uyU25MefXqFbR19SDRQgwtWzZnZ024zerV1mhPNADkmKC0mI6x6zdvw8vdEcNlyMLPIkKEIJw7f4kSBCEhVn0JIVBUUsYcdRahMTYxwpBBA2BiavlZ9RdaWeH6tevoL/3B7oZEIsdg2joGIIurt6crko+fhYREa6qdI8cHRJtBju1IuL+vBw4nn0Kz5i0xaNBAjBo1CoMGDvjMGNRpi8NnBCEoKBC79+zDtrhoiIiyjgzOnTsNBycX7E9MpL9Hj5WFs5MjzZfIvsS92HfgAAIDAhuzO5i8GAQYBH4SgQYRhMioaMREswgC2eGbmllCqkcXrF69lk0QunXthFWr1ny1Wt8iCFo6OjiWnEzTEqPDRVaLOSYINBExaGP9AxVlxTictB8OLn6IighDt27daMi3CALZkS5dugRWi5dCSWECJkyUx+ix/22CsCMhFlm5xTAxMvzMULChY6+OIIQE+WJwLUFISIhH4r6DlCAIC7MIQkhoBEKCg+jvr8m3CMLCBaaYPVuVJiUE4WBSMvx/A0HIyEiHlo4eTI10MXP6tHpV5xVoSo+yiLzLyoKODtG6lWDuXM16Bq8fCEIItY0hoqOrg+lTp0FVjWWPQwiCoqIiVFVYvz+WpcuW4c2btwgO8KJ2FnXCzcMHXn5WfkSzU5T/Gk9Tn2DbjgM4de4aQoIC0KcP66ZGVVU5ivNeU43d9p0HkXziPLy9POvZMZB4XyIIISFBSNi5F/GxURCvJXinTp+Gu5sb9uzZQ/MfI0sIghNGjmTdYmIIQkO/JCY+g8DvQaBBBMFmoz0OHdwPcXFxZGezNAHkrJeodes0CN27dcbKlau/WvufIQgv055jlqoGggJ8MWhQ/bvXO3bswOMnqVixfFntTqgGx44lY+06m3pXoIYOl4GDvR0UFFhGaXVCNAicEAR9fT0MGzYCZmamv6eHflMpx44exqOH9z8rLePNW6TcvocAf39ISv7cuxV1BGHF8iXQmDOHqqqXL2cZ65ErkcTwk0UQIhESHPjLCIKV1SJ6d5/YSTSmkGMufX0jqimwt9tEDXlzcnJA3gsgRnpkwa+uqYGjoxPKSwswV0MNC6xWYfWq1Rg/fhz7iGHfgSSEhwajXbt2KCoqwtRp07HFcTOGj2BpsQhBUFZSxuzZn9/CiI+LQkhYLNVAkPQE48R9+zF06BC0a9sWxBj4/oOH1PiWh5sL1VUlMDKxhJraHEyaNIkaE99KuY3x42TBy8uN6spSmFsugry8MtTUWKSrTr5EEK5cPg+rJasQHESOMHrT8ol9Q2VFKTba2v9WgnDi5EncvXcfxoYG4K81SG3M/iYGtIn7DmCuhjokJT/YsDRmGUxeDAL/TwQaRBDc3D0gLCIGjTnq1Jr/4cP72LdnBwSERL5LEM5fuAiigiVGTBERkVBSlEe37j2o2neSshKdmL6nQSgrK8H4CQr0vvOIEcOoQZa2liZ69OiBtBePoKdvDvFmzelkm5eXTx9k6tu7B7y9vMAvULsb09HC+9JKyMtNRHZ2DoYOGQIlJQVqg8AJQfDycsWuPYehrjobRe/fQ4CfHwsXfK7q/X926o+UTVTLnwqZ3FeuWoWF5npo36l3g68TfppfHUEgBmrKypOpwWpUdDQc7TdAedI0mv+3CEJ6ejouXLyE6upqJO7di/LKKqjMnkUNzchjRuRYipDV72kQPD3ckbArEWqqqlRTJdFKAjpa8366fQSv61fPwsRiOVRmz0aXLp0RHR2LHj06w8nBEfwCgti9ey8io8IR6O+Nli0lsX/fDvgHxyIsNBitJCToEUN07DYMGzKEHoPtO7Af2Vnv6ILfsmXr7xKEstJC6M43ADePINTUVHD23Dmk3LqFkCB/dOzUBW/evIK6hg6mTJ5MNQYPHz7Evv37EBzghx5SvZCZ+RoqqnOhpKSEAQP648mTJ9ixcyf8fDzQv/8gpKY+xbXr12k9Dh9OokeJRJtBZOaM6SBPUqxatQLPXryhhqcpt1KQdDgJvt7u6D+AdZPid2kQVFTUINm6Obx9/DgyMm3od+Po6ICTp05hf+Ietn1GQ/Ng4jMI/MkINIggbNu2DQstjHDi5GlqOT158iR0l2IZC5JbAtvioyAhIQEFxc9fztuREIMH9z/foYqKicHcwopFHMIDsXARyyK6srISRL0t2bo1xk9UqsWwBg/uXcOR5OMoeV+CVq1a0StfzZtLgLyv8Dz1Hk6ePIPMrHdUi9CnV0/IyctDQIgYmbHOeF+npyIxcR9ycnLRokVzyMkrolv33jh5PAkVFVWYKK+MnTvi6O5HqmdfuLk4YO48HXTuzDqiKHmfjx0J8dRSX1RUhBpyjRpd357hT+7whtatsrwQPHxNG2WCrSMITvbr8Oz5MxTkF2DAAGnIyU8CDy/r2uj9eym4cOEs5mnpQ0CAZRRXJw8e3MWuHdsoQfhYBAQFYGq6CLx8vAjw98L4CRMxcCDLqPTa1Qu4e/cONObqsneRWe8ykLh3FzLfZUG4qTBkRo7CkKEjf5ogkPKIUeGdlCs4eeoMSkvLICXVHfLyCmgi3AKlpSUICw1Af+l+GD1WjmJKjOjCw4Ig3X8whg0fWWuDcAHmJvNx9eo18PPzYdIkZXTr0Y/dB3ExYejdpx8GDvpwTfhjPLIz00BemiQPCrVo0QITJ05Al26E4LFsDB4/uIkTp84gLzePagPHjRuDnr0GgIubl4Y/e3Ibx06cplpCcTFxjB07Cr37DgI3Nx+uXr2IpIP7vziMli5fS7UkRYVZSDp0CE9SUyEqIkLtPXr3G8w2AnRz3YxZs9TRpfbdgtsp13Hn9i3MnafX0OH51fjkKqSC0iQ4O9pCQXFyo+VblxF5LZTYhajMngZz84WNnj+TIYPAn4BAgwhC/LbtCA0hd4pZJ/1k0a2z/mZZNrP+Tia+T4W1Q61L93EoWbjrHrqpYaf9Wn4f/71+HciDOnSKrlc0q34fHtL5WvoPO2gSl+RRl4bUm/uL7fwUgz+hQ//kOtQRhMiwQPYtFNZ4+dBHH/rnw9iqaxMr7HNNB6uvPoyhL4/LL4/VX9GHXx9jdd9I/baxxh7rb0SDcOHiFaox+KAW/3r8L/X3178RVuyfCf96H5CcWd/J9/P/0N6P6/OleeNHxzPRbmxxccOendsgIvp1Y9cfzf/p06f0NcbtseHoLkVugzDCIPDvIdBgghAWGvbvocC06LcgwCYI4UGf3UL5LRX4CwqpIwgRYSHgF2BpVRhpOAJxcTH0PZaZszUaRTP0aQ3IC45Hjx7GmrXrG3w9suGtYVIwCPx/EOCYIBQXZqMgLxNtOjBv0v9/uurvL5Vc78tIu4s2HfpAUEj472/QL2hBbtZLvC8uQNsOvekzxoz8GALFhTnU7oiv9ubGj+Xy9VRlJUWorq6AUNPG1040dl2Z/BgEfhQBjgnCjxbApGMQYBBgEGAQYBBgEPj7EGAIwt/XZ0yNGQQYBBgEGAQYBH45AgxB+OUQMwUwCDAIMAgwCDAI/H0IMATh7+szpsYMAgwCDAIMAgwCvxwBhiD8coiZAhgEGAQYBBgEGAT+PgQYgvD39RlTYwYBBgEGAQYBBoFfjgBDEH45xEwBDAIMAgwCDAIMAn8fAgxB+Pv6jKkxgwCDAIMAgwCDwC9HgGOCkJ6egecvXmD0KJaL1k+FOL05d+488vLzadD4cePQrBnxgdA4UlFRgfPnL0CqpxTaMJ7TGgfUX5DLhQsXUVVdjZEyMrh56yZ1miU38XNfFQUFBbh0+TKKiorRoX17DB5M3vrnpu/3P019inHjZPEqPR0pKbcxbdpU8BIvQD8gJL+3bzMhM2I49c/xs1JSUkqdgBERERbGmDGjIShY32fEz5bRWOkPHjyEQYMGok2bn/PC+bX6XL9+A507d0Lz5s0bVOW8vDycOHkKiooK1Enb/fsPMHr0KIiJilLnWQcOHqKvHxLnVcTrJnHG9bEQvy3JyUepR1bicC0lJYWmb9aMebSoQR3BRGYQ+A4CHBME8rb59oQEhASHfDFL4ohm9844PH/+HIkHjiPQ3wfS/Qc0WgcQt7cGhkYwNtKHnJxCo+XLZNS4CCxZYoWi4hL4eHvDzt4Ojx4+QlxcXL1CiKMbAyMTlJcVY4zMYEj17IMJcsp0Ad++PQ5h4dGIjYnG0WPHYLNxE27fvA7uH1zcw8NDcfbcRXh7eTbKQl5UVIjQIG+8yczCzduPEBEWSh2U/YkyefJkrFq1ErKy4xq1esRZFiFztrYbMHPmbEhLsxy21fll+V5hDx89gqraHJw+kYxTp0/D1c2T+p7o1q07iMvssBBfvH9fSucR4r59ypT6zpaIEyrlyVNx4lgSLl++gg0b7REeGkS9vDLCIMAg0HgINIAgHML2hB1fJQjEQUtNdTky377FfANTODtthnT/gY1WUzIxGxgaw9hID3JyLPeyjPx5CNjZbcS7rFy4urjA3d0dL54/pe52P5bXr19j6vRZcHfZhDGjxwBcPODi5qMLzNHkJPj4BSEiPBSnz5yFg4Mjzp0988MNDQ8LwdnzlxqNIKCmGtVVZbh+/TrWb3RERHgIJCRa/XD9SEKWcyPOF1jictnGZiOioiK+WW5laQ64+YTBzcP/U/X7NPGBA/tx7vwFpL96hTZt21FPqkuXLKXeVTmR1NRUaGhq4eL5Mzh18gQ22TshMiIUHTp0JGCguqoUNahBYGAA3mUXYb21db1s3759i+kzZ+H82VO4cP48lq9ah5jIMHTt1p2T4pk4DAIMAhwi0CCCkJCwAzq68+HrFwAebh4sXWqFwYMG1SsqM/MtdObrwdnxc4Jw4+Yt+Pn5Uze0PaR6wGrRQnTq2JGdnqgbvbx9cPPWbbRuJQFjI0MMH85yafspQXj//j1WrlqDPn36wNTEiOPdC4e4MNF+EAF/Py+8SHsNO7tNCAgMwNvXGdhoa1cvtxcvnmO2yhwEBnhhyJDh9cJuXL+MLS5bERwUSI+UvL29sXfvXo5r8/59CTbZ2+N2yh3Iyo6BqIgQrl67VY8ghIVHInHfPqqxUFZShN583XrHDwkJO5GwYyeqa6qhpKiA+bo64OPjq1eHa1evwHqD7RcJQlBwKI4cSaZjcvr0qdCcq0F33ETKysqgq2eArW4uOHnqNGJi48DLwwsvz61o374djXMo6TDi4rahoLCAHulZWlpAqPYYIz5+O/wCAqirZonaBVm6X1+4ODux26ClMx9v3rylednarMeoT44FX758CTd3Dzx69BgdOnaAuakJ+veXpvHJwh8UFAI9PR2EhUXifcl7qKmqQGX2LHYbSt8X4O6dGzCxWIG56tOhr6cL0WaS4OHh5aifXrx4ARNTUyQdOoirVy5h9VobxESHo1UryXrp4+Nj6RHT5s0O9f5OXDnr6uri4MEDuHnzOiwXLMG2+Bi0a9eeo/LrItna2iHjzRv4+3o3KB0TmUHgv4JAgwiCs4s7RgwfBPmJY3Ht+i0cOnwKxGsaOSusk68RhAcPHsJq8RKoqUxG3z69cP7CZZw8cxmhwUFo2bIlyJm0sak5enRth7FjRiLj9RvExO2Gre1Gep79MUGQkRkNZxdXlBTnwW6TDfgERP8r/fXHt/No8kG8SEuHvr4hDh7cj8KCXGjM1fmEIDzDLBUNBAd4Y/AQFgGsk/RXaQgLC8XyFatw795d7N+/F9bWthy1myy+FpYL6Q5/vvYcvEh7hV17D6FFi5aUIBBCsMluMzLSX0BTYzYqKysREh6LgQOHYPmypbQMsnBeungO8zRmg1+AH5HRCegh1Rsb1q/7yP0y8DWCEBoWhuTkIzDQ1UBFZSXcPYMwb9486Opos9pQU4MpU6diyNDhIA6FFORlwc3FjZFj5CAiIopLly9h0yY76OtqoHlzcYRHbkNryfawt7MFLy8vXqWl0vwjY3bAzmYFzVJUrBn69R/GJslXL59GWWkJHF28YbXICnJych/wTU+HoZEJlOTHYqTMUNxMuYvtOw/Az8cbUlI9cOLEUSxbsRbTJitg9qypIIu5g7MPfLw9MWggSyNYWlaGdWutMXHCcOzbn4xly1eiW9euHPURiUTmCB/vrdho64Dnz1Lh4ekJW1tbiIiI1ctj27ZY3LyVAofNjvX+np+fD3e3LbDZaI+Xac+x2cGBaprExRtmg7Bo0QK8TH+NXTt2cFx3JiKDwH8JgQYRBDt7RyQnJUJASAT5eTkwNDLFjBnToa39YQH4GkFwdHJCYX42naCJ3/eC/FyaXk5eHqYmJtRoyd/PB9GR4eDlF0B1VRUunj8OUbHmkB4wnE0QDPR1cP3GbaSk3ICvpzvEW7Qmytn/Up/90W2tKH+PqqpKCAiKgPy7pqaa/vtjuXHjOvQMTJAQH4UeUr3qhVVXVaK0pBBCTcVRVVlO7RSaCHNmBEdU11ra8+GyxRajRo8DyWvV6pXIzSumBCE9I4OGb9m8AX37sexj7t69ASdnb0RHRVCSqjNfHxvWLsX4CYp0WD1PvY9nz59i9FhFCAh8MEb8GkHIeZdG8xVv3hbEsNZ2ky1y84vh5eHO3uEKros7AAAgAElEQVRr62ijvKwM4aGBEGxShw03XeCLCrLwvjgPLVt1QmVlFfbs3YWYuJ2ICAumCyA5jrhy5So22Njg4IF9bOxY5/+s74BgTmSelhYM9A3qEQQ3d3ecP3+entk3FRZFTXUlFixcgAEDh1GN3cmTx7B23UaEBvtS2xBypDJLRRXGRqaYPFmZ5kv69/Wrh2jboSfeZjyFqHhLNOWwj0j66uoqlL7Pp/1aVVWBkuJ8mv5T75XHjx1BZFQcwsPru5gnNhCl7/Nq01fifXEumgq3YGs4OP1A3qY/QmVlGdp1YmlPGGEQYBCoj0CDCEJ0dAyioqJpDmS3ZmZugW5dO2Pt2nXsXL9GEPT09DBu3FjMn69P41ZUlMPcYgGEhZvA3c0d3j5e1MDRxdm1Ni9i01BF/83FzcsmCEQNe+bseUSEeKFXn8HM0cIvHNFkMUq5fRt9+/Shu9efFZJfWHgETpw4iSEDe2HhomXg5lAtzUnZ169fg7GpBXZuj0WnzqwdbWCALy5fvUkJwu3bt2FqbomePbpAQODDubyYmCg2brTDixdpMDQ2xa6EOLTv0Im92JJxSMbgx0Z4XyIIpH2kbWHh4eDmqoIAPz9Sn72kxne+Pp7g5WUdU+jp62Hc2FGYr2f0WbOIRb+HlxeK8nMh1EQAWdm5qKisQURYCNWEEKEEYcMGqmL/lmjO0/yMIJBvjrTH19eH3Z6t7q548/YdHB0dKUHYZOeE6Mgwal9AhGhA1NXn0M3AByF2E4SQ1P2fkx5qWByifVqxciX4BUWgrzcfA2qPQRqWCxObQYBB4EcRaBBBIOelkRGRtCwWQbBE926dsWbNWnb5XyMIBgb6kJEZCSMj1qRICIKZxQKIiwrDxcUVvr5eSE19DlfXOoJQv0l1RwyCArwQExNGVk4xQoICICQk9KNtZ9J9BwGy4G2Pj0ZxaRU9h687R/9R4Eh+keF+2J14BAMHDISNjc2PZvXFdHUEYcf2OHTu3IXG8fb2xM1bdyhBuHv3DiUQIQEekOrR40MeXNwQbCJGw4lWK2F7HDp2ZBGEr8mXCEJWVha0dfWgLD8W+vq64OUTgJ29E95l5X1GENTVVDFp0pR62RONg6mZBfh4a+BgtwGCQsLYf+AgIqK3NRpBsFy4CCXvSxAcFMAmCK6uLsjJyYa9vQOLINhvQUxUOCQlWdcjCUFQU1fHzBkzGrW/vpcZ0egYmZiimVgTWJibQ7r/4O8lYcIZBBgEGhGBBhEEu81OOHRgP4SFhZGTkwM9fUPM19HArNnqnxAEfWxxsEP/AR8MGH19PHDn7iP4+HjTiSk7O5um19VWh4rqXFy8cAabHV0RFxuLpk2bUPVsRGQ0xMVEoKqqytYgGBnMQ79+/WBsuhCzZ6vShYuRn0fg4MF9uHf39mcZZb7Lxp27D6jRYNvaHeXPlEYs1G9cvwoDEyskbItDj48X6p/JGKDn2Zpa82GzYR0UFBTpGDIyNqEGhoQgZGe/g8ZcbRgZ6kNbW5uOQ2KoR6ziiSFf5tvX0NLVh4W5KWbNnEXDL168hHPnz8PE2IiO+zq5fu0K1q3fSG9b1N1iSEtLo0cU1muWQ05eCQWFhdDTN6DvBPh6e7ENHYkGQWOOOpSUJtVrMTG8na9ngJEjhmDxkqWoqKikRwkpKXfoNcCWLVm2PlevXsPqNWtw5HDSNzVoX9IgBAf5I3H/EZDbHc2bN6N2GPP19DFtiiLmaGj9UQTh2LFjiIyMQEiQN3h4m1AtTmPK+QsX8PDhI8zTnFvPvqQxy2DyYhD4mxHgmCAkJR2E+1ZPSEq2hZqaKsiDOGSS3LUjHkJNPxgXZWdn0UlOul8/DB8xAuLi4hg/ThYv057CyMQCw4fLYORIGezbvx/vi/IQ4O8HAUFhFBcXwtzCHCWlVZg1YwZSnz7F0aPJCA32QtdufesZKU6cqID7d6/CYuEqqirt3av+Ofbf3CH/r7qTq2rEgO5jITv+ddbroa87B92k+lPbkcaQF8+fYbaqBoICfDB4yNDGyJLmUVlZjoULF+J5Wgad9J88ScWrtKeo4eKBt5cX+Pn5EBrsh4iYnfS8nUhoWDhUZ02FmfkCcjqO4CA/RMftBtnhE+1UdHQspk6Wg9XiZfWs9B8/egBNbT2aD3kHgdzmkWjZjGoQiDW+np4ukpIO07PylDtP4Ohgh759Wff0v0YQyNm6tfU63L7zAKtXr8S1a9dQUpyDPfuSYWuzAXJyE2n6Bw/uQ9/ACIpKymjfti3Iw0FaWppo0aIFvX6Z9vIVjefv749x48ahd+/eaNKkCRQV5FFUmA3NefPRs1dfKMjL4XByMh7cv4uQIH9ItunwRxGEbdvicPPmLWqA+CtEXV0DzcSF4R8Q2Ghj+1fUk8mTQeD/hQDHBOHG9Su4c/smekp1x+Hk4+Dl5YHq7Jno0av+WwfEgOn4sUM4duwENahq264dFi1aRg2nHj24hQMHk+jrZ106dcSMmdMh0brurLcGWZlpSEzch2fP0yAuJoopU5Rr7Qy4QR5iCg7yxYQJ8tTArKqyAvFxEcjNK4Cp2cJGOSP/f3XCn1xuZXk+ePhEGnUC/XDN0RtDPrnF8LNYFOVnIjYuFmlp6Rg4sD/atWuHO3fuQ1fPiO4SqypLcPzYYZw7fxk8vDwYNmQQ5OUVwcvP0g6Q8JPHk3HuwmWQBXvY0IFQVJwMPoEP2gMSjxhAxsaE4c7d+3Sck4d/hg4dgRfP7tMrkqUl5ZCbOB69evdGYFAQveM/T0uPlkGud8qMHI3+X1CZ5+e+QUxsLDIz39HXJYkmJCw0FIVF5Fovy9anoqIMyYf34fKVa9QOgNw+mDFDFU2FRRAfH40b18nf6wt5ZXDV6vX0j69fPcauPfuQkfEabdq0xvRpU9ChU0/ax/fvpWDPnt0wM1/IvhXg6+OOESNG05sXv1O+ds2xMepANJhyCkpwst8ApUnTGiNLJg8GgX8OAY4JArWMJjtMYi1dayVNH7ih1tMfhPXoSw1AdqRUuNiqQVYeLAtrauDExbLcrhOalobX7mRpOGvXygqrqk3DXfu7Nu4X6vHP9dQ/1KA3bzIwZdpsuLk4YNy4z59h/pmmsscJe4zVjtePxki9ccjFVTvGPh6HH43TL4Szxys1oq0dzzT/unFZO/bp2CXlk9/kO2A99UxuDrDG/ucamXr1p98GN/tbqlOxs76x2u/xk2+JZdhb9419jOTH3+HH3yep2ofvmI3Nx3/7Rn1/pq++l9bL2xP5eflYt67+Q0nfS8dJOLkq6uDkjN074iEm3oKTJEwcBoH/HAIcE4T/HDJMg38ZAuRq26ZNNrh3/ym6d++OgQMHYPasmYwW6Jch/vdkTOww7Dc7Up8Md+6kYM2qZRgryzpaaUyJiY4CL28N1OewbFEYYRBgEPgcAYYgMKPi/4BADcpLi/AmIxWVFWUQFmkBiTZdG/UY4//QKKbIRkCAHB2+SL1OcxJqIgqJNt3Ay9u4T0WTvMkjVfwCQuDjZ25BNUK3MVn8owgwBOEf7VimWQwCDAIMAgwCDAI/gwBDEH4GPSYtgwCDAIMAgwCDwD+KAEMQ/tGOZZrFIMAgwCDAIMAg8DMIMAThZ9Bj0jIIMAgwCDAIMAj8owgwBOEf7VimWQwCDAIMAgwCDAI/gwBDEH4GPSYtgwCDAIMAgwCDwD+KAEMQ/tGOZZrFIMAgwCDAIMAg8DMIMAThZ9Bj0jIIMAgwCDAIMAj8owgwBOGTjiXP2N6//wDF799j2NAh/2i3//3NunL1KoQEhdC3bx/mJby/vzuZFjAIMAj8gQgwBOGTTiEOeuw3b8aL588RHBz8B3YZUyWCgKGRIdq0aQubDRvAw8PyccAIgwCDAIMAg0DjIfBHEwSWUxriH+r3vZVOyqyqKAKqK8Er2KzxkGZyalQEKstyqZMhlqfJ3zc+GqMR9+7do/4GYqIjGyM7Jg8GAQYBBoFfgkCDCMLde/cQGhqO9IwMdO3aBaYmxujYoQOtmLePL/j4+GFibEh/FxYWwmbjJoyTHYvp06fh9JkzuHTpCgYPGojomDjw8vHCwsyMuuQlUlZWBgfHLTS+iKgI/PwCkJuXB615mtSRD5G3b9/CPyAI9x88QMuWLaE3XxdDBg9iA1NQUIDQsAhcu34dQkJCUJk9E0qKihyFE2IQEBiEI0eO0vjEha6jg3090CsrKxG/bTuOHj2OqqoqTJqkBM25GjRORUUFbDbaQVtLE0eOJOP8xYsYOKA/liy2om6G/yty+/YdhEdGIj09A3379MYCS0uIi4uxm19aWgq/gEBcvXoNoiIiUJk9C/LycvXCg4JDcenyZTRt2hQzZ0zHJGUldvhGWzvcupVCf48ZMwpWixaCm/uDV0SSv5u7B0g9xo2TRZ8+vZGcfBRr16xCeUUFFi9ZRvvs6pWruH33Lnr36oVFCy0hLCyMS5cu487du7TuObk5sDAzhftWD3Tp0hULLM0hKChIyz116jSiY+NQXFyMoUOHwMjAACIiLHfQq9eso8celRWVOHbiBFq3agUrq4Vo364dDY+L34bwiEhkZmaiS+cu9G9Dhg7G6pUr6rXje+Nl16492LtvH2w3bkCnjh2/F50JZxBgEGAQaDACHBOEp0+fYcnSpZikNB69pLrhyrVbOH3uCsJCQtCiRXO8SnsMU4vFWLVqNUaPGoXIqGicP3cKXh7u4BcUQVLSQThtcYOi/DjMmqGMS1euIyZuD2JioiDRsiVdcFetXoO8vFzw8nJDdsxwNBESRLfuPdFPegglHOYWCyDVoyPGjh6BFy9eIiZ+D1xdnCEtLU0X6DVrrVFeVoTZMyZTG4LouF1YsXwFBg4c+N1wQhAePbiNjPQX2Lv/CN68zUJ8XBwbUHL0QBaL48ePwcxYhy76gSHRGDx4GFatXI7KygoYGhmDm5sH06fIo1u3TnBx90Pr1m3hvMXpr9vlNngkAXjx4gX09A0xY5oCBvbvi6Tkk3jw8Dni42IgIMAPQrDm6xlAsnVzzJqujKzsHAQER2G99XrIyMjQMWBmbglBAW6ozZ6KvPwCBIfFYumSpZCVlaVVunnjInKz3yF2226IirXEFicH9hEDGQNWi5ciL/cd5uvMwbPnr3D+4jWazs/Xh3oInD5TBZ06toOmxmw0FxfFJgd3jBgxCmtWr8TJU6dhY2MLq4WGCI2Ig2RrSczXUsVGe1f4+fmhW9eu2JuYSI+e9HTmQFxMFLv2HEBlNQ/c3VzQpEkT6OjOR15uLuaozUC/vlIIColBcUkFfH28KGl99uQ+Evfvw959R2C9ehGtW8uWrdFvwLAGjZHAQH+ER8YiPDQYUlJSP9JdTBoGAQYBBoFvIsAxQfDw9EJ21mtYWS0GF7hRXFyIJctWYpKyMvT09FBdXYUjh/fBwzsUxkYGdEL19tgCqV7S5JAAhw8fwmaHLTh8KBECgk1RWJAHI2MzKCkpQV9fH2SBdnTagsTEffD23ILBg4ezKs7FTb38nTt3Hr5+3vBwdwMPDx+qqyvh6OSMouL38PP1pbs5YxNTTJ+qBHX1uQBq8O7tS1qWWLNW3w0n8emRRk0N3D08cPnylXoEgbihnaWiii2brdF/AKtuBw7shc0mZ+zdvQMSEi1hZGyCPr27Y/nyleDi4kFERBj8A8Nx5tQJ8PHx/vND8X1xATJePUbHzr2o+v/mjeswNluInQnx6NatOyV5E+WVsHzpQqipqtE+ykhPhYhIC4iKt0RxcRGmTpuF+bqa0NHWoeFvMp5BqKkoxJu1pvjV1FTTPrLesB4lJRX1CAIhKHPn6WDThlWYKKeIyspymFtYoqKyppYglGHGTFXMnDEJCxcsBBc3NwICfHH5agp8vb1w4cJFODo54tCBfVi8dBntQzeXLdDVm4+lS5aje/dumKeli6mT5aCiok4X9KLCXMzTMUJEeBi6dOlMCYKQkAC8PbeCl08AV69cgPWGzYiMCEWrVq1p/Y8fPwF3963Yl7indoxz1ZIDzo9KMl8/x7vMl+gmNQiCQiztBSMMAgwCDAKNiQDHBMHYxBipqU8h0bJ5vfInThwPY2Nz+rfqqnLY22/C9p0HsHqFJebO1QUXN8uAjBCEqKhoREfH0N/l5WV0t9hGshXs7FiqfGcXVxw+cgQHEndDQLBJvXICAwMQFhGFTh3a1vt769aS2LrVg068sbGRiI7ZjrbtOmCUjAyGDR8K6X79qOqWEJhvhX+cqZv7Vly+fKkeQSCLm4KiMi6cO81u053bN6Gla4Tw0ED06dOHEgR11RmYMnUWzW7btni4unvi9MljEBT8+9zKUq3Ko8d0YeTEEPBdVhY8PLzw4P5dCPDzoqS0DA8fP8P2+Cj07StN+yjQ3xuJB46gTZt2GDVqJIYOGUKPAXh5eWl4RFgQEnbtQ+vWbVjhQ4egX9++NPxjWWe99jOCkJJyCwZGpoiJCoWUVG8aPcDPGxcuX69HECwtjKGqqk7D4+NjcCgpmZJMcsQQFBSA2Ng4rFixHAKCQthkawsDQwOYm5pBso0ktHX0ICDACzFREXZ1CFFwcHBC584sgtC1a2dqPEmI8eNHD2BuaYWoyDBISrahaY4RguDmhv379zXmt8zkxSDAIMAg0KgIcEwQzMxM6MRnYqhfrwK8/IJo0pR1xkxUxMbGxrh3/yGUlRSwztoaPLXnw5QgRMcgOiqaxiU2B2bmFmjXtjU2bfpAEM6dP4/dO3d8pm4NCQ7AuQuXsNXFoV75hIAIi7aoLb8cb9Kf4sXzpzh5+gKOn7oMIyNDaMxRp9qBqqqvh3NCECbIKeDKpQvsuqWk3ITOfCNEhAWid28WQZiroQZl5Sm1BGEbXN09/mqCEBcbiWrw0XP7j8/6vzQKydl6aGgIosN90ax5K9y7dx8mFksQExVGCQIRQiIzXj7BixdPkXzsLI4cP49lSxZj1qyZFFcS/jr9KdKep+LoyfM4cvQcTExNMG+uRr0x8UWCcOsmDIzNaHlSUr1oeSHBgThz7mI9grBwgSlmz1ZlE4SDScnwryUIISHBiI6OpgRBULAJbG03UoJgZmqGtm0koaWrB0M9LUydrFwPgqYizcHDy0cJAiFU662tafjjRw9hbrmIIQiNOm0xmTEIMAj8DgQ4JgjBQX500Q0LDQEfHx9d4MmOi5zvi4qK0PNlYuR36eJ5LF1sijXWjli+bBnGjx9H20EIwiZ7RyQdPAhh4abIzc2FnoERPWuepzWfxiEahPMXLlCC8Klcu3oRy1asw+7dOyEuJgZiE3DlylW0a9cO7du3ozYGZEGSlu4HLq4aVFeUwtnVDSl3HyI2Ovq74d8jCCX/Y+86wHru2vCtPbQJIdpWRjbZe28qJS3SlsoMZaWIppSWEQ1ZmSl7FJkNJRVJRnvvvuucP9Fr/fPGh/f3vNd7pc74nXOfdZ/nPOc85eWYO28e1qxejaFDh1LCER4eDqedu3DyWChExcT/aIJAcH308MFnuOfl5yPxyVNqa9KhQ4dv9skdO3ciJTkR3t7kemgLHD0ajg12m3AkKBA9evQEOaZ59OgxVFT60COXupoyathZBx7YbVxP2+hxfAJ69VQGDw836mrK6THSu9xi7HDa3kiL8CWCkJGRBo2F2rC3W4+xY8dRo0RjcsRQXd0sBIFoOrQX60JJSQkbN6yn5SGaJWIUO2TwYGqXwg5BuHTpMrZv346zZ880ye7gU/CJTRAx5CRGvVJSjbVqv2LiYL7BIMAg8PcjwDZByHqZAf0lRnQnOG7cGGoT8PDhAwQdDIRgSxHExyfAxsYGe/fsRAdpRVy9fB6OzntwIDAQ4uJilCA4Ou2EnJwCZs6cQc97b9++haMhByEs2vq7BKGstBhGJiaoqq7HQg11pKdn4PiJ4/Byd4a8YneUlZXC1MwMHTp0wrBhQ1FUWAxff38sXDADGpq63w0nNgzEOp3I6bNn8Sw1FWampnTX3L9/P4iJiWHPHleEhkXA1MQYnFyc2LvXG+rzp0BLeyldhP5kDUJ9XQ3rfP8TIZdM7e03Yf6cqejWoz89s/+WhIcfxTaHHXDc7oCiokLcvHkV5yMvY7m5KTQ1NVFcVIh5CzSgqqoKVdWhePfuHTw998DYSB/z52uguLgQWot0odxTGSNHjEBeXh72entDS2M+tBfr4c2bt7j/4AHq6+oQGhqCyuoaaKir04V5+DBVcHK2wNKlhigtq4Seni7i4+OR/CQelVV1zUIQ+vbti6uXzmGV7VZoaWpCWrojQkLDICIkACdHR/Dxs4wUv6dBuHcvDsuMTDFv3jxISkpSsr1g/jxKtNkVBwcHnL8QCX8/H3TuLMtuMiYegwCDAIMA2wiwTRDI4pGa8hhHjx7H67fvIN2xPebPm4UO0l3obtp5pyOUe3TB+AnTycMFqKwkxoNuEBNrhUXaurhw4RyCg4Ohr7MQJyLOgYuTAxrqc9FdeWBDYcPDQ/EkKRFr1pLz28ZCvpHz9gWCQ0KR+iwDEuJimDVjMrorD6A2ASQ883kywsNP4HnmS7QUEMCI4UMweswEcHDxfTf8zets2Nl9/l0uLk4Ym5hBSakrqiqKcerUcdyOiQNZPMeOGobxE6bQ/AlBcHfbhREjRkClL6tO165dxrFj4XBwcAIPDy/bjfI7RaypLAAnjzA1FP2elJUW4uCBACQ/TYOsjAwWasxH2NFwpKamU00BLy8vXmUmIyTsJDIyXkBYRAijhg/BiJHjwMnNTwnK66xUhISdQHr6c6ppGj5sEG1DLm4BPHhwjx4Z1NY2JjL8Avywtd0IUVExFORmYZ9fAF5mZWPo4IEoLinBjVtx8HB3Q11tLTZttsP0adMweAjrVsTVq1GIuxsHI2NzJCc/QeSFM1hhtZralXDz8FKjRFeXHZg0eToUFBRRV1eNuzFXcTLiAsrKy9FLuRu9httSpA3VBuxydqQPOKmpa9L8X2VlYs8eD1iusIGYGMt+h4yNE8dCEBN7jxJQovWaN08d/AKC34P4ffpKLNbVR6cObbFly1Z6tMEIgwCDAINAcyPANkEgHyYTeH1dLbUuJySAWHl/WDjqaqvpvz8YJZIFu76+Bi3IfxycOH/+HH1DwM933/s8yAUFrkYLz4ddLAfnl98NYN0yIDvd9w8o/TM9KV99LbVyJ0LL995IsqH8Xwmn5a2r+iK+LTi4WeWkdapt2Gl/mn9DfT/BhGBF4rPSs2+h3tyN/Kvy+4ABxZ/2D2J4WENx+4BBozhfbCNWv/lSG7L6X/UXqkP6GAvjC5EXQW5TTJ0ymV45NTGzoG8UbN2yhf5O0pM+QdqO1SdY7UnKSm+y1NWCg5MbpC/SPsTBRUnBp32dpqHj4MMtG5Ifq31pXNrnWUaVrDLXNOoDrH78aT/ioLc+2O0jWVlZ0NUzwB73HZCV60qxZoRBgEGAQaC5EWgSQfg3HydHDIQg+Pv5/5tsmLQMAt9EIDbmOhwcndGlSzeUl5UjPT0V621XQUVl0F+zkKakpODk8VCssFrViAAzXYNBgEGAQaA5EfhlBKEg/w1y32ZBTkmlOcvP5MUg0AgBsrt/nfUMuTmvqaFka0kpSLbr3KAx+BvgqqosR1VVGVoKsW7vMMIgwCDAIPAzEPhlBOFnFJ7Jk0GAQYBBgEGAQYBB4OcgwBCEn4MrkyuDAIMAgwCDAIPAH40AQxD+6OZjCs8gwCDAIMAgwCDwcxBgCMLPwZXJlUGAQYBBgEGAQeCPRoAhCH908zGFZxBgEGAQYBBgEPg5CDAE4efgyuTKIMAgwCDAIMAg8EcjwBCEP7r5mMIzCDAIMAgwCDAI/BwEGILwc3BlcmUQYBBgEGAQYBD4oxFgCMIf3XxM4RkEGAQYBBgEGAR+DgK/HUGoqKjAjp3O6NaN5QSHEQYBBoHGCNiu34huXbtiypRJ1B028R6pq8Nymc6O+OzzpZ4yV1gup+mJD4hVK63BycnyT/G7SMTpM0hISMRKG6vfpUi/vBxrbTdgyya7X/7df/vBq1evwS8gkPrNUZCXx7q1q7+YJfGg6x+4H16eHuDj+zMd2v1brH7n9L8hQSiHh7sLFJUUMW3a7N8Zuy+WjUy8xH1vu3bt/riy/9sCFxeXIDk5GXX/cBstLycHcXFxFBQU4GlqKp00uDi5ICIqAumOHcHNzfJGWFRUjJSnKaira+ytsWXLllBSVERpaRkNl2onBSkpFr5v371Dfn4+nYSysl4h+3X2F6vRSVqaulZ+9OgxKqsqG8UhZZOTlaXlSkhMRHl5eaNwbm4edOvahXqjTEtLR05uTqNwQQFBKCkp0oU2ITEJFRWN03O04ED37t3Az8+PJ0+SUVRcRNMTp04kT1IXCQkJtp01EdfZgwcPhKamFhbr6GHggP5YtWoV2823ebM93rx5A1dXN+joGoCDkwO+Pt5sf5/tD/3LiBfORyDpyROYm/95BIH0ocSkJPTp3Zt67PxRmT5jBk6eOPGjyf9v6V5mpiP+URwuXbmFFy9f4XDQ4S+W5eaNazh8+BB27NwNXl6+RnGKiorw7l0OZGVlfru++X8D9hd/+LcjCCyvih88Q7I84v1J4rxrF4SFRaCvp/snFbtZypqWlgo3VxcUFBbiTtxj9OyhBAlxUejo6kFFpT+uXLkCU3NLDOjXkzprfJn1BvLy8ti8yQ5iYmKIjY2FoZEpVHp3BT/fx8lCRkYWRsZmePToEQ0fNXIEHLZtocQiOPgwoi5dhZvLbpw7exoXL16gdbkb9xgCggLo1kWO/j5n7jyMGDEKGzfYIi8vF7Fxj9BSUJCGq6j0hfZiPeqye958dVRVlkFBvnMDJiIiIlhuaQ0JiVY4eMAfMTExSE17jsLCYvTu2Q0yMp1hbGJOCcZ8tYXU46hs544N6Uk5rW1WUzfQBIuMjAz06dUV1TW1SEvPhICAEHWX3rHjxzTfahATEyMMHjwYs2bNoQRh9KhhMDQ0Yt8NKMUAACAASURBVLsN3d1d8frNG2zetBkmpubg5uLCrl3ObKf/VRG/5931V5XjR75z7fp1rLBaiRvXLoEQzB+VP5UgEC+mqK+DX8B+XLwY+VWCQD3ekvmek/czErD/wH7ExyfRsf5vSNaPYs+kA9gmCGVl5fD22YfrN66hrrYGrVq1oSpKsnMiQibXY8dP4OTJkygrK4GwsBg01NUwfvw4tsLJ0cL6Devx8OEj5OTmYfGiRTA1NWloo9raWhwNP4aAgEAItRTEyJEjcf/hI3Tv1gXmZmbIzc2FmoYmtm7ZhEOHDiHzxXPIyClg3ZrVEBUVxfbtjqiorEJa2lOIiIpj/Lix8PcPgLy8Auw2rqc7uZSUp3Bz98DLly/ormrQwCFYZrgEQkJCqKyqgr7+EqirLcCt27fwJCkJwiJiWLNmFd19kvpv2LABZ89Hgp+PF8LCQrTsmzdvQr++/f4TfY1M6LU1ZRTHhdqGcNm5GUOGDAIHpwB1oXzlymWYmq/AqWOH0F6qDdLSnmGZ6SqMGzceVitW4N69uzA0MsPRI37oKN2hATPiipmDSwB37sTCynolWrduhV3OzpCWlsaRI4cQffka3FxcwM1Zj7o6lnZg4aIltF3sN7J21hyc/CBuxGuqiolTZqgt1IeigjwNb9GCG5xc/LSNCUEYMkgFVitMP2kzDnByC1KX33U15airq8Ku3R54+CgRnu47ICDYEpxcgigrK6UEYeK4EVhmqPdJ+hbv03NSgiAi3BI7HTdRklRbUw4dA3MMHqIKU5OP/f1bHWbt2lUYOkQV48dPgLaOHqZOHg91DU2qebl16zbVqPxTxMXFMGTIEPrngwf34/Wb17BaYYM1a9dSgmBnx74aOyrqEsjkXViYD15efqipqWHa1Cng4mIR+sTEJOzx8kJ2dhY4ObnRv/8ALF2iT8cRkZcvs+Du4UHbn5Aq4nnTxNgIbdpI0vCIiFNw9/BEeUUFZGXl4O+7r1F1UlNTsXnLNuTmvEPv3r0xdOhQHAkJQYCfL42np2+Afv36ISfnHRITElBTVw8rS0sMHDgAUdHR2LR5K0aNGIZbMbHQ09VFZOQFlJSUwdPDHaKiIqipqUHQ4SOIOH0alRXlEBERhZ6eHkYMH0bz99q7Fy9eZEJKSgqxMbdRXFoGzYULMWf2LBp+6tQpODg6oaCgCB3at6UL38SJE2Fhbt7keeBHCULcvXvw8NiD3Nx3lEiPHj0GBvp6Ddq6UxERNFxQkB/9+w+khFGqXRvYWFvTMs6aPRfOO50gIyNDfyd4BAUdRsQpljYjLu4ebaOCgjyaJxnDOjqLwfWPYyo//wBERp7/jCBERUVhp/NOlJaW411OHu7G3oKAgEADPg7bHRB29Dj9vZWEKNW3LbewwIQJE2i7LlDXhL/fPqqBJEL6/pq1tqiuroLDtq0N9fwe4KR8O3buwsULZ2l7MtIYAbYJAjkLdHPbBWtLE/Dx8+Ps2fO49ygFnu5uNMeM589hamoKZ8eNEBIWxauslwg9egp29lvAw8Pz3XDSwPk5r1BaWgy7zU7o2VMZ5ubLG0pLVKIL1DSw1c4anWTk8OD+fdhvdYGW5nyYmJhTgjB/gRoGDewHk2V6qKuvx8o1G6HSpx8sLZfD0ckBT5KSsXH9Klhar6XEYtqU8TCxWAu/fV6Qk5OH/hJDzJ42CgMGDKIdzdnFE/yCIti+bRuqqiphYLAEpWVl2L7VFqKi4nDe7YbkpxkIDT5Cy5mX8wpGppYYNKAfFsxjTRbirduBj0/wP9Xvkp8kQW2hNtx274DqsOENdf9AEM5EHEeHDh1BdhmnjofC/0AoHewpKcmUIBw7GoxOnT7u4D9kEBsbAyNjc+jrLsTrt/nYuGF9I4JASN4HUVNTh5y8ArZstv8i9vPmL4CiolKjcHI0RAjC0CEDsXLlym+2mZOTIx4+ToC3lycEBFjtW1paQgnCpAnjYPKVxZ4QBFERUezatfN9/vUwNzdD586dsHw5e6r0qMgz6CwrD1lZBQQf3g9l5Z7ortyHLmzhYUF0Yf6nSEm1x7wFi+if4x/dQ3FxEQYPHYmoyNPg4OTEqNET2eqjpaWlMDMzxbw5U9GzZ08QrdGqtQ7w8/WGoiJrszBfTR3zZk3EsGGqqKqoRMCBIEybPht9+rA8ua6ztYVUWzHMnDGdTuxnzpxBx06KmDRpMgvH4gIUFuQgJvYOTkZcgL//RxfxhFDMnjMPQwf1gZraXOTm5GDl2q2QkmoDP18/mt7AQB/5BUVw2LwGYuKtcPLUSVy6cgf7A/1x6dJF2Ky0hYvzFpBd/r37CdjptBlr12/GtKlTMXfuPFy4EIng4CCssjaDYEshPM94Bvttbgg+HARhYWH4+OzB/oMh2O20AZ1lFPAsNZmWIToqkpKB0pICSqD8/A/jaLA/JU4CgkIQFW/DFsafRvoRgkAwnTt/AVaY6UBGVgEV5eXY4uAM1WGjoLNYG2SzNX7iJNits4CMjDxevcqE1aotdD60smYR6pmzZsHZeSdkZWTp74QgHDp0EKcjIujvdnYb0bVLJwwdMhTl5aVYYbMRTk47oKig0KiOXyMIZaVFKMh/i1u3YrFx8w7cvnkNgoIf58n83New3WBPSTlpB/JTVLw1BARF6Lxhu24NJFq1xfLlFvR7WVlZdIO40dYGo8dMZPtIgvStHc4uiDwXAan2HzclTW6ovzQB2wShpqYCmRmpyC2sQlVlJV68eA5fXz/KvokQtamunj422dtTlWurVhLgqK8EF48Q0KLFd8M/4FtVVQWL5ZZQUpRrRBAuXboMb28vBAUF0c5SVFRAd2OjRg5vRBBcnLeiR8/+dGeyznY93r17C++9e+Hk5EAnIzOz5TAyNqa7rtFjxmH8xKnwdN+Nzp1lqRqaaBxaEBZcD9y6dQOnTp9H1MXz4OPlgcGSpRgxbCB09QxZgyboEHa77sH1q5coCSKipaWJESNHQV/v0x3kX9p7vlItdgkCSf769UvMX6CFsLAQZKSnUYIwoH9fCHwyWUwYPw4Txo8HIQgk/PBBX+jqG9EJ/86d2w0ahOYiCHJyMlBXV2uoHbEd6KKk1GhX8i2CwMnRAvKfTJTE/mHpEgPw8fHRPltXVw9j42VU63T37j2cijgJD9edUOqizFZHqautQgsOTurCuq62kv5swUF27/UgYVS9+w8hcYgGhQhV3ROtCgcXjU/kQ9j3CkDyznn7HFnZ+SivqEJtTQ0sLK3g7robgwYNoslnz5mFMWPGY/KkiWgtKQl+HqAFB3fDN1avXgluHn5oaWpCUrI1hAR5UY96qsX5VC5fvoTAwP2NCAJZCKbPnA0vT1e68yXjfIfjFiSlpDUiCN27d4GFBYtwEW3iYj0DREVewKVLUVi/YRNCQ4Jw7doVxMTcgYODI6ysbaCoIAMjI1OoL1yITh07YMxYlvazproGnns86bHhjBkzsc/HC3fj4uDl5U13tkRzNGXqdGorICTU8v3cEITdrh7/lyOGmJhY2NvbwcJiOSkelYuRkYi9E4dL0Rdx584dbHfcjtCQEDqXkn6zdOlSKCjIwsqKPYJQkJeFzKx3KC1j9QFXVxdoaKhhxgzWxuiDfI0gfAiPjo6CxXJr3PoHQSDhVlZW4ODkohqBfx4xXL92GTarbXEm4hTVEEdEnIaX1x4cCw8BN89HTcT3+nNtdQlqq4rBzS9JxxQjjRFgmyDExt7B+o12GDKgF6Q7tkVuXgEizl7GpegommNVVQVOnQjBkZBTKCouo4ZXROU0fJgqW+EfivU1gkAMWa5fvwEPD08atbKyAiamZujVs3sjghB8+CBatWYx9Q129niZ+QK++/ZRgsDHJwADAwMYG5ti7pwZGKo6AmPGTYCH2y6qKjU2MYWW+oxGCHFxc2OB+mLw8PBSgqC2YA4mTZpG4wQHB2PnLhdcvRwFPj7W5PY3EQQy+R48FIT58+bSIxh2pSkE4dWrLKoeDwsNQfp7gmC7ahlat5Jo+Jx0Z0VId1ZqIAgxt65iw/p14BcUg5xsR1y+eoMeMTQXQaioKIW8XKeG7xPVo7m5JYSEhBv+9i2C0KOrLKZNHt0Ql2jUuvccBC4ubkoQnj/PgEqf7nT3qtxdCcZGepBT6EnV8f9GSHuR4wVCPP4phMASO49/Kzk5uVhmZILWEkJQ6dMNPDzccPXcT21AiF0EkfhHsfDa64fE5DRqnEpsRhZrL2rYIWa+eIo9nl6IvZcAYoDar29fLFu2FBLi4o2K9yWC8PjxI+gbGMLfzwfdunWn8SMijiP82MlGBEFVdRi0tbVp+KtXr6C1SBtRFyMpQdhotwXHwkNx5fIlEFW8nd0mWNusgqxMBzqXDFEdht7KXdBLuUuj8gwYOAR9+g6mBCElNQ2O2x1peFlZGabPmInQkCMQE2PVgWxk/l8EIejQAew/cAizprMIzgchZMDA0ALHjx1FxOmz8PVlHckQIRqz1q3F2CYI5Kjv5cvnGKnaDwKC/Dh67Dw0NTUwb95HYk3y/VkEoaSkkGrrNNQ1oLlQA6Zm5pg4bjimUMP296zo33Z2Jj37NggmJqbo0L41rK0s0YKDB/fuP4SVzUpcjo5ugJHsRmoqi/DiRQYizkYh5OhpBB3cj86dWeriL4UfCPSHnBzLkIzI1wgCGdARZ87TxZ5IeXkZDJcZo3+/3o0IQkjwYWpMRuRzgiBI1Y/GxmaYN3cGhgwd3kAQJFu3hpa2HqIjT4Pz/VkqUcWRq1+kvuTIgRAEdbV5mDhxCs3/byIImZkvkV/w+dn1tSvRyHz1FrZr1zRSAX5r7DSFIISFhVEc9+3zoTcgvnfEQMLvxt7E29eZWGayAhMnjkHcvUfNShA+t0HgBCe3wPvdFqvm/+aIgWWDsBmXLl+C/dZdCAzwh8z7MfJv5iRCDFavWY0nT558lg25Funo6PRvsqdpDx48BP+AAOz334N2Uh1RXlEJ1eFj4enu0kAQiJaB7MqKCnJw+dot+PgGYaGmJp3IiRAiU1ddgrLSfMTExsEvMARdunbHett1jcr3JYKQ/CQRmtp68PXxQs+evWh8snmIvBjViCAMGz4Ci7S0aPjnBGErjoeHguTPIgj2jQjC1GnTMHHCBBgtM2CVpx70Zg4hcERTQwjC02cZ2O7gQINZBGEWQkMO/xYE4fy5COz1CUBYyKEGPOtq66hdFQcnLy5cOI39B47g4IEDDeGmpmbo1EmqEUHY4USu0MrTOAGB+xEaGkKPGF6/zqbHPCfDD0Bcoh1RD0FHzwBTp0z6ZQSBNAo5Tjtz/io9bjAxNUVggC/ExVs3qY+TOZ6sOcSO4oMNTZMy+Msjs61BWLrUAP369ofBkiVUVW9ts5Kqqq5euUwhehwfj+TkFMydM4tOAAX5udAzMISFmQmGjxj11XDjZUsxZuz4Bpi/RhCSkh7DcJk5Lpw/S3eKLzIz6c5TfcHsZiEIPXooY/acuTBcaoiZM2fQOhw+EozcvDyYGhuxbBDYIAhLluhBWblPIwPLP6EPpaclIi/n9WdFTUx6ims3YrFjx04ICxNjoe8LuwQhI+M5dPUMMGXyWFhYWCIuLo5tgkDOerdstkPy03TwCwg0K0H4VTYIFeUlWLV6Ncor6+C8w5FtAva1FqDjLu81JbP/FG4eXoiJt/1+430nRkCAH46EhONI0AFqvBcSGortjjvg5robQ4cMQV5+Pnx8fKGnp0M1AvX1tfBwd0VpWSVWrVpN545du10xd85sSEt3BOprcelyNIKCCEn8uKMlxfgSQSgtLcKIkeNgb7cRkydPooalGhoaEBERbjaC4L3XDRejb+LI4UNUtV1WXo5Nm7bA1nYtBPj52SIIZDF13LEbly6eR8v3xpk/Av6P2CCUFOdj4uSZ8PbeS6/nEiFvX5Cr11OnTEZuzmvMnK2G0xEnqU0FuZI5afJUTJ0yroEgLFy4ELp6OhgzeixNb2llgydJiThzOgKZLzKgraNPDRaJ/Q0xGtXQXITl5sZQV1/YqJqETJ47dxbBR4K/WP1vHTGsW7cGJaUV2OHk+MXFu7KyFIu0dSAhIYnWrcSwfv0GcHI27ebbxago+Ozzw+pVNujdi0U4GfmIANsE4XREOLy8AzFnzhxkZKSjU8c2CDoSDm3txdTYqKgwD5YrrKGo1BVi4uJ4mZmJ4qI8eu2Nl68lXmW9+Er4bvDyCeHu3ThciLyIurpaXL16HWJiwujVqw8EBPipYQ0nZwussLREUWkFBvQfgNSnyXRnMGbMKJiYsG4xECPFH9Ug9O83AIcP74ev/yEMGz4cdbW1SEh4TI1elHsNZJsgHA0Lgpf3fqioqKC2rhbt27VrMKT50zoeWXDc3HZj0cL5EBGX+q7hT3p6Ojw8vaiamxiY9e7VExKtWmGxtha9D/7BSHHQoAH0/Dvt2VPIdO4Ah62bICbRruEIoW9f0u4fDZYEBQToYznJyU8ogSAaBA4OTsTdjcHSZWZQ6duHLYJA6mO/aQtdxG7fjqFW9eR9gj69e2GRlmbDNcdvEYSgw4cRE3uXGlQWFhZBpU8fanOzzHApPfsnas8WLUCNXj+VObNmYvjwYfSI4VMjxdy3mdBYZEANYIkVPCE+v7OkpT6BsZklhg8fQY8s6usqcP/BI4iJScLIyBAdO5BdqCUqKuugoKAA8jbGgwdxWLdmJVT6DqRVc3Pdibj7CdTIsaqK2GHEQl9XExMnzUBmZiYOHAyi8Yi9QWJSIsa9twVYMH8u5ORk4eXpglNnozF69Gi8yc6GiDAf0tJfNqjMiZbw32gQykryYb58BSqr6tFDuQclrj26ysHW1o7ultnRICTEP4SJmSW9hUHsLMjudJM9+zdFPvSBHyEIJK3XHheEhJ3CmDFjQd4TeP78GTUabt2GWP3XY+VKK9x/mATVoUORkZ6KisoKqPTp1UAQ9nq542TEeWq0mZubg6TEeGS/foMzp0+DXE3U0l4EGRkFdOokjYcP76GtpAQeJzzF2jVroKzco6ELR5yOgJ39ZkydMpXu0tXU5kNWRgYuLm7U4Pvly0xcuXodpG3JERw5jho8mGXLEh11FlsddlEjXJJWRFgIa9euaTQ8vPd6wNXDBwG+nujXn3VLpymy0c4eMTG3cCI8DDz/MWNydnBimyBUVZYj5cl9FBcVQLJtB0h3UkBK0gPasXr0HESN9N5kZ4A8kEF2MOTql4xsFwiLEpVPC9qpvhX+6mUa0lITPiszuUPcS2UYePn4kfM2E2mpSWjBwQGp9p2xwd4Rw4cOole9yA7/4b2r6KUynNoLEElNeYiK8jL06DUY6anx1OClg7QCkuJj0badNETFJXHnViS69ugPEdFWqK2pRPqzROTmvKFMtH1HGbRrTx7p4KTEJeHRbbST6oxWku1p/tmvMpCRloQBg8c1MNea6gokJcShiFwB4+Oj3+kgzbLu/hOFZRDHzdbCRUhi/MNbnz10pNRNBa0l2yMv9zWS4u9S7QzZmZHrpnLy3cDLL0zzJ5briY9jqZX1p0Imhz79RqK8vISGD1IlVsocIH3yftxVtGwpQtuQkIYP8jDuKgQEhaHQpXfD38h378ZE0atrn0orSSkodVWhC/yDuKt0sZORZ51v/1NSku7j7ZuXjf7cUkiEjgFShwf3rqO8rOSzdLLy3SHVQRbxD26Ci5sHXbqzrr6SMj1LfoDSshL07KPKFs7/z35EMHqRnoTsVy/AL9ASiko9UZCfg4yMFCh17QNxibYoK87Ds9RElJQU0bpKtZdGOylZOv6IVFWU4tnTeBQW5tF+0FpSit5i4OLmRWFBLh4/uPnFKnZTHgBxiTaoqizFk4R7KCkpRlupjnj0OAUXL0bTq5NEEh7dojcG2ndgWeBXVJTh8f0b6D94HPJyspGa8hh9+o1AXu4burGRV+qF5KQ48PMLopNMV9om+XnZSH/2BFWVFRASEoWsfDcItGRp0F6+SEFZaQkUu7JuZdTW1uDencvo3XcYuLlZcw+Z79JSH+Pd22zapmLikg3xm9J+P0oQKitK6HxakM+6hthJRgGtJKUb+hfRND1NeQxy9CDdSQ6unr6QEBdpIAjkJsbTJw/pUa64RGsIiYjh1csM9Bs4hhb/9as0PE9PAdFMKSopo6KyksYn7dhB+iM5JrcVEuPv0HmYSPeeAykWMTfOf1HT1Vm2C52jidTVVSM54R7y83PoWxKkn3SWazwug0NCcPrUSfj5+4KLi307qQ9tMGPmLFiYGmDU6EnUmJ6RxgiwTRD+38CRdxJ2u7hCQVERQwcPxqvsV1izdh1cnB3Ytv7+f9eB+T6DAIPAv0fg/IXz9AEdshutranFho0bMHBAXxgaGv/7zH+zHH6UIDS1GqvXrIGEuHADQWhq+l8dv7CoiL4Gum6dLWxWGKPfANYbFU2Rd+/eYdmyZfDz86Hv9jDyOQJ/DEEgO/jrVy9ij3cAPc/k5ubE3JkToaauQzUKjDAIMAj8NxAgGhxiE5PyLJNqq7p3kYHlcku0bsPS7P1NwhCEL7cmeazq5KnT9L0NTS1dcPM0fqaZnT7w8ME9vHj+DFOmzWFeavwKYH8MQSDlJ/e3a6qKUP/+HjgnjzC1ymWEQYBB4L+DADkCIPfX62pYamtOLgFwcrf8K1XE1eXvwM3fNMv8H+kJNZUF9NiOzKl/gpB1gLxqysUjAg6uppMDUkfyIip5zpRZQ77e4n8UQfgTOi5TRgYBBgEGAQYBBoG/AQGGIPwNrcjUgUGAQYBBgEGAQaCZEWAIQjMDymTHIMAgwCDAIMAg8DcgwBCEv6EVmTowCDAIMAgwCDAINDMCDEFoZkCZ7BgEGAQYBBgEGAT+BgQYgvA3tCJTBwYBBgEGAQYBBoFmRoAhCM0MKJMdgwCDAIMAgwCDwN+AAEMQ/oZWZOrAIMAgwCDAIMAg0MwI/DEEgbzPHxCwH/cfPqQQzJk9E6NGjvwMDhLPPyCQvg1uYrSsmeFisvuvIHAy4jSSnyTD2GgZdRj2O0piYhLCjoZTT3Tkvf2mCnGG5LlnL5ZbmKFVK5aLdHbk5q3bOH78BBy3b0No2FHEJyTA0sKCelRsDsnJyYWd/SZsWL8OaWnpCAk7ClPjZejUqVOTso+JiUVaejrU1RY0KR1xm+3q5o62bdtSr5MrrFdi+rSpGD+O5dnw3wqdywL3I+tVNtavW4NNm7dCTlYWGhpqbGf9+vUbbN66DcsMl6B7t25sp/vbIqamPsMer70wMzWhjqN+JykoKMCOnbtgbGRIPWl+SUhfc9qxE/p6etSp1+8mfwxBIE+qxt25gRfP0xB46Chmz5yBxTp6n+FJHKd4erqjorwc1jarPwsn73cLCApCqGXL360tmPL8RgiEhRxGQmIirKxXQlDw9+srZWVlWKyrBy21mZg2Y36TXxGsqanB6rXr0LGdOEzNLNGCg303uWfPnobTjl2IjroIZ2dnXIiMwuGgAxATE2/Ugk+fpqJt2zbUa2ZTJDs7GxMnT8XVS5GIiY2B7YbNCPTzQZeuTVsIj4Ufxf0HD2Bvv6kpn6eO3/QNlqBHdyWsWGGDnr37YdVKK2hpajYpn69FJgSB+D548eIFjhw+DDW1BVBWVsbatevYzp84MnJ324Xkpy+pq23i9Oq/KMS1vLPzTqxcuRKyciwnT7+LEIddHu67kPzsJZx3OH1G4l9mZYGLkxNLDI2ww3ErdVYm07nzb+Ww7Y8hCORJTOJJjnhmMzZdjuGqg79IEMgzrPX0CU2A4wvevYi73UVaWhg16nPtw+/SsZhy/FoECPkkHvc+dbVcV1sN1NeiBSfvbzVgCTKkj7u6u+PWzRvw2bsHQj/gaObsuXNwdXWD3749aCfVtJ3X7ZjbcHDYjuPHjmHfPm8cP3EaIUeCKPH+VIaPHIUN69djzOhRTWpQQuJnzZmL61cvI+b2TaywXoNDBwMhI8Pyzsiu/ChBILs6E1NTDBygAl1dAwxVHY7lFuaYO3cuu5/+ZjzS34iGhHiNdXf3hJHRMigpdYG5uXmT8q+uLMWixXrQ11+CMWNGNyntnxaZ9HmCGyfnR4+trLFQC+JxljyXTJ6K/t3kVdZzaC3Wh5mpGWZMn9ZQPFKfoEOBiL37ADdvxUKlT09Id2iLVattP6vj/7NObBMEsuM4e+48Dh48hIKCfEhKtoGBvh6GDWO5qCXeFr32+iAi4hRatZLApEmTERwSBruNtujfrx/OX7hA1ZH7vPfS+ubm5kJHzwBWlhYYPnw4dfF7+vQZHDwYhJLSYoiJS8DMxBgDBw5ohE9FRTmMjc0wTHVQI4JAOs/mLVsRHR2N4pJS9OndG/t8WN8iUlhYCCNjY9x/8BgiIkLg5eGhfz939gz4+PiwafNmVFRUYctm+4Y0r169wqQp0+Hhthuqqqr/z3b6I75N2uDx48dwdfdARkYGJCQkoLZgAaZMngReXl6Wa+O0NOze7YLU1Kfg4xfA5EmToblQHQICAti12wWCLVvi8qVLdNc+ffo07N27F4MHD4aNtRUynj+H1iIdqk68fDkaREXerXsPrFm1EmJiLG9sqalp2OWyG2nPnoGfnx/Tp02nqlvijpxIYOB+3IqJoUcHu3btxrNnz9C7d29sd9hG+8GhoCD4+OyjR1TS0p2wz9sLwsIfVeekn5OjrqjoKJBdvIysLEyNjaGoqEDHAflb4P6DOHvuLKqrKiEnpwALczPIycnS8K3bHJCR8Rx9+6og6uJFlFdUQF9fH1OnTGZ7YsjLy6Muzheqz8aCBZpNJjBVVVXQ018KBTlp2K7f0OSJNSkpCdsdHRDgH4jg4CAcPhKOsNAj4OJqrIUYP2EC1qxeg5EjRzT0X9JmKSlPv9ifyVgn/SAn5x10dfVw8uRJPH70AMtMLBAafAjt2jXNGdOPEgQy11lbW2PUyGGYPmM2pk2fjqVLlmDq1KkgYdeuXf9i+du0aUP7wbfCu3VjVd/BUQAAIABJREFUuZN2dHJCeVkxNm7chHW2q9G5kzz09T/XiH5v4O/18sSRkHBcjDzPdv8heSYlPaHjLeN5BgT4+TFt2jQs0tJs2OW+fPkSu3a74klSInWGp6o6jKrKiTZo3z5fPHj4CGXUrTkHdHS0Kdls1ao1nJ13gJ+PD9NmzILtujU4dCgIT5+mQF5BERts19E5gQjRnjjvcsHT1Ke034wYMQLGywzpPEHk/PkLsN+8FYcOBFA1fUJiPCorqnDlcjQtYyLV7tmguLgYefmFOBJ0EMrKPRrgIuM0JDQMEadPo7ioiI5lExMjKPdgxSkvJ+GhOH7iBMrLSiHdqTPMzUwbjmtORZxGENHuzJ+PkNAQFBeXYPbs2dBcqPFZP/9WG5FN7datm/As/SX2eLg31I+kIb4krlyJxj6/g+jaRQnWKyzAKyACgH2308Qj5WIdfUhLd8AeT5a78+YUtgnCvXv3sc1hK1Zbm0KiVSs8ffoUzi4+2LXLGUqKirh67TocHLZhi90qiIiI4vyFSOz1PQxfbw/07TcA58+fpQ3mu8+Xlj83NweLdfWxYrkpRo4cg/yCfCxfvhxGSzQh2aYd7QB7vA/h1Mnjjer7NYJABl3O2ywQ/+Pue3xpp/Hdt68hLTl6eJ2Vjikz1bHaxhyDBvSlYdKdu9ABQHyd6+gvw9GjYWgpKEgHMVlMSCc5djQYgi1JwzHyLQQSEhKhZ7AUy0110LdvXxCCZWljh7WrV2HWrJl4+TILWto6mDtrIqZNnYy8vFwst14PDXUN6OnqwM3NDZevXMEWuzVYYmyFcWNGQEtjLpaZrUTQwQMoKMiDppYORo4YCjOTpaiuroTNqo3o3acfbKxX0Ml79erV6NC+NWbNnAYyeMxX2GK97TpMnDCBFv1+XAwsVqxG2zaSMDNeDMk2bcHDw0v92HNwcKKw4B0K8t4h+tIVnL1whZJMYeGPbX8kOBgnjh+D3Xob8PHx49bt20jPyIal5Qpw8/BQkpqY8Ajr1qyAgIAgwo4ew70HT7DH0x2ioqLYvn0bzpyNxIZ1K9CjR3fExsbCxcMfBwL96Zk3O0IWaF39JTh5LBitJaXYSdIoDpn8yaRit2Elhqo2bXdPMnr79jWuXIrEvAVaePwoDjExt6Gnb/QZUSELK1lohw/76Io37u5tREae+2KZlywxhrhEa5SWliAs+CC0dQ3x7u1rHNjvj6WGJhBs2bSjih8lCITonjgeRttHQbE7Avz2YOBgVXTtqgwy/+zetf2L5e/erTvGTZj6zfBpM+bRtJeiL6CurgZjxk5G5IVTEBGRwICBQ5rcljdvXoP+EhOcOhEOOTk5ttKT+s2ZtwBqcyagTx8Vurnb5uSKceMmQldnMc3DcJkxOnVshfnz5rzXWO2FYEtRbNu6Ff7+Pjh+4gzcdzvAfosjuLl5sER/EXSXmGPvHg/0798fM2fOQpu2rbFmpSUlDG4eXigoKoebqwvN39vbG6+zn2Oh+gLU1tViyzZnzJuvTokyHaf342C4zBR9+/bBzKmjqfaIENtuyv0poa2sKMOb7Bd002C1yg77vD3Rs2fvhvpfu34dW7ZsgbOTHYSFRPDo0WNEX74Bh+1OdIEPCwuHj483HLauRSuJ1oiKvkyPrg8d2A8pqXY4feYM7Ow2wdhQBxMnjkNKSgpWrd0CV5dddG5rityLu4VVa+yx/x9jnGyKraxXwMx4KXz9A6GruxSysjJNyRrv3r2Fji4hCNLw9HBvUlp2IrNNEDba26O0uBCz57A6eFVlJXa7uGLkyOEwNzOHvb09eLhbUBUJkZeZz7FQazGcdziib7/+3yUI5Lwm520GCorr6O4tPz8Pq1evpTv8T88wv0YQPq2s3aZNePH8eSOC8CG8j0p/OO90xKhRjSfGmppqrFhhCXkFJZgYG4OoGZcZm2LKhOGYPXchO1j+5+MQw6uQ4COIOHUcHJw89Ego4eEtiLeWQjupzjh37hxWrl6Ha5fPQUS0NfWktmePC11AXXY7w8fHB3m5b7HOdgMmTpqGxdoa0NLSxuQpkxHgH4Di4kLq2tV2rRUmT5lOmfb+wH24eOkGvDw9qMagtOg13rwrQGUVUF1dBcsVNpg+bXKD+jY7+yWdxD1dtmH4yAnAV9SSJ0+G4+ChkM8Igq+vN86ei8LmzfZ0QRcS5EN9XSU4uYVAdvYaCxdhkeZ8+pNqFErzMWrsVAQd3E8ncEIQHscnwNvLCwKCLVFbU4Whw0fj8KEDkJFhb3K4HRODNWvWIPrixSbbHpBOSggG0UCcP3MCYuJNN4wi7VpfV03VusTDKvn/Sx715s2bB3MLC6gOHdowNsiiWE+Ob74gnORIsAUHXZAIphycfLQP1dWy/v3pERA7g+1HCQLpl8TTH7HLaNGCE3U1Fax/UzsN4kmy4oufb8HBCQ5O7u+EszRZRC1O+i+JT7zT1rdoAQ6OphuaZr7IwITJM+Dl6Yrhwz9qar6FDyG1O3fuQGjwkQbbkxfpiaitq4OMXA+UlpZi3PiJOHfmOIRFWDv+s2cjYLPKFjeuXcHRo8GIi3uI3bt3YaOdHTq2b4OFmtoYNWYitm3ZiLFjx2PmrFlYoqeJyVPn0PRkg2hlswa3b16HoKAgykty8frtO5RX1qOmugaBgf707x/sRVKfJmORjgGmTRmPlStXU/L+JUlNTYHmIl14e7k3IgjRl6KxYYMdvPZ4UgNBYSFBoLYMXLyidMwsMzLGoAE9ob14CW2Ht29eYc48DViYm2LOnDmUIKzfsBExNy6Bi0cQ+Xm5UF+oBX29xZg7dz473a8hTk1VBR3jRw4f+scYr0dF6Tvw8kuguqoIXNyCdN5sipB1s7oih7YjNx+rrZpT2CYIevp6IOeyPXsoNfp+jx49MW7CNBgZG6Gvigr09PRp+Nu3b6C9WBeb7TeyRRDIbs/MwhKtxIWgpNAJVdXVOBJyGmfPRDSopUi+P4sgkEnp7JmT2Lp9N04cP0qNHE1MTajqipev8dlqczbA75wXwYRYyZOzsw8q+m+V12nHDmSkP4OHx56GaOSMkAxAwvoPHwmmqsibN641TPbnz5+Gr98B+HjvRUBAAKqrK7B8uRXGT5yCpQaLMX++GqZOmwY/X98GguC62wn9BwxiTVxnTsHX/wD8/XypinX9RjtkPs/AwP7K9PbBwcMnMHvWTFhaWtL4ZEc6a84ChB8NocdkX5OvEQSiYfDeuweXr92hRyRKSkrQWbwICvLylJQuWqyLjetXY+So9xbv9fUYNWYM3Fzd6I6UEITUZ8/h6eHWoM4lZ9wH9gdAVpa9M3aift3r7YXwo+E/1H0ePnoEPb0liL19Axz/ONP9oQy/kkhLSxNGRsb0iOiDlJeXo6SEqKY/F3Fx8Sapyb9X1h8mCN/IuK6+Hrk5OV+MQY6oyBHZt8KbarD5vTqShYssPjudHDBp0qTvRafhAQF+uHU7Bnu9Ph7BEiJGhIzTpMQEWFhageBHjnyI3Lp1E4ZGpjgeHkKP9+ITkuG43YEu6AoKMpg9ez7t85s3bcD48RMoQdi2xR5duynT9NevX4ORiQXOnTkJKan28NzjhTNnzmDY0L4QEW6JazfuomPHjnBwcKTxnz17Ci1tPWywXYUJ4yd9lQh/jSAUF+XjwH5fXIi6AbTghLy8HPR0dNC1axea/+w5c7DcwhTDhrFs0ci6MnnKDMyfNxuGhoaUIOzevRuRF87T+auwsABqGlpYvEgDCxaos4Xzx0j1GDZ8JPx890FB4Z+GlPXvjxTIT9oCTcz750ZnmyBYLDdD2zZtYWPFmmiJEFUVBxc3Zb6WlhaQk1eAsZExDcvOfgXNRYvhuG3Le4JwDsEhIfDz9aPhRDWivVgPNtYW9IghcP9+RF44hwBfT3Bw8ePtuxzMmauOkyfCISHx8QrWzyIIpEzlZUWYMm02bKytEXsnFkKCvFhuafNzW+A3yf3t23coKSn+rDRRF88h89U7rF5pQ3fo3xJXN1fcuXMHB/YfaIhWVFREJ30y0YQfO4aNdptx725Mw+IYFhqMEycj4OnpCT8/P9TUVsHC3JISBMMlOpg3b8FnBGGH4xZqOEYkNPQIjoafxD4fb3q2vcRwGbzct0NFZQBqausxZfocTJowrhFBIAOdaDo+nId+qU5fIwi039eUo7qiAPcfPsb+Q2F4864Qvj7eKCsrhuYiHViYmWD69BkNY4RODn4+UFJUogThWdoLeHq4gouLtWNsKkG4euUKtm13xNkzp3+o98QnxNMjBmIESBa1nyWWlubQ1NSGiopKwyeOHz8ON/cvn5UG+PuiY8emGUx+q+w/gyAQcjNj5qwvfpYYY5qZmX0znGh+mlPevHmNUWMmwN1lJ0aPYe8aJtEAnIo4hwB//4ailJWVU42biIgIMl+kQ1NbD2ciTtFdPZErVy7D1HwFzp89iXPnziA+IaWBICgqyGLW7LmfEYR169aiX99+NH10dBQsllsj+uI5tGotCdVhI7HXfSu6dO9DtTR29ltQWVn+GUFw2r4FQ4d+PKL6J3ZfIwh0nNZWoKq8gB4PHA45icjoGzh96jiIrcjChWShX9AwTouKi6i9iY62JrS1F1OC4OLqigvnWMdhxIZNTUPzhwgC2WgNGToMBw8Esn0MxG4fIXmTo1Xyk9hmNFXL9r3vsE0QTh4PhYeXP8LDwyAoIAAy8bu6eVDDFmnpjgjw96FnPAH+fvTKDTHUMTEzh5+PFyUIhIFuddiOUydO0DIlPXmCRYt04OS4mRKEvXs9kZj4BC4urjT88OEj2OrgiKjIs412epQgmJhh6OAB0NUz+GL9vnXEMHDQYNjb2WHChPGfpSUgR5wKxYlTUXgcH4897rug0rexkeT3AP1Tw5OTHuDN66zPip/89Blu3Y6Ds/MuiIo2vsb2z8hk4li33h7hR0Mh3bEjNdgjbTVxwjjMnz8fDx7EQUfPEHv3eFLjU3KMo6dvADnZTvSKl4eHJ1sEQV19Pj0GIu1F7FZIf9vh5IT7D+7TXU546BF06iyDR48fY+lSI8yZPQNWVla0uESD8KMEgXzvSHAI2reXoufqRLWe/SoTi3SW4sD+QIiLi9E+2UlaGps22VNiRM5CN23ahP2BAWjbtl2zEIQHDx5gmbEJrl6+9EPvHzxLS6UEwd/XB/LyP+9qWFbmM4hLSIJf4KPtQElxAYoKvrwDl2wrDS7upqlYfzVBqKurpbZMXxJ+gZYQEWv9zXAxCfbsTNidRxITEjB3gQYO7fdFHxXWYvw9yX2XjXlqWvSK5Ye79+QuPjcXJywsLKhtxNRp07Fm9VqoqrKOhzw89yAy8jzCQkNx4EAAWwShZ09l2G20o4uWt88+hIaG0CNjTk4uDFEdRu3LJMQl6JHG3HkLoNxDCY6OO+n3PmgQdmzfQhfXr8nXCML1Gzfp/DJq5HDU19UhIyMVC7X04em+G7379IWTkwOeJD+jmksyf5DrsAZLlsHfxx3Kvfo2K0F4/fo15i1Qo3ZUREvSnEKw2+64A5xcnFhpbdXshJ9tglCQnwNrm5UoLC6jFv0PHzygNgfubm4gZ4dZL59j6TITSEq2pWqUxMRHyMrKhtN2B0oQXmW9hMFSQwwbNgIyMp1x6VIUUlJSYbt2JUaNHoeU5HgYmVhCQ2Mh3cm+e5OF1Gfp6NVLBfoGemj13vqVNLqtrS0eJyRi9KhR1Np9kdZCSlgOHT5Csb954yYKiwqpyo2oxufOntXwUIWNjSWSktOh0qcP7ZiE9U+aNLGhzcpKi6kBDz8/H726xcX983ZYzdlRfkZeZEEkA0lfRxNirTp8l52WlRZiueUKvMspxODBg+iO/nV2Frw8d6N9Rzl67rppkx0exT/FuLFj8TQ1FQkJj+Hu4gR5xe6UHLKjQSD30+XklWib37hxHXYbVmPEyHH02pjBUiNq0DRwwAA8eZKAoqJCvHqdA9t1a9Gta9dvEoS3794hLOwovVmQ+jQFCYlPMGniBPDw8mL+3Dl0cB8/FgK/gCBqdc3Ly4ebN29AXk4aa9eup7/HP4yBzRp7DBw4iN5+OH/+PGbPnAx9A0NwcHA1C0HIzHxBb/Bs27IFA/5xy4edfkCMPXV0DTBzxjS6W/pZ0m/AIDg6bMPoJl5zbK7y/AwNQnOVrbnyCQ8Ph92mLbh25SKEm3DddYfTFpw+dxljRo+mtjNpaU/h4+WC1m1Yj1GFBB/AHu9ATJ0yFZWVlbhx4xqcHTdCqVs/aqTIjgahk3R7asPQsmVLOg7WrbbA6LFTaf6WlmYoK6+h4ygq6iIU5TvjzPlo7HB0pDd80tJS6RHD1wgCMXjPfPkSBfn5OBVxhmoJW0lKoouSIiZNnIg7d25jw8bNNH9RUTE8fvwIVZWl8PTwAA+vAFKfJsJyxSrIySvS9erSpWgM7N8TlitW0nHanBqEoKAgHDt+nGo5iQF/cwq5LUbsidTmz4ShoXGTbyR9ryxsEwSyWOTnZeNJwiN6DVFYRBTdu/eGkAjLyIkw64xniUh7lgIeXj56t9rccjU22W2gBIGEp6XG43nGM6paVVDshoz0VMjKd0XbdtKoralGUkIcXr3KhIREayj37IfU1CfIznoBlQHDISbGOmYg5Xj9KgOPH92lVyPJpDx0+ASUl5fh1vXIz+pLLFb7DxwJ0ffpCwve4vGDOygtK6XkokvXXmgl+fH6VGVlBbQX68DMWB9DVMnd4t/rTOh7Ddrc4URN14KDvbcASNtUlBUg/vF95OXmUKvzbt17QkyiXUPHJXe34x/HUUt4fnKG36U7JNt2ouEpTx7Re82KXXrhSnQE5OS7omMnBVy7fBr9B42i1xqJkeL2rbbg5KhDWWkJ2nfoiC7dVFjGXvV1yHrxFCkpSXT33q17b0pqHtyPhZxCN8jIdkFFeRlu34zEYNUJtO98KkWF+bhz+xKqqokBWWMZMGgUJFq1oXY4RNtCiE9NbQ3tq1269QK/gAj9FjEaynzxFM+ePkFNbS29mkfCWUSzBZ4k3ENxSRH69h/e8LhN1IVwDBwyFi1bsvcSYVUVsdOwhJCwKLZs3tTkc3tyNLhz53Y8TngKL0/3hnPm5u47F86GolefwWjTtkNzZ81Wfv8FgmBtswrCLbmxztb+uwT+U9DKSwuRlHCf3ibj5uGGolJ3tGsv15BHdVU5kpMe0n5Odtiy8or0xhcxFkx/lojCwnz06j0YCfF3ISQkQjcAly4eh3KvAXQ+JzYIDlvsUFyUg7y8HLRtK4UePQeAk4ulIXr3OhPx8feIvSC6dO0JXj4B3LtzA22lpNGtR1+UlhQh5lYU7T+tWn/+CiEJy8t991k/IOsOSUO0IOmpCcjMfE41CeQRr67de6GlENGCtqBzRXZWOp6mJFL7gzZt2qFbDxXw8LKOVMj7BU+TH2LEaGIMDXpl+daNSHSWVYJ0J/a1bsTmRs9gCXr16Eo32F8ztmSrQ38h0u3bMVi7bh2Ohh6CqJjkj2bz1XRsE4SmfvmDjcEmu/WUIPzuQha3vLx83Lh5kxqw+fv5Nel1ud+9fn9D+YjakRAE8jqZCpvq1L+h3l+qQ/yjO1hhswEuLrvQRamx4TA7dc7PzYa6lh7Wr7PFkCEfjQjZSfunxPnbCUJ6ejp92yU87BD4BVjvgPwuQgjCDkcHeivsvyzkqJ3c9Di03xttpdi7pdQUvMixLC9PPfQNWLZ/zS0MQXiPKGF6hkbGqCwvxZpVlujZe2BzY83k9y8RYAjCRwCJpiXQ3xu378TTp3ab6ouBEOKLFyKw1/cgvDw96eNmf5v8zQSB+GLQWrQYuovVoK6x6LfTdDIEASgoKMRSQ0Poai/A+InTm139T8brgf37MHr0OLTv0DQ/JeyO9Z9GED7cz+TiFWvy3U52C9+c8YjKqbr8LVpwcIOU+Xd8trM56/sn5kXu3leX54CLT5zewf+vS21NBWqrCsHDL/lD7yGQ4xJyh5qHv/VfqS2rrS6j7ymQ8fy3CfHFUF32Flx8EuDk+v3spKpI2ejc3/S3Hf6WtqJrYPlbcPO3ouvKz5DamrL3b4T8nGemfxpB+BlgMHkyCDAIMAgwCDAIMAj8GgQYgvBrcGa+wiDAIMAgwCDAIPBHIcAQhD+quZjCMggwCDAIMAgwCPwaBBiC8GtwZr7CIMAgwCDAIMAg8EchwBCEP6q5mMIyCDAIMAgwCDAI/BoEGILwa3BmvsIgwCDAIMAgwCDwRyHAEIQ/qrmYwjIIMAgwCDAIMAj8GgQYgvBrcGa+wiDAIMAgwCDAIPBHIcAQhD+quZjCMggwCDAIMAgwCPwaBP5zBIH4zrayXkmdNfns9fo1KDNf+e0QIA5czC1WQFV1MDTU1ZtcPuLwyMXVHdmvsuDouL1J6WfMnIOxY0ZjwYJ5WKipjbFjR2OljTXbecyeMx+DBw2Enp4O9erYu3dv2NttYDs9iVhVVYWx4ych0H8fZGSa9kb80fBjcNrhjNs3r2HLNgdcuXwVhw4GonVrluO2fysvX77EhElTcf5cBO7de4BNm7fCb583lJV7NCnr48dP4P6Dh7DbuL5J6Yj3QoKrgrw8Vq1eiX79B8FyuTn09XTZyuffpv/0IzNmzcGJY0fZ+u6nkTw8vaiL5pvXr8DdwxMJiUk4fOhAk/P5WoILFyKxwnolDgT6Iy8vF+s32uP82dMQFGQ5O2JHvH18EBt7F+5uLs3uppid7//sOO9ycrBo0WJs3boZfXr3/uxz5LlzMg/Nna8GN5fdkJbu2CSHWz+7/CT//xxBIBN73J1rqKmuxmDVsb8C4//cN44Eh2DWzBng5f09n0MmA9PN3QOPHt6Dq8suCAiKNLmNoqIvwdXVBXvcd0GqQ9MW2IWaCzFh/FhMmzYD6hpamD5tMoyM2He2snixNnWnraGuAW0dfQwZPABWVuwTjAaCMG4CAvx9ISsr26T6X7wYCUennbhw/hzF4Oy5SBw5fLDZXNlmZ7/G5KnTcPPaJdy6dQtr1m3E/kBfKCp2aVI5f9QXAyFPS5caolevbjAzs0Sfvv2x0toKGhrsEcl/m/7TSk6fMQMnT5xoUr1JZH//ADjt3IUH92Kxb99e3I17AD9fvybn87UEV65chqn5ChwNOUS9+1rbrMXJE8eb5Bm0procFsst0b1HbywzXNrkshEidijoCLQ0NZrsi6TJH/uBBOT5/oiT4fANOAx/f1+IiTZ29RwcGgZRYWG4unnAaoU5EpKSYbzM8LciCU0iCKTjFxQWoqa6hjaIqKhIo4YhDVZIwmtIOE9DOJmQ37x5Az4+fuqWWVRMDJUVFaioqIC4uDh4eHhomtzcPIiJiSI/Px+1dXUQFhJGy5YfGenH/Gs/+z75RkFBAQVXQFAQ+Xl5lJ2RRYrsbKi76vx8EKdMRMjfW7ViuZD+IIQ8kPKTcpF8iB9z8v8HIXkUFRejrLQM9ahHS0FBCAuzXPSSsJycXPp7WVkp/Q75Bqkfyeu/IAS33Lw8GBoawtnZGQL8/LTaUlJSDRjQdigoQEV5OXV9Kiws1GhSyc3Npe6LCe7ET31VVTXdXUhIiFPsuTi5UFJSAm5uLpqOtCnZtQgJCbGNM/GCR3buWzevxYiR49lO96ENyffVFy7CxPEjYGRk2mS/HUZGyzB58kSMHj0W8xdoQG3BHGhqLqL91z8gEOPGjoGMjCwEBPi/WDYLczPqgXH6jJnUF/y40SOgb9C0CZZqEH6QIMTdi4PDNgeEhoYiIMAPR8NPIjT4MPj4+RG4/wBERUUxTHUo/UlcBf9zjJFx9iUh7U7Gytu3bzFvgRquXIpCbOxtWFiuxJFD+yHdqXOThtGPEgSWdskCgwf1h5bWYowcNRpmZqaYPWvWZ98nLueLiopx6/YtpKdlwNh4GZ132E3/vQr9KEEIDg6mBOFu7C2EBAfh2vXbcHNz++xzZDySuSo9IwO+vv6wXbsGIqIi+F4b3YmNgf5SY5w7c5zW19jEHCHBweB/P+a/V68P4VevRsPEzBoRJ4/THTS7UlxcguhL0QgODsHmTfZ0riXz/qeLMKkXaZva2hoaTvoj6WNESP/Pyc2FZOvWKC0tpf8T9+xt27Sh61FOTg5NU1JSChERYdTU1NI4ZH0i8xG7UlycD61FuhgzZixMjI0azYPXrkQiLPwkrl6/DVmZTpg7azLmq2mDi4uL3exB+h8pK0kjIdH8DtfYJghkUnTc4YzkJ4mQatsKb3MK0LVrd6xeZUNBLyoqwlYHR2S/eoGO7dvieeZrKCv3hI21FV08Bw8dhhHDVVFVWQI+ATFwcdQjMTEJw0eMhLmZKV5lZ0NbWwcjR46g/s2zsrLx+m0Bdu92hqiICO3E2xy243lGOtpLtab5Dx8+AkuXGDQs0Fu3bsOztDR0794DiQmPwMfHDUVFJZibW9IOfzjoAB4+vI/HCcmQkuoA330+jRb/k6cicPjIEcjLdKAE5V1OEew2bkD79lK0Dtev38AuF1fISLcFJxcXsl7lwNTUBIMGDkBVVSWdpPv06YOykkJwcdUj7n4iFmktwtSpU9hu8D85YkpyEvz99+HchasYNWJgQ0ffum0H/TfBMPDAQURdjIR0+zbILyxGSWklbG3XUnUukY1261FQQAaiGJ5nPIMAPw+Ue/XBEoOlcHFxwbP0DIi05MP9h4kYP34ssrOeI7+wHM47d0BQUIAt+Ijq2d3TA2dOHQcPL3tpPs34wYMHWGJojONHD0GqfdMWLZLPqlU2mD5tOgYMHIi589Sgu1gT02fMon3ocvQZnDodieLSKqgOHYKZM6Z/RmQ3bFiHoUOHYcyYMZQgzJg6CfPmq7FV9w+R/g1BSE5Oxs6dTvD23oejR0NwKCgUYSFHwMHJiaSE+zhx4jgexj+DkpIiZs2aiV49ezaUjbi/DTsa/sWyrl2zCpKSknTCIyQzLCwMiYnxWLrMFGEhh9GmTdsm1fFHCQJZUGyQmu79AAAgAElEQVRWrsK4MSMwcdI0zJk7B/p6epg0aXKj+SIp6QmOHT+B/7F3FWBVJl345XJJCRW7213btbtbMTEIKWlprFUQxcRE6VJEUkRERVFRQkXUf127GwMLlI57+Z+Zu6JYfBdhBXfmefbZK9/EmXfmm++dc87M+fvS3+jasQ3ta8fOPekHqazyXDtSXoJw4EA03D08cTgmBifiYhF77ATWryttCsvMzETkvijExZ2EkoI0Ro8chLETZuDy5SsI3B38VRHN55uiTZs2uHrlErS05yEx4Tglgbq687BrV4BYH0/SQHbWO4wZr0rNNzra2lxhQUL8Cbi6uyMt7TV69ehMv0F9evfBdDWRlod8T4hpqliQD5XaSnic+oo+JwSOkNB79+5CU0sX1lYWOBQTA0UFGboxdHBwRLNmLaCppSWab8UFkOTLQ6GGLK5du4aevfrA1sb6C+L7LcHJmufr444TCWfh4+VResMpLIK/vz+yMt/i7oOnWO20AkrKJLAY9w3lq1evqDmsabOm8HR344wf14ycCUJs7FF4eLhh9043yMor4cXzVFjaLKOqzX79+uHAwUPw8fFCeJAPpGQUkPrkAXTmWWLt2jXo26cPunfviXVrHejOaLaGHmL2B2NfdAz27Y/FkZgDVMMwdvxErF/1J0aNmYD8vGyYW9qhc+dusLKypLsr5/VrYL/UBlLSNfA09SE0dc2RcPJEyWAFBOzApi2u0JurBjNTA0hI8AGeJPhSRAtQDGFRPoqFRXBauwFPnjyFn69vCU4FhYUwNZ0PtamjMGLkGKISwIEDB1C7bkMMGTIc+fkF0DcwRP/enWFISEkx4O7lhbA9h3D86GFISvJgYGhENSSBOz3B58tj2/ZtiD54lH4QeTzug8518KpaPoKtsCgPQ0dOwKHoPaghL/r4SkoTLZAEbt66RVXqvh7O6NylO4SCAlhYL0aDhs3gYL+UkojwsCCs37ANUyePwUI7c/B4MpDgSUJSSh4uLttw7lwKPNy2QHWaBsaPGwkbC1OMm6SG4KDdnG3gjitWQkpSgKXLVpQLwsjIfQgO3o2IPXsACfGjqF25dA5NmrVCrVoqSEqIRdu2HdCgUTORLMXFKCp4hxvXr8Ddezeu3biDKVMmQ1NDne52SLp+9X+oW68R6tZrgLNnTqJZs5Zimzl+hCBkvs/A3TtX0b3HQDx7+hAP7t/GgEGjS7AkUSbfvX2KXbv3IPrQcbRq3QZmpsbUDvvk0V3cvnXlq7j3GzAS8jUUkZ+fh7//dxp9+o9AVuY7JJ85iSFDx0JahvvOjTRQXoJAFvVLF1PQuEkzivPZ08fRolV7NGjYlG40bt26Azd3N1y+fBkTxw2HkYEmFJQaQlJKpDH7XnlxJ1x5CQLZqN2/ex0DBo/F29cvkJr6qCSE/bt377E7KAhBQcHo2KEdLM208dvvncGXISpwCTx/9hDXr178qqh/9ByAWrXr4f37dJxOPI4x46fTtS351HH07je8ZIcuTj8XL7JDsYQ01qx24ly+WFCAwMBdOJlwGq4uGygxkZCUKony6unljWtXL2Lj+pWQkJShG0ZD0wXw9vJEt65dkZ7+BlOmqlEN5rbNjmjaVGQmlJRSoJFNCe7ammpo374D5hmbY+vGVXj+4gX27jsCLy931JDn7mvx8MFtaOuaUD+dJk2alEBDtOaOjstgZ2uLsLBgjBg1AW1aizZKXBPx/7BbsIBqaVc5reJajHM+zgTBytoabVu3gJmZBQ0tKxQU4e2b56ihUBNy8oqwtLREmzYtYG5uRSdZXm4OjExM8fvvv2HxosXo228A3FxdULu2CgwMDXHsaCyCg4Pgv2M3jhw+QNXzk6dOQ1J8HGRk5elL5uTkhOs3byI0OBhCoQApZ08jPjEZZIITtpeQmIiTcceo6oikPXvCsXHTVuz098TvHT7uWj5HY4WTEx4/elSKIBDW7+i4HLdu38O0adPQp3dvNGvaEBI8Hng8KarWHjN2PGJjoqCgVJsu5OfOJcPI1ArBuwPQunUrShDGjxmOWXO0aJOhoSHYvNUNSQknqqw9nvNMESPjoMFDceQrDkvRBw5g6TIHjBg+jO42SXr86AHk5RXg7uZK2XXskUNYs24jQoN2omHj0jHOiQYhKzMDixYvxZhxE6CvqwV1dU1MmDgRO/z96e6TSzI0MsKIYYMxa7YGl+xf5Nm2bRseP36AjRu3lKs8CQNLiAXZyRBSJfpdmmjQULEF2bh69TI2bHZFly5dsWTxEtEHiJaXoGW+Vb4swX6EIJB3E8VCStyInVX0u7RalOQRCvLxKu0pAgKDcCDmBE4lxtP8xcWCr4rHI4SeYELrF9A6ye/i4iJK9sU11ZWXIJB3m/brKxiTXffAwcMwVXU0jAz0UL9BE9FH6VMz4nfKlzUunz8vL0H4dFxEv4vpeJG0cuUKSm6WLrZCh45dIC1DPoqiZ3R+fWeMJCSIGYhXMi5kbRTNSTKPRSYicdMOf28kp/wFN9ftYvkSBO7agRPxp+ja8blpQ2/ePGRlZqJJUxHxLiwowKnTZ2BjZQEtLS1qBp4waQoGDeiD5Q7LIckvHY558pQpWLPKiZobdPUNsSc8CLdu3YSHlz98vT2hqCgyLXNJ5FvZf9AQBAXuQuvWrT8pQjYDOZRYks0SwfLTceBSNxkrYVEuHRMeX0RQKzJxJgiaWpoYO3YcNDW+vqiS52NGj4aW1lwqH2FHZvMtULOmIlVt9R8wCO5u21CzZi2YmJji8OEYugvz8w/E4ZgDILbn2erqSDh5sqR/zs4bEJ+QhJhD0bhz5y60dXQxW20S+vXpjty8PPzpsAH7oyKhoiLyJYiI2INtrh6I2huO2v/87WtgfY0gkIUo6/1L7AwIQOyxJLx5k46OHTvCef1a6kdAFoZRo8ci+cypkpeAqD/VNXXg5+OJzp07U4IwZ7Yaxo4VmRSIHXDTFhckxsdR/4vqlggmGzZshI6ODurWrcP55f8WQQgLD8eatc5w37qiVF0KCsro0Lk3+FJSOHr0MLx9/LHD3++Ll5AQhCJBPqwsbTF67AQYG+pCTW0WJk6aBH8/P84EQVNTE5qa6hg79qPKWJyxWb12NQRFhXCwdxSnGOe8Irv2eyQkJsHb2wfSUpKwszXHwEEjONdRVsYfIQhl1U3mTU5ODh48eEg96G/evEF32nYLlyHt5UtKzr+WyDskjn23LDnKTRC+UzFxbt6+fSPVjLRs0QqmJsb47bffqHmrPB/HsvpQXoLwvXovpCRi/aZtePU6gzoHEp8XJWVl8P8h7WQtvn///leraP/bb1BSVCxLbLGe79u3B1H7D8HH25t+kLmm7xEEtZlqGDywF3p0K33ypWmLdmjarA1yc7IxftIUzNWcDV1d/S+anDptGvWzIS40uvoGiIoUmbvc3L3h6+MlFkEglRNTuq+PD9q1a8u1e1UiH2eCsHChLRo0aAwbG5sSAkCOztRRqY3GjRuDPFepUw+LFi6iz8kCYWhsil49usLS0poTQZg0eSrdZZBFQlhcDHv75UhNfYyAnTvh7uGOa1cuY/u2rXRn8ez5C0yeOgOxhw+WIgjb3TwRHbX3ux7VXyMIRGa6WxEUIC8vC08eP4Knzw5kZuXD18ebOqgQDcK+yIgSVfapU0mwsLJFeEggdaCqzgThSOxR6hPyeXr06D5Sn76A6zYXNGzIzQb8LYJw5MhhLFj0J44ePogGDerTpvLy8ql2hTBnssASguDnvwt+vt5QUCi9EIkIQgGsLG1+iCCYmBpj0ICBUNfQLNdL6Oq2Hffu3sOWLVvLVf5bhYj6+uq1a9i3bz/9qHb8rSXVdHTp+gfkFWp+sUv/kcYriyAQTeCBgwdxMj4BivJSGDViMHr37o36DZtCki+LcymnERNz4Kuizze3QZ063LRAXPpeGQThg6nyZdoz/O9/53EsLhFpr99j2NChmD5tKnWmrchUGQSB7PZzsjNw9eolxMcn4fxf19GhQ0fqQ9GtaxdcvvwX9kXu+Wo3dHQM0KLlp7vgH++tj48n/vfXJWzftq3CNAimZiZo17YtLC0sqIDke1JYUAgZYoqQ4JUQBH3dudDUFGl8P00VSRAI4R8wcDCCgwLFPjFUFrofnPNJ/4iv3gcnzLLKcX3OmSAkxh/D6vWb4efjA2VlZTx+/ASW1jZYu9oRvXr1RfzJWKxetwXBuwOpd/ndu3dhZW0LH08XtGnXkRNBGD9RFebzzaA2YzqIl6qFpTUmjSeOWAYICgpAfPxpuGxzgaCoCNvd3LBnz15ERoShefMW1A+BaBBc3bywPyriC4JABunDCYb1zsQH4TFct2+nHyVCSD7cj0AcpYhHvFBYDE8vT9y8cY169xYWFlBP5nr1GsLOzpbiu3nLVly+dBFhoSEQFqNaE4TC/Ayqqvo8xZ1MwqXLN2BntwhS0txswIOHDEFAQADVvAiKBPSUgYyMNJ48vo9Z6tqYS3fwmhTTRUuWonOnjjAzNaFj+G8QhLVrViEnNw9O5bTZHTiwn2o5yLGuitw1EnuijY0dunf9DVoaM1CzViPw+LKl1ddc3+wy8lUWQdiwcSPu3r0FCxNttP+tEySllUqZT4TCQhQLCr8qHSEQ5fHp+FZXK4cgfGyNLM6Cgvd4/PAOXNx2oFbtunB0rFitUmUQhE/xEhTlojD3DXYEhiM0/AAi90agdi1lqvL+WuLxZUDMDBWVCIaWVpb09NfKFSvoySau6UB0JAICQ7HNZStdYwoLiyhBI+9kaEggtm7zxJ7wMNSuXQtXrl7F4iVL6b0NTZs2/VcJwu3bt2FsaobduwKor0BFJnLSS0d3HvWl8PH2FPsUSVmycCYIuTlZ9Cxy3MnTkJSSAU+iGBPGDsVsdR3weHzk5mSC2JKSzvwlciYSFmHalLFQnTKTTiguJoY56hrQ0piOC39dR9rLV2jfpinsl9nT3dPLtKdY8udS8CRlUb9eHQwe0AOHj57Em7eZWO6wjNp2vkcQ7t27h6XLRJfJpD59Sj3GW7VsBVk5WSywtaa+EtFR4dh/4CjA41N1W+1aNWBiNA8tWv1OtQs3r/8Nl21uyMkjNmCgfh1lWMw3AVFbkQW3OmsQvjZRSJ+TT8ehe/de1DGV68dwg/MqnExMoRoAJcUasLaypCdLiL0sOekY/AJCUVhE9mLFaNmsPkyMTdGQOOn9SxqEmJiDWLt+I47FHimXSpv4BRgYmtIdgbiXDH3vhSwqKkRudjpqKChDgifNGe+yXvKvPa8sgpDxNg0KigqQlJQV255ann58r0xlE4QPbZN5LSjMQUbGO9Sp17hCu1HZBOGDsMRfJCP9FZRq1gOfz13N/6OdJcfKiXO6lbkJZs6aI9acz3j7EgsXL0bay3fUxFNTWQGurm50o5GR8Rq+Pp44/7+rkJWrAb4kMFV1FCZMVKPz8oOJ4d/QIGzduhV/XfwLnh4ekBfDuZELtoR8kJNMDkttMXbcZLHw41I/Z4JAKiOnAIoKMlAsLKQLGF+2FnWsKJlkRXn/PC+ijjt8mVolatH8rKeQkiN2bB4Kc19DukZDFBVmQlCQCWn5hnjx4gVV+cYdO4yivDfUkUlSWhl8aZGambL1/AwIirKpV6qUrAr19hYW5tB6SXuCwmz6N2n5Bl84fRFGXJiT9iUmEhKQkq1Dd2qkX4X56dTMAPAgKa0AvvQnzij/eJiTdkiSlFYseU5vxcp9Rb1gicc9SYLCLBTlZ0C6BrkHQHxvdy4DWBXzCIpyUJSXQWYMJHhSkJKtTf8vSsUozEun40ZPJ0grQVLqo0cwKUvmhJRc3S8wK8p/R8vzZZSRn/2cYk/wJr+l5epx/iA9e/oY6pq6sLW1wcQJ48V+qfJys6E3zwBdu3bHAjtbzkeeqtJYVRZBqEp9/LcIQmX2+d8iCJXZh+/VfSQ2FvYOjvTUU736Hz38ucpTlJ8OQUE23VyQbwD5FnxI5DQN+WZQJ1e+LKTI9+gf7QchdQU5L+j3RVLqS58K+kymNq23MOcl/aYQ7Zeg4N1X16ZvyUvuaZmjoQX1WVPpfQhcN1lc+08ubHNz2/7PMeOKJ3ZiEQSuQpcn3/PnzylBOHkirjzFWRmGAGcEyOKwNyIIe/fF0mNPioofL8PiUgkhg+So4uJlq+Dh5ormzUuftuBSx8/OwwjCzx4Bbu3/ygSBmH119eZh2uRRmDx19i+5idodFIxjR2Pg5roNCooV659CZtCaNWvQvWsHjJswhduEEjNXlSEI5PY0YuMPDQ0TswssO0NAfASIRmnFiuX4vWM3zJ41S/wKioXYHeiHm7cfYdWqij9/LL5A4pUg/h/qGhrYtHEjmjWrfgSHS2/JUdtr16/D1la8a6i51P1v5SHxNogP1K+YfH19ce/uTaxcuYqzf1N1woE47BJnyTVO9mjTrnOliH4yLgY9evb754Klim+iyhCED+c5P1U3V3x3WY0MgY8IEActonLkSZZPNUdIBjWFVcL548ofp2JqkuPxyfG8X9P8RVTCEApEjp7VNJEx+lXXROL3QNZ94ldW0ar3qjDcom9aDr2foCIdOz/tG5nj5bkjhCs+VYYgcBWY5WMIMAQYAgwBhgBDoPIRYASh8jFmLTAEGAIMAYYAQ6DaIcAIQrUbMiYwQ4AhwBBgCDAEKh8BRhAqH2PWAkOAIcAQYAgwBKodAowgVLshYwIzBBgCDAGGAEOg8hFgBKHyMWYtMAQYAgwBhgBDoNohwAhCtRsyJjBDgCHAEGAIMAQqHwFGECofY9YCQ4AhwBBgCDAEqh0CjCBUuyGr+gI/e/YMTqvX4uJfF2kMjTFjR8Nh2VLw+fyqLzxHCUm/3D08cfv2Hbhs3cyxVOls0dEH4b9jB8LDQiAtzf2ypmnTZ6Jv396Yp69HA7V079YVK1dwjyL451J7GvvEy9OdRoKT4Elg5w4/GqBMnDRj5mzYWFmif/9+4hTD9Rs3MENtNo4dPYzTp8/AZZsrdvj5oF27tpzqeZKaijFjJyD2yCE6x8hc8/f1RufOnTiVJ2Pn7eMDgn9w8G4oK30Sb4VTDaLYMLfv3MXy5Stw+85tyMnKwsjICHO1NDjWULWzkWuQzeaT6LX1aTC8z8MIk/6T5OnlQ+dfnz696b9/xQuPqvZIVa50YhGEwsJC+O/YCQ11dSgofAywU7kistqrGwIrVjjhwYPbmKs5k4b+VlKujd9+71phQY3i4k6ga9cuqFPnY2CWfxujpKRT2LBxA9y3bUKT5m3Ebv7hw0ewsLTEyuWL0a17H7FCOmtrz0W/fn2hrq4BHV199OvbGwsWLOQsw9q1q5GWloYtW1ygP88QkpI8GpNC3MV9+ozpsLGxxYD+/Tm3TTLeuXMHajPn4MzpeCTEn8Q65y0I2OmLFi1acaqHxG0hoeFPJ55A8tlkLF22Art2+qFd+984lScBv3Ky3sHKxgbd/+gLE2NDjuU+ZsvMzMS4CZMwevgAjBg+hH5A6zdojJatucrw/SZJ+PlNW7bCQF+Phk3/91Mx3r1Ng5GpJeabW2DggAGlRLh+/Qbu3L0LEiW3W9dOeP3mHSarToSMjMy/LyprsdIQ4EwQyIQ9f/48jbzl4+0BFZU6dEdIPgAfEsmTn58PoVBIPwaysrIlzJP8LScnh8arJuyU5BMIhDRMp5SUFH1GXjISRIbspshilZ9fAFlZGfqcpaqPABlT8p+pmRnUZ0/DwEEjqNBkPMnCQcaUzIO8vDw6Bz6fIyQv2ZmQOggZJflJ2Q+7a1I2Ozsb8y0sYGNpiZatRB8UEgv+0x1OHilfQCJykvJSJfOJ5BXNOwGdm0SOoiIihwStg+sHMjs7B+oaWhg+rD8sLKzFvqqY9MPM3AJyMnxscHaGpJjhdS0tzemuXVV1KiUIo0YMwTwDI84TxNPDDS/S0uDouBKWVtaQkuJj44YNnMt/yFhegvDgwQPM1dZBUmI8Tp1KxHLH1QjctQONGpUOlbxtuysaN26M6dOmlpKNxG1RmzkLCfEncC7lLKxsFyEkaBeaN28hVh8e3L8BbT1THIk5VGodK6uSzKws3Lt3Fzo68+DuugWdOnelRchaSNZEGtm1sJCuZeQ3+RuZb5/OLzIH8/LIWil6D2RkZUs0OOTZ9evXMWuOJsJDAtGseQs6v8kc/ZBE5fPo+yRB1loZmVIautzcXFqG1C1634SQkpaCvJxcWd0r9TwkZBfcPPwRdyy21Mf/7p0bCNgViNhj8bTd6ZPHwcTMQuxwxkRO8t1QVPwyoqJYgrLMlYIAZ4Jw7dpVrHRaibt3H6JXjy504e3SuQvmGZpQwbKysrFlqwvu37+D2jUV8SY9E126dIO1lQV9Md6+fQNdPQMYGRkgNvYocnPe0xeI7Hw6duwMHR1dKNesCQV5PjKzi1Cnjgru37uDOnUbYP26NV+ouCoFDVbpDyFw8OB+HI09ggsXr6J1y2aoVVOkuh00aAhmqM2iCwGZI1euXEa9OjXpHGnVqjWWLF5ESSBZTA8eOoTQ0HAo1JBGIfl4S8pgga0N2rdvh1evXmLz5g04HpeELp3bo8Y/5HTRoj/RuElT2taZ5LPw9vZGTWV5CIoEePsuB1YW5ujVqyd9vjdiDw7GxGLgwAFISkyAjLQkJRrW1nacdz+XLl2CobEp9oYFokkzbrveT4F9/Pgx5mrrwdFhEYYMHcmZmHyow8FhGQYMGIiRI0ZSE4PqxLGYOWsO57ELCQmiGgQrKxvYO9hDii8FBwcHzuV/lCCQ/ltaWWJf5D5cvnQRdouWIiQoACoqdUvJ4OKyGU2atvyCILx+/Zqq8/fu3Yvr167AyMQCEXuCUb9+Q7H6kJOTDWNjEwwZOhT6enqcy9ovW4Snz17g3IXL6PVHp5JooCam8/H77x3x5s0bEDOONB9UO5P6/BWsrSxLNC3kPXD38EJiYgLq1a2Jd+9zaLklixfSde5paiqW/LkIF/66iv59ukNeXg4tW7aEtc1HLRExyySfPY0mjerh5at0tG37G+yX/VnSB8cVKyEvJ0vJ5/XrlyGBYgwfPhzq6lqc+0kyPrh/B9NnamDzpg0YOmRISVkSg+TC+bMIDAzC49Rn2OS8Fq3a/Cb2XLZbsAAJiadwPiVZLLlY5n8HAc4EoVhYhJiYaGzd5o3dOz3pBxw8fkmgGqL23bHTF35eW2nwjbQXqdA3soGDw3IM6N8Pubk5MDI2xYsXaVi22Az9+w8gmj5ISitAgicFTS1NdO/aETra2pijqQtrC0PIydeAwwpnREaE/1R18r8zFNW/FRp8RVAAHX0TmBjpoU/vXrRTZHx5fBk8f/ECa9esgp7OHHTq1BV3bt+EurYpfLw80bNnDzx8+BDqmnOx2M4E48eNQ1FhASysl0ClbgOsclpJd/rCwhyoTp+DLc6r0bp1S1o/DTjEk0RGxjtMmTYDM6aMgbGRAdFHYPVaZzx68hpubtuonfjmjStQ15qH9u1awcfDGbKyiqKATVIKnBe3fVH7ERgYgMiICNI5sQcuOTkZFlbWOJUQBxlZ8U11JNR0vfqNUb9BI5xKPIYWLVqjSbPWnOV48ugecnOz0e63LjRsNdllduwsIlDipPJqEHKys/DXhVMYOGQsMt+l42xyPIYMHw9paRm8TU/Hi+fPqRjBIcFo0KARhg8bSv/dunVrSuLy8/NwISUeAwaPRVZmBpISjmH4KKLeFm93TILprFq9GpcvX0V4WCjn8RcUZuHW7dvQ0DJCgL8bOnb4/Z95KAcJHh+JSQn460Iy5psaUy1WUNBu/O/yXWzbuoXmu3LlCmzt7BAR7AV5hVrIyX4HXQMrGJuYYtTIkSgWCnAu5RR0DSxwIDIILVo0ByQkISkl0tbeuHETZvPNcDAyADJyNSEoysH0WXqwsV2AYUNFH3Evb28EBYVg8qSRsJhvTOe4hKQ0JPkfNb5cxlooKKKmlPHjx8PCfH4JRkSDYWxsDFNjPTxNfYQXr7MpyeKqhfvQNiG7Z5JTcPzYMS7isDz/MgKcCQKR63DMQWx2cUPw7gDUrVuvlKgLFi6iardOnbvQvwuKinDq1GmMHzcaixYtpipfEzNzujD5+XhBVq70wqilpYkpU6Zi5MgR0NTSxnaXTXibngELKzuEhwZ9oX78l3FizYmBgNZcLZiZGKNvv9J2S7Ig37xxGQmJZ/HmbQbIDu7AwRg4r1uFsWPHIS4uDgsXL8WphGOQk1ck9gakv3kOYXExatdpWKLKnzhpErZu3ow2bUs7tf39999Uo7V7lzd++404rEng1s3LMDNfgLCwYKjUVkHai2cYM14VgTs80LlLT7Fs/x8g2LZ9Ox49vIdNm7aKgcrHrIePxMLFxYWqtiEhIXYd5ANCypEojIS4E5LyaUTGt2/f4mzKOUrASerUqQOaNWtW0g4ZB/KQfDRoXZTEieegSMqUlyBQB7fiIkocye9i8luCTz8uZ04nYv/+fVSmW7fv091z0yYizYCN7UKqJfheeXHB9PPzRVBIOGIORlMzANd069YNzFafi8AAP3TqJFrzPqSiwnwcP34MV67dQn5BAZ4/TUXGu3cI2r2bZiFaG0ke4Lh8JR1HMh6v055AroYSFBRr0Tznz6VAW88Qhw5EomXL0uRvxYoVyMp+jw3OG+kcJ2n5cntkvHsPl60u9N+7dgVinfNGHDm0F83K4SPzaX/mm5midt36cHSw/8SPqBiF+Zki0kKiFgoF4EsR/MSbz4TckDnMlxbfUZTrWLF85UegwgiCrp4uGjWsgzEjBpaSpn6Dpmjf4Q+Q+POmZuZo0rghli//0uOafFRmqs3C4MGDoKWtDS8PN6oGnW9ug/AwRhDKP8TlL0kW4nXrnWFqYgwlJSXOu4NvEYRbt25jtromRg0fgCmTRlF/ANvFa7HKaTnGj5+AAwcPYr2zM04lJn5X6G8RhDPJZ2A23xJHDkWjfgPRRyUj/ewZ8cEAACAASURBVC0mTJqCffsiUK9uPbx6+QIzZqlj757ya6VWr1kNsrOyt19eLnD37InA3r17EBoaVq7yZRW6ePEiiLqbECuSFtpaYYbazLKKif28vAThew2R8LVEC0XSdld3NGnSDFOnTKT/pmG1y6Gx+V57YWGhcPf0RXRUBJSVa3LG4HsEYWfALvj5+8PKTAfNmjbCzdv3ERObgJDgEFq//jx9dOzYCTbW1t9s73sEwcjYEE0aN4W9vX1J+Y0bN+H8hXMI+2dOBQbuxuatLvjrQorYPjKfC+Vgvwx5BUVYu2Y1M/VyniG/RsYKIwjLli0hyl44rVxBkfngqEPUhmR38oEgtGndAosWkbylEyMIP3dCnYxPwJ3bd74Q4s7dm0h9moatmzehfv3SWqNvSfwtghC+JwIbNm5E/PFDkK+hjPv370NttiZWrRQRhBMnTsBu4WKcSowvcRojRybfZ2aibZs2JYvTtwjC5Ut/Q9/QBH4+nujSReQ4RnxnrG3sEBoSTL3BCUGYra5FVcoqKirlAt3VdRuVffPm8mkQYmNjsXnLFsQeOVKu9ssqRHZkgsLskmwkHj1PkvsxyrLq//C8MgjCp21/yweBq3xc8vn6+iI4NByHD0VDRqZiNAgDBw+F7tw50NXVpR/n8PBwREUfKCEIjo7LIBCStXIlFZEQuXt370FOThZNmjShf/seQVi9egVevX6HrVs+Hq9dZu+AgvxsODtvouUJQXD39ETy6VNcYPhuHlNTU9Slxx0/1SD8cLW0AuKcnpObS4+aMmf0isG0ImsRiyAkxMdh+cq1dAFu0qQp9QYnpxKoavDUSVjbLUVUVCRUatcG8TSeb2GFdWtW4bfffmMEoSJHrRLqKsxLh7Ao54uaE0+l4HTyBSxd6gApaW4L6LcIQlRUFFY6rUFSUjykpaQQEhoG5w2bsNrJAaqqU/D40X1oztWHmZkppk6ZTJ0ajU3no3GjBli9ygmSkqJ7FNRmqsHM1Az9+vWDUEi8xCXp4pL5Ph0zZqpTO665+XxKUpcuW4b8vFxs3rQZ0jIyFUIQ9kdHwd8/AFH7IjlrVT4FNiUlBfPNLakXvzhq7UoY9h+qsrIJgoeHKxo3aQ7VSZN+SM5vFSbzY+XKVbh16yaCg3aLZe75ngZhzLhxUJuhBh3tuXj/PhNac7UhLy9DCQJxQrx+5X+wsF2CsJAQ6r1PTubM1daFrY05hg0bScW9fPkiZqvr0OObnTt3pqcVPpyEuH/3KvQMLHEgOor6ZJATE9NnzMT6Nfbo2r1vhRIEgVCIMWPGYeoUVZiZmoqFEZdBI6fiovbvx4njR1G3bmknVS7lWZ7KRUAsgvAu4w0WL1mM5y/eUpWzvJwM3N3dqV0qNycL/n5eiE9KQa3aKijIz8Og/j2gq28MHo/PCELljmOl1E4W0JNxh9C37wDI1ajJ+WP4LYLw7OkjLF3mQB0WGzdqhD+6/o4T8Ql4kZaONaud0LpVS8QdP4TdIXtRXCwJgVCABnWV6ce+WfO2Je0HB+3ArqAI1K6tAjlZGajNmEZ9GIi8ly+dhYenPwTFfGoGkJeVhLm5Kdq260zLV4QG4cqVSzAwMkV4aEgp2z7XQUh98gha2vrU65x4llfXVNkEQViUR00KlaH9+LB7NTQywZhRQ6A1l/spBlL2ewThxPGD8PYLQtNmzVFLWQFTJo/H4iWO6N6jJxYtsIO0FB87d3gj9ngCatRQQn5BHgb07Q5TU0vwJEVHurOz3sPe/k/cufcENWvVovPcw8MDkjweyAmCnf5eiD1+Cso1ayHr/TsMGdQbBoam1EmSpIrSIJB7DtRmqWPbFmcMHPTxFENFzdnJU6ZhxLB+MLew/WFTSEXJxOr5iIBYBIEUKyp4h6L897QG8uJKy9cvqY14sRflvQWxIxKPWSnZ2uDxRKpNanLIfUnL8GVEjjifpoKcF5CUUgBRhxbkpEFarh59EUgZKfmGlGSwVD0QoGMprVxywqVEajIH8jMgLMyiCxlftg7VWpA5RcabxycaCjJP3kJQlE2d6Eg9fGmFUh0n86ww7w11biLzQlK6ZomHN52j+ekoKsyERDEPktJK4Mt8dIAiZYh80vINy+WYR+rPzc2ixxT79ukLGxtyD4J4jlnEMdDGzhZFAmDLpo3V9obJyiYIlT3b7969BwMjIxw+EAlZefGc5ISCgn/mUX16FPfTVCwU0nVLKCygzndkDpN/FwsLIV2DONtKgpQXrZUF1FmTrpWf1SMozERhXgZ9J0RrbYNP1lpS/g1da3k8KfA/K19U8B6C/AzIKH50Ti0PnoG7g7Bz504ciYmGlLR4p0TKau/9+/dQnTwFB/bvgaJS+cx9ZbXBnv8YAmIThB9rjpVmCFR/BAjZ/d+FU3BcuREe7q5o2lR0B4M46emTe5hvYQdiO+7xR3dxilaZvNWZIGTn5MDY2BTDBveB3jzRcUSWSiNATl7ozzPAYjsz9OozuMIxCg0Nxc2b12Bv78icH6vo5GMEoYoODBOriiNQLISfnzuu3XhEL5EpTzp6eB+8d4QgePdusWIxlKetyigzd64mzMzM0adPn8qovtLqJATP19cPR4/GYoefFxSUfsZVxpXWvQqpmPg8kCuWmzSqi8WLl4EnZpwOLkIcP3oQrdu0RstWonskWKp6CDCCUPXGhElUTRCgF0MJiyApJf5lR6SLRD1M7Ox8KYUKd/76NyAkFwaRS9E+2L3/jTYrpo1iCIvINceF1KwpromoYmSo6rUUQ1CY848PSOlroitKcqGgkF4TTUwuLFVNBBhBqJrjwqRiCDAEGAIMAYbAT0WAEYSfCj9rnCHAEGAIMAQYAlUTAUYQqua4MKkYAgwBhgBDgCHwUxFgBOGnws8aZwgwBBgCDAGGQNVEgBGEqjkuTCqGAEOAIcAQYAj8VAQYQfip8LPGGQIMAYYAQ4AhUDURYAShao4Lk4ohwBBgCDAEGAI/FQFGEH4q/KxxhgBDgCHAEGAIVE0ExCYIDx4+hKPjSly7fh1SfClMmaKKRQsXVM3eMakYAuVEgEQqXbjoT7Rr1wZGhgZi10Ju63P38MTt23fgsvVjWF4uFU2bPhN9+/bGPH09aOvqo3u3rli5wvGrRcmNdxaW1hgxYjiNgEnSn0vt8eLFC3h5ukNHdx4keBLYucMPfDFuwyMRAgcPHQF/Xy/8/rt4N91F7I3Exk1bcPZMElavWYv4hCQE7w4oidZHsCFpx84AtGzZEkOHkGt8yV1RouuOn6SmYszYCYg9cggX/7oIp9Vr4e/rjc6dO3GBj8Z98fbxQXT0QQQH76ahhP9riYRInzhpMgz09aGlpfFF9wlGBG+7BYuwccN6ihm7MOq/NkvK7q/YBGHWbHU0a1ofo0cOpSF7a6vUReeuvcpuiWOOyH1RGDigP+rVq8exBMvGEKhYBMhiGRoWhn2Re+HpsR21VT4GyeHaUkrKOaxavQquLhvQvGV7rsVovrnac9G/Xx+oq2tCR1cf/fr2xoIFC79aR0JiIjZu3ABfb0/Ub9CY5lm7djVepKVh6xYX6M0zoMTA28tTrA9AYWEBBg8ZDj9fL3To0FEs+Y8di4Xzhs04djQWLi5bcST2OEKDA2nkQZKePX+OK1euIvXJQyjXVIG8vDx69uiBevVE4X6fP3+OcRNUcTopDmeTz2Kp/QoE7PRF+/ZciUoxsjLTYW5hhQEDh1Ki9V9LZA7fvPY/LF2+Dj7eXlBRKR0M6dz5CygqLET0gf0wMjLGrVu3MXbM6P8aTKy/ZSAgFkHIz8/HgIGD4eXpih49Ko4UfJAxJycHw0aMhK+3Bzp37vrDg0d2V+RFITHYWfo1ESDjS8a5IseY7L41tHRgOV8fk1RniPVhJSjn5uZijroWBg3sDRsbO7HD2FpamKNf/36YPHkqJQgjhw+GgSEJKFQ6kfeFaAgmjBuGudrzSuT08HDDi7QXWOHoBEsrKxotctPGjWJNgB8hCBcunMfadeuxNyICO3b4IXLfAYSHBUNOTp7K8OD+XRom/tiJJCjUqIEJ44ZDX98A9eo3pM9fvnyJGWozkZhwEikpybC2XYyQoAA0b95SrD7cv3cN2npmOH40FjIypSMuilXRv5CZzGGyg6/oXfxyhz/xJj0Lrtu3lerF6aST2LErCOfOX0T9enUxc8ZEGBjO/xd6ypqoTghwJgjbt23BpcuXkHL+Ejp1aAclRVEIXjU1NYwcNRbp6RlYtXotMjJeQVZGGhnvsmFiYkK1ASSRxczL2xdnzyZDSUEOOXmF6N9/AIyNDOjinp7+FgsX2uHsuYvo3LE9FBVqUNa7Zq0zLV9YWISQ0FAciolBXRUl5OTko3mLVli8aCF9+cmHwmnVajx79hw9e/ZAYmI8UCxEp06dsHDh4uo0JtVW1vj4eFhY2eLMqQQoKIjmx5BhI6GpMQcG8/Rx/fp1+uHV0dbC+4zXSHv5Em/Ts+HoaI92bduiqKgI/jt2IikxEUpKcsjJLaC7Rlsba0hJSdH6ltkvRV5eEVq2bI6UlBRIQICePXtj/nxzHDgQje1unoiKjECNGqL4CAUFBZg2XQ1r16zkTDpPnIyHk5MTYg5FQU5OUezxuHz5CgyNTBAWsgPNW7QVu7yD/VL0HzAQI0eOogRBdeJYzJw154t64uJOwN/flxJquRrKJc+JWj0tLQ3W1rawt7eHlBQfDg7LxZLjRwjCzZs3sXHTBvj6+CEiIgxBIRGICA8tIXEkjPuZ04lwdfdCrZpKcFi2DPUbNikhUq9fv4ahkSEi90bi2rUrMDaxQER4MOo3EBEIriknOwuGxsYYNXIUtLW1uRaDr68P7t57gHVr15SsXZOnTEN4WAhq1aoFLy9PXL5ynWo8SLyCu/cfoW/f/rAwF31g09PTsdxxJQrys8HjSeBtRhZsrK3Qu5doU0U2WvMMDKGnqwMy14gmhczThQsXol279pg+YwamTJkGQ4N5H8c0JBReXl44dDAaCgrc5+SJuKMwt1qA2MOH0KRJk5L6SByKyL3hOHEyAVlZOdjusgXKtUQaHHHSzFmzUbNWTXh7eopTjOWtJghwJgjkRcjJycTw0VPg5bYJXbt0pl2UkJShscovXbqMkOCdcHJcCglJPuKOH0NA8H4E7w6k+eITErBu3TrsCSKLWU08TX0EHQMbLFu2DCOGD0NxsRD3717HbE0D+HpsQadORK0pAUlp0Yfm6dOnmD5jJvaGeqJ+w+bIfJ8OQxNbjBk7vkSFuHOnPzZtcYXGLFXYWpvSOOuQkKQx2VmqfATi409+QhBEi9iQYSOgqT4bBgYGuHHjGtQ1dTFXYxrMzedDWFSEiVNmYczYcbCxssTLVy+xcsUKaGlMox/9hw/uQUvPHJs3bUK/vqKIgaEhgdiw2Q2jhvfHSodF4PFlAJ4kDXiU9uIZZszUwOJFCzBhwgSaf//+aISFhcDHxwc1aojmUllpw8ZNyHibhtVrRORU3ETaJHNxX2QkDXYjbrr0VzLqN2yKBg0bI+HEYbRs1RbNPiMahBCTj9ZCW1MMHDyqVBOPHtxBTm42fu/QDX//lQwej4cu3cSLuPgjBOHdu3TcuPYX+vYfgSeP7uL2resYMVq1REbygVywcDEszbSRdPoc3mflw8Lc/OPzvFycPROHIcMn0vf8ZNxhjBk3FTKycmJBSdYUp1WrcPXqdYSHhXIu6+vjiTv3HmL9unW0DNncqE6eij3hhCDUBnnu4x+I44eCIa9UD29epkJ1ug6Sz5yiGoATJ0/gfEoSbK0t6BoWGBiIv689hMuWTbQ+gaAICxctwqVLV2FsMAdTJqsCxaBrnQRPGkePRGHHrgiEBO8ukdnYxAwjhvaC2iwdzv0gGV++fIahw8dhyyZnjBkzpqQsITGTVKcgMjwAGzdvxeixkzByxAix6iaZZ82ejVq1lOHp4SV2WVag6iPAmSCIXpRsuiP08XJHt26lY9gXFuTh7NnTuHHrAfLy8kB2AadPn6ZEgSS7BQvQtEkDWFrY0Mh1AkEh0p49hKJyHSgqiWyTDx7cw8zZmvD39fxitxcaGoK4uOPw9vahO41ioRArnFbi2rWb2BMuevn37AnDho1b4efjhs5d/qj66P9iEnIlCF7uW9C7j0izNH++GerWawT7ZX+SaYH7927gbMpFvE1/h+zsLERE7IP9ssWYPHkKzU8c15xWOyM0eAeaNG1VCkHyQdi4YR2ePH1FHa+Io6GmljbGjB4KAwNjzqp+CwsLdOvaCXr6huUaoe2urlSNvnnz1nKVJxEiCbEg85zs9Mj/P414R8hBQMAuHI87Bg+37SXvz4fGyA6dJFKG1kV+8/hiyfIjBIGMA/mPx+OjWCgQ/ZYUaYBIIvIXFWSCL10DRYX5dJctyf/48adOjMVFlOCT38UEA55UudTvRBsQHLoHMQejISsrywkDLgTh70uX4erqRgkAWReJQ2BUZCSUlJVQVJiHpFOJuHX7IfLzC6iG4NnzFwjaLfrgE3MC0egkp6Rgf2QYFBRF69+HlJOdCR1dPTgsd0Snjh2pycXA0IBqUaSkxYscKhQK0L1HHyxcYAMNdfVPxkCIgtx0SMvVQmF+JvhScnSjJ24i40hIEYmKydKvh0CFEYRjx45j4eI/YWaogY4d2uD5i5dw9QzCibjjFDUNTQ2MHz8eGupfetR+gPV7BGHz5o1UJb1+3cdd3VaXrThw8AiOHjlE1ZcREXuwzdUD+/aGQUVFfHXZrze8P9YjsjivWbuOqkfl5MrevXElCLt3+aFjR5EGysrKkjqqEbV6aupTzNHQQpdO7TBHbQIEQgGWOW6Bna0Vpk2bQfMfPXoYXt5+2LnDH4qKX2qGcrPfYtLUOQgJ2k21TgZGpoiJDkfd+h/Vq2WhoqOjgymTJ2HK1OllZf3q81VrVgFE9mXiqfW5NkbeA2J6WLrQHAOHEO2ByPu/ItOPEISKlONH6yKaAzdPX0RHRUBZuSan6rgQhDv3HmD9uvW0vs81DEHBISAk0dJUGy1bNMHtOw9x+FgSQoJDaH5CEJYvd0RGxhts305IRulECJWnpzsSEs8gNCQYjo4rIMWXwNJlDpzk/zzT8BEjoT5nDubN0y9XeVbov4tAhREEQ0MjdOzQFubz59PdyunkZLpAxp88QdG1tbVCs+atYGlB1G5EzSbA/fsPoKikiAb169O/fY8ghAQH4ujxk9jh70/zko/XipVOuHnjBkJDg+kiSQgCsUFHR+3lvBj8d4e+dM/PJJ/FgwcPvoDjxvUrePI0DZs2rEedOnW+C1dCQjzMLW2QlHASysrKKCgoxJChw6GnO7eUieFbBOHosWNwcHBE3NFoKCjVwtPUp5itrg1bG/NSBMHPfxf8fL2/YYsthpOTIxo1bk53b2/fPMPSpY6ctQekgxYW89G9W3fo6pVvQd2+fRsePnyATZu2VMr0CtgViEt/n8fGDZtK7cwrsrFfhSD4+voiODQchw/u52yi8Pfzwo2bd7FhwwYKaXZ2NsaMG48D+/eVmBi+Z4IYPGQYtDTUoK+vT7U4EXsjELlv/xcEoaAgB+vXf815tBh379zE5Glz4ObqAksrWxCtW99+g8QeYkJGuvfojUULbKD+iQZB7Iq+USArOxuFBQX0fSemLJZ+LQQqjCCYmRmjc6duMDYxhkAohI6OLh49eoTEhHiK2PGjh+C82RX790XS3ShxJtScqw2HZYswdKjI9vX8+VNMnDQNHu7b0bt371JIp6Y+wLQZGjh0YD89T52ZmQldvXmYOnkMNDRFx5gIQXB188J+MXYLv9Zwlr83hXlvISzK+aKC5JS/EHs8AStXrIKU9Pe1COfPncU8o/lUFdq2bTtcvnwZc3X0YWZiyIkgHI+Lw59/2uNs8inqlBgVtR/2y1dguf1izJgxk8pGNAjfJwhASsoZLFi4FCoqtekxw8afmSLKQmmD8zq8y8zCKqdVZWX96vOo/ZEICNgt8kGo4ETOt0+apAoP1y3o0KlbBdf+sbpfgSB8cFy+dvUqwkJDqGmTS4qOjkREZDR27dxJsyclnYaRiSmI5/8HH4TvEYQRo0ZBS3MudcbNycnF5ClTUbuWMsLCwmh9HzQIBQW5WL9eREI+T0SLYG1tjpu3H6KosIBqSctjAiCmXnKfxZZN6zFmzFgu3RcrD1mD79y9i/gTx+lpGZZ+LQQqjCAkn4nH5i1uaP97B0jxeejXuxvcvXagT59+MDE2Al9SAu5u2/C/i1dRs5YKsrIzMaAPIRTmJROf+CU4LFuCqzfvo45KHfD5kli4wBatW7cBWbCCAv1x+GgCGjRoiMys92jTqgkW2C2ElLTo+BQjCBU7OckCG3MoEkOHDIW8Qu0ybcCZ7zPguGI5Xr15j7at20BRURZxJ+IxccIkGBkZljgpfkuD8DLtGZYus4eUjDyaNG6MVs0b4tyFv/D8xRvqUd6qVUtOBCE7+z3UNeaiXt062L59O2TFdG47EXcMTmvW40jMoXIdj7t8+W8YGpkhYk9YKc/xHx0dcspj1eo1eP/uDdauXQcZmbLNPuVt81cgCET1b0Sd+/pBR5e7P8m7jNewtrGFcs26UKldCzLSwImTp7ErcCfq1qlHnRS/RxCOxERiZ+AetGv/G6T5ElCdOAZLljlh0KDBIEdYyakrYmL4HkEg4/b0yV2oTtPAlg0rMXjoRwdDccb05MmTmG9hhSOHotC0mXjHRMtqh5y8IBrCFQ4LMHoscULlRsDKqpc9rzoIiEUQCKvNz3wMafkG4PFLO/wQZ6TC3FcQCvIgKa0IvkwtFOa8hLC4CDLyDajZQVCUh6K8NyKnI0kZSMmpgMcr7RgjKMpGYe5boFgACUlpSMvVFZ1GoMy7EIW5r1EsyKd/k5JVKSUHcZgpyk+HjELjUk5dVQfuX18SQWEWiDYCxcXgy9aGoDATknx58GVqQijIR0H2c0jXaAiepOhcekHOS6r+58uq0OWlMD8DgsL3kJDgQ0quLoRkzhQQZ6p64PHlICjMRlHBOzoHSbmvpdzcPEyeOg16OuqYNUujTGLzeR3Pn6dCU0sXNtbWmDBhvNiDlpuTiTma2pRYWVmKTGoVkQhhK8h5AUm+LH2/KjP9CgTh0ePH1En12OEoyMp/PAZaFm4iJ8p0CKgDniSkZOuiMO81pGuQOSeJovwMuhaRtYkkui5mPYWMQqN/HEMFKMhNQ7GwAHwpZUjK1KTjBlJGgVxmxUNR3mtalszxb6WXL1/B2NgQe/dGlHs9W+G0Ci+fP4arG7koq2JNAMQJfdPmTQjevRuy/9xxURa27Hn1QkAsglC9usak/a8hQI7PEXVn7JGjOHc+GT5eHlBSLn2DHBdMyIIfHLQT0Yfi4OXhhpo1uTm3faibfGDOnjmJNc7b4OnuhsaNRTccVqdU3QlCTm4u5ptboE/PLjAyJvcTVJ/d7Zs3b3D12nVs3rIV06aMg7b2x/sQxJlD5F0gdysQ/4V6DZqLU5RT3iVLlqB5s8YwMjatcPLBSQCWqdIRYASh0iFmDfxbCDx79gyac3XQvGlDbFznCJX65VepCgUFWLjIDi1a/o75Zibid6FYCA+Prbh87QE9iljdUnUmCISgubl7ICbmEMKCd0GxHCTxZ47XwYMHsHqtMzRnq8LY2AySUiITqjjp/ftMjBozFuam+tDUqpyrpv19PaA6WRV16lY/AiwOlv/lvIwg/JdH/xfrO9n5i9TCPPCkFMQ2LXwOBzFn0Lo+OaMvDmTEPFJcXFRNz4gXoyj/HZVd3DsUxMGocvIWU9MUMQNISin+8DyoHBm/XSshp8RhmCcp+4Upl6sshCQJCt7RufvBnMe1LNd8BGNiBq5o0wXX9lm+ykeAEYTKx5i1wBBgCDAEGAIMgWqHACMI1W7ImMAMAYYAQ4AhwBCofAQYQah8jFkLDAGGAEOAIcAQqHYIMIJQ7YaMCcwQYAgwBBgCDIHKR4ARhMrHmLXAEGAIMAQYAgyBaocAIwjVbsiYwAwBhgBDgCHAEKh8BBhBqHyMWQsMAYYAQ4AhwBCodggwglDthowJzBBgCDAEGAIMgcpHgBGEyseYtcAQYAgwBBgCDIFqhwAjCNVuyKqHwNEHDmJPeBg8PNyhoKDIWeiQkCAE7ApCSHAQYo8ew0qn1bh08QIN/8wlXb9+DVra+jh0IAo3btyAlY0d9oQFo1279lyKl+RZtGgx5OTl4bjcQaxy5Aa7rt17wnX7FjSo3wC6+gZYaGeNyZOncK5HbeYs9OvbB7q6utDR1UePP7rDwcGec/n09Lcwt7DEgAGDYGigD0lJSc5lWUaGAEOAIfABAUYQ2FyocARIFL1p09WwbrUDRo4aL9ZVt4djDsDT2x+7AnYiITERq1atwbmU5FIyZmVlYaLqVGioz4bBPP1Sz549S4XaTHVE7duLO3duw8zcCoeiI9GocVOx+rlw4QLIyyvA0XG5WOVI5gEDB8PT0w2KCgrQ1tHHcoclGD58FOd69OfpoX+/fpg1azYlCAMH9IWVlQ3n8kAxbl2/CH0jG+zc4Yc2bVqLUZZlZQgwBBgCIgQ4E4RHjx7jzt07GDliBC2Yl5eHo8eOo1fPHmjYsCEePHiAp8+eoWmTJjh/4X/g8Xjo07tXSSQ7srO6e+8erly5ChJHvFHDhujduxdkZUVho0ms+5PxCWjVsgWNl558NgU5Obno3r0bOnfqiMh9UejSpTPatmlTMnZpaWm0zJjRo1GrlngR99gEqDwEfHz9EHskBsFBgZCWES/QTMrZ09i8dTv8fH1w+nQytrpsxeGYmFLC5uRkY8KkKdDSmA09vdIEIS8vBxMmTkZ4WCgePnwAQ2MzxMcdhaIS93C/pLEfIQiTVCdh06ZNUKhRA5pzdeG81gk9e/XhDLitrTX69++PiRMnQVtXH2NGDYOurngR/Uj49SV/LkLdek1ga2PFue3U1KdIOXcOY8eOjDEhHQAAIABJREFUQQ150dgdiT1K37vWrVshMzOT/rtvn970Xc7MykLLli3wR/fu4PP5NP/79+/p+0uiEiopKaFP796oW7dOiQw3b95Ceno6unbriqTEJKS9fIUmTRpj2NAhOJuSAhLmeNLECXQNIamwsBDH406gdauWaNeuHee+sIwMAYbAjyHAmSDExh5G+J4I+Pn60RbfvHkNHb15WLTABgMHDsbhw4fgv2MXpKWloTFrIk6dOY9LV+7g4IEouoN88uQJ5mrrYdDAHmjUsD4io2Khrq4OHe25JQTBbgHZtcnjwYNHaNOqMRRqyKF3n34YOmw0nNc7IStbACenFSU99vb2QURkJKIiwyEvz12N/WOQsdJlIaCto4vpU8dhkqqaWNoDUu+d2zewas16eLq7I+X8OUoUAgODSjVJwjqPmzAJutqa0NISzZ8PiRDR6TNmwN/PF6mpqdA3MEby6UTweOKp2X+EIOjq6sDe3gFKSopQ15gL122b0a7972XBVvJ85UpHDBgwEMOGDYO27jxMVR1PNTLipuTkJCz+czkSTp7gXDQ+Pg5Oq50RFLgTDRo0pOU0NDWgpjYTUyZPxtPUx5gyfTaaN2sKtWljKRnw3RmO7du2onevXjS/ppYO+PxiDBrQE6fOXMC797nY4ecDZWURSUtMPAk//11o1qw50l48we/tW6F+g0aYo66D2MPRcFqzGcFBu9C8uShE8atXr6A2aw7CQ/xRr34zzn1hGRkCDIEfQ6DCCAIhECtWrsb+yN1QqdMIz5+lYq6uEba5bEXHjh2RmvoE/zt/ChMnqkJYDKScTcZmFw9E7t1Le0AW9tVr1uDIkaNYutgSo0ePASQkIMGTAo8nhceP7sLQ2ALBQbtRu3Zt5OTkwNh0PiaMGYKZs+eK/SH6MdhY6W8hQMZx0OChiN63B7Xr1BMbqIK8XDx6dAet23ZEVuY7vExLRZt2XUrVQ7RNY8ZNgIG+DmbPnvNFG7dv/o1WbTqioCAf925fRedufcWW40cIwv07V9GoaSvwJaVw6+bftC+ystw1KalP7kFJqTaUlGvizq0rqFOnPmqp1Be7D/fv36MmCn9/X7Rp/VHz9r2KvkoQNDSgNvMfgvD0CcZNmIzVK5dgwgRV8uLC3NIKXbr8ASMjQ+Tm5mL/vlAMGTIEdes1wLuMtxg3aSY8PdyoloGk27dvQ2uuLkaPGowli+wgIytP318SvTA/LxvqGlqYPUcDajOm0/xBQcG4cOEsNm92Ye+52LOAFWAIlB+BCiUIwcHB2LlzF32JqYZBVx+LF9pSmywxSfj4+mLfvmhkZ2dDIBRSDUH8J7ubDRs3IibmCA7sj4CCYmmTAVnsra2t0aZtO1hbWeHxkycwNjLG/qg9kJLmvviWHypWkgsCRAU9fsIkHDl8CDVq1OBSpHSe4mIUf1aKzKdPEyEho8eOh7GhHqZ/ZWdNnn+aPi/PRagfIQift0/a+1SGM8lncfJkfIkYurra1OT2IX0oT8p8+puL3J/mef78GTVR2C9djEGDhnAqzoUgTJ8xG34+nujYqTOtc80aJ0hJyWDBgoVU3tNnzmDL1m1Ug0OGgry7Hm7b0a9fP5r/3r17VCNwKDoMDRq2KP3RLy5GQnws/HeFI2CHPzU9jho1Bn8uscOo0eM49YFlYggwBCoGgXIThNevX0NXTx+LFtpSE0NZJghvH1/ExsbA1tIEDRvWx8NHT7By9WacPBFX0pMNGzchMSkJ0VH7vtgpkIUn9shBOG/ajojwULh7eEKxhjQsrewqBglWyxcIEMw9PdzRo1cf6mvC5UP7+tVLzCCL/4Ho8hEEjuMwYaIqjAz1oKrK/XQAx6ppth8hCGW1c+Z0Ak7EHSvJpqdvJLYTZVltkOdpaS8oSbeztcSIEaO5FMHXCMIc9TnUYZKaGJ4+wYyZ6vD39cLvv3cQEYS1q8HnS2HhgoU4f/4CPUEx30QHffv0Al9KEjNmG2C7y5ZSBEFzrg7OnEqAhITIz+DTRLQOxHy5etUqpD59ivXOzggLDkSdug049YFlYggwBCoGAc4E4fjxowgI3I3AgF205efPn0Nrrg4cly/lRBA0tbQweuRQaM3Vo+UPHzkCZ+cNn2kQNuFMcjL27Y34au+KCnOhOmU65s0zgPOGTfB0d0G3bj0qBon/eC2ubh5ITEz6AoWCwjykpj5HaPBuTt7wQqGAaoyOHY2FgoJCpaEasNMLffv0R/vfRbvYik6VSRBEWgHhJyLzOJEvcftI/H4IQdiwfhX+6NGbU/GkxJNYvmINAnftQOPGTWiZESNHw9zcjBNB8PDwwIGDMQgLCYSCojJSn6Zi0qSp8HAvrUHQ0dVDUmLCV2UqLhZi40Zn3L7zgDqXtmhaF+YWdpWCESdQWCaGwH8UAc4E4dq1q5hvboltLi70xEDMkSPw8fbFls3rMXDgkDI1CE5Oy/HuXQ6sbaxBTkSEhgThr4uXEBISjIYNGlAPaKJB+B5BIGN0KDoCm1y8UL9+Hezw94WsbDnU2P/Rwf5etwWF2SgWFpbKQj5ku3YHQ0lREdOmz4Ekn9tdBBMnTcL6devRsaNoh1nRiTgpRkXtRccOndCpc2n/hIpqqzIJQkXJWFY9V69ehbGJKQ4d3AdlZZWystPnjx7ew2x1bSxdugQ9/uhBSeN21+2ws7PlRBCOHDmINWs3Y8vmDVBSUsb+6CgcPBgD8/nzMX7CeMjJylITw/cIApHj3p3rmKmuizoqtREatAO1VJj2gNMAskwMgQpEgDNByM/LgafHNuw/GAdFRQXoaE1HcOh+mJkZY+jQEWUShBfPHuLPZctx9/4TjB4xGAb6WlhivwppL99QNTY5HsmFILx98xrqmlpYtMAcQ4eNY7uKCpwMn1dFCML79MdQVG4ECR6fM9b29kshLS1DPfkrI2VkpGPy1BnQ0piDefPEO/7HVZ5fgSAEBYfg5Imj8PHx5zx25Hjk/n3B8PAJhrC4GIZ6c3Am+QIGDB6KGdOml2liKCzIxdYtzjhwOB4tmzfHn4sscDblHHx2hGDN6lUYPGgQJ4JQLBTCxsYCNWvVgoPDSs7ycx1flo8hwBAoGwHOBIF8LISCPAiLckUex3x5CIvywOPLgScpDaEgn/7Hl1airRI1oaDgPc1HntN/F2ahWFgEnqQM/bugMBPFxQLwpZQgwZOEoDAHxcIC8GW+facBcfByc9uGwICdtF6Wqh4Cp5LiYWW7GHvCQtCyZcsKF5DMpaL8d+DxZSHJl6vw+kmF1Z0gZGS8g5a2NqwtjDF8xFixMBIKCiAsyqbOopLkPRcU0HeNvLfkfSXYk/eckEaSiPaJJEkpkTaPvMdkrZCQkISklALVTAmKcuhvuhYIBXRt4MvW+qZcL168gKbWXDitsEe//oPEkp9lZggwBCoGAc4EoWKaK38tb968BdkRBQUHY4X9AowdXznOaeWXkJX8gICgKB+2tjZQUKqDFY4O1fKq3+pMEAiZX+m0Cg/u34WHuyvkqtEdIeQStT0Re7F37z7UraME1+3bISVdOSSQvbEMAYbA9xGoNgThxfNnCAz0Q5dOHTF85Di2aFTxmZ317iV2BuyCjp6RWLEYqkq3oiLDICUtgwkTqx8Rffv2DQJ3+UF10kS0aPV7tVLPk+PQ21yc0bBBfUybNh01FInvROljrlVljjA5GAK/OgLVhiCIPL8/nG+XqFaL3q8+ib7Wv4/jVT3HipgxSPraMbyqPp7VGXv2nlf12cXk+y8hUG0Iwn9pUFhfGQIMAYYAQ4Ah8LMRYAThZ48Aa58hwBBgCDAEGAJVEAFGEKrgoDCRGAIMAYYAQ4Ah8LMRYAThZ48Aa58hwBBgCDAEGAJVEAFGEKrgoDCRGAIMAYYAQ4Ah8LMRYAThZ48Aa58hwBBgCDAEGAJVEAFGEKrgoDCRGAIMAYYAQ4Ah8LMRYAThZ48Aa58hwBBgCDAEGAJVEAFGEKrgoFS2SGfOnME8QxOcO3vqp91yOH2GGv7o3h1LliwGj8er7C6z+hkCDAGGAENATAQYQRATsF8h+5kzpzDP0AznkpOgoCgKrvVvp4zX98GXkkcNpfrsVsx/G3zWHkOAIcAQ4IAAIwgcQPrVspSXIDx58gQJCUkYOnQwDeErFArRrVtXtGvblkJE/h2+JwI9e/SAnJwcks+eRXZ2Nnr27IGOHTrQPDGHj+D169f0NynXp0/vEoLw18WLUFJUwrVr11GzpjLatGmNU6fOoF37tujapQvVNGRmZtK2X758BWVlJfTt0xt16tQpGaIrV6/h9atX6NevL5KSTv+/vbOAqmppw/BLd4hSYovd3R3XQEQQRRqlVQQUUAkVRVQsJFQMJATMa4uB3X3xer0WKoISSnf+a+YAekSFgyB4/5m1XMvDnpn9zTOzZ7975psZJCQmQFFBAaNHj8KzZ88RGxuLiRO5Tzc8HXkGXbt0RvPmzatd1VFRF5Cdk4Px48ZCVFS02ulYREaAEWAEfhcCTCD8LjVVi3bWVCBcvHgBC+wW4Y/xY6H2xzDcvvsQ+w+fRvjeYLRr1w5kH31NLS107NgZ165dx/Ch/SAtJY4hQ0di6LCRtARHj0QgOTEBp85eRrduvbDMzaViimGz92ZEXbiEP8YMRWjEEYwaMQwtmjXBuQu3sSdwJ4SFhTFnjjmKivIwfuxQPPzrKZ6/fIujfx6igoSEM5EnEBSyD1JSUsjNyUDPHp0gJycPXT1j3Ll9gx5DHXnqRIWoIAJmktoUhIcGoqlKy2pTNrewREJiIvbs3gk5OXKgEAuMACPACPy3CDCB8N+qz2qVpqYC4dKli7CxXYhN61dh1KhxKCzIgaa2Hib8MQHz5s2lIwGOjgtx7cZdrPd0xYABg8hpR+DjFwK/gDBnlKE4HygtgYPTEkhKyXEJBG9vb/z9OBqbN3lBTWMGNNQnY561BSaqaWJvaAiEhYVATlkcMmQQWrVui7h3sdAztIDHKneMHMkRIK9ePqM2TZowCstcnOipn+TAJT4BUWSkp0JX3wgztLVhaGhA7fXz98fj6EfYvNkboqLVP1Y4cHcA0tJSYWZuXW9+HNWqbBaJEWAEGIEaEmACoYbgfudkPysQzkYeh5KSCh0xWLLECaUQxGqPlRAQEIC7+3LEvH6NgG3bISzy/aH3hYvsISkpW0kg5OZkwsFhMcZPVIPZHEPo6OhispoaAnfvhry8PG7fvoWAHbvw7l08ioqLkJz8EStXuGLaNE1aJUmJHzBRTQOHD+xFy5ZtqUApD8Te/RHBOH3uKrb6+aCgoABa2jNhbWGCaZozePKFKC0p5pwuyifAU7rfud0w2xkBRuD/iwATCP9f9U1L+7MC4fLF82jUSI7m5ebmguycfKxbu4YKhJUrlyMtPavst+B36X5PIBQVF8B2gT3GT5gMS3MTaGvPhNqUKdi9axcSE5Mwx8wcJoYzMHLEEOTl5mKerQsW2ttAU3M6vVdyUgJm6OjhwP59XL4J5YYU5Gdh5iwDeK3zwocPCXBf6Y5DB8IhLcOmCf4PHwVWZEaAEfgBASYQ/g+bx88KhMMH90NVVZWSMzYxRqtWrbHM1RV8/PxUIGRm58HTw4MKhu+FmgiE23fuwtPTE1cunYeAoDBiYmKgb2ACh0ULuASCjq4B9u+LQOPG33rpl2L7Nj8kJKWCn18ALVTkYGhswfMoQHp6OjIyMqCoqESnPlhgBBgBRuC/RoAJhP9ajVajPD8rEEyMDDB16lS8i4uDnf0iuC93htpkdTqcTwRCVnYeVn9DIJAVCMnJyWRgHl7r1kJcQhrW1pYQFBBEs2Yq8PPzw49GEJ49+xd29o4I2rMbUtJSOH3qFAJ27obpHGPMmT2HOjGSEYQfCwTgn3+iYWm1AE2ayGGb/xYoKKpUg9rnKGS1hvXc+YiNfUttkZdX4Ck9i8wIMAKMwO9AgAmE36GWatnGnxUILk42CI04iqzsLMzUnAiT2RYQFpWgVv5IIJw6dRoenmtQUlKKnJxs6jwoJiYKGWlphATvQVhY2A8FgqSECDZuXI/LV++iqUpTzLUwxJ2797D/0Els2byZLrmsjkAoKiqAsclsKMjLY93atRAU4jhQVjekpKRglp4BRg4fDCcnstHT90dKqpsni8cIMAKMQEMjwARCQ6uRX2DPzwqEqxfPQFyMn/ro8QuJQ0Dws/d/cUEWSlECASGpSsP2JUV5KC7M/EYJ+SEoKgtynQQBIXEU5qVAQFAc/IJi9P+CIjLgAz+Ki3JQUpQLPj4BCAhLoaSkECWF2RAQlqYrJYjzYFFBGgRFGlEB8q3w4cMH6OjqY7mrE0aOGsfz9MKTJ09gs8AWgTv90KJV+19QY+wWjAAjwAj8egJMIPx65vV+x58VCNcuX4C0jGy9l4NXA7Kys3Hp0iXs238QTeQk4LVuPQSFeN/kKPLMWUQ/ug0HRxeexQWvNrP4jAAjwAjUFwEmEOqLfD3e98Xzp9i5MwArVnhAVEy82pY8/ecxgoP3wM3NHWLinCmF3ymkpabA398HTZo0gq7OLEjKyNfI/DevX0JGRhKN5JRqlJ4lYgQYAUbgdyDABMLvUEu1bGNpaQlQWgzwCfL0BVzTdLVsfo2zI/sg0HKT8BP7F9B8SBZf7LFQY6NYQkaAEWAEGigBJhAaaMUwsxgBRoARYAQYgfokwARCfdJn92YEGAFGgBFgBBooASYQGmjFMLMYAUaAEWAEGIH6JMAEQn3SZ/dmBBgBRoARYAQaKAEmEBpoxTCzGAFGgBFgBBiB+iTABEJ90mf3ZgQYAUaAEWAEGigBJhAaaMUwsxgBRoARYAQYgfokwARCfdJn92YEGAFGgBFgBBoogV8uEHJycnDl6jX07tUTCgrsFLwG2i6YWVUQePUqBomJiRg4cAD4+b995sP/O8SLly6jS+dOPD/n2dnZOHfuPMaNG4tPn1IQHR2NIUMGo1GjRg0CaXFxMa5du05PFO3erRuOnziJLp07o337djzZV1RUhMtXrmLM6FE8pSOR7z94iKSkJEyc8AfOR12gB57169e3Uj5/RUcjNvYdSktKISoqgrFjx1Srvb59+xYPH/0FsilYYzk5DB8+jGcbf5SAHHh27doNesCaopIiyEFuf4wfB3Hx6u/sSvJPSEjA47+fYNzYMTzZl5eXh4sXL0GlmQqtw9ORZ9CpYwe0atWKp3zK32cdO7TnSkvq9tLlKyAn2JLQr28fNGvWjCvvBw8fIS0tDUMGD8aLFy/wISGB53LwZGwNIv9ygZDw4QMsra2xZLEjBgwYVAOTWRJGoP4JBAUH4tq12/D384GQkFD9G9QALdCaPh329va0A+QlvH//HhMmqeFiVCTu3LmLZSs8sGf3DnTu3IWXbOosbn5+PkxNzdCpUzs4Oi5G95594eS4EEaGhjzdkwghnVmzcPzYMZ7SkcjLli3Hnbt36JHnM2fORJs2beDp6cmVz/XrN7DI0Qm9undCo0bSKC4hp616Vqu9Pvn7L0SdP42/op8iN78QYXvDeLbxRwmePHkMfcPZWL1qOUaPHoNefQbgxtVLkOVRBJKzVdasXYfI06d4si81NQUa07Shrj4ZC+3tMf6PCbCZbwU1tak85fPhw3tYW8+DkZE+NDQ0K9IWFhZiX/gexMfH4c9j5+DqvAST1aZw5e3hsRKP/vobO3cEIChoDy5fvoJDhw7xdP+6jlynAuFbW9KWlhajOD8D/EIS9PS9ugxsS9y6pFs57/0HDmKF+yqsWO4GLc1pdCtiO/uFUFJUgpOTAw7/eQSubsvx18O7EBTkvFTDw8MQeeY8/Hy30C+hpc6uVDzq6+mioKAA+obGyM3NRWjwHjx/8QJWVvOgIC/H6eT4+KCopAxrS0v6JfLmzRvo6htBVEQI4uKfD2FSUlLCxg0bQb5ayHVxMWFIiIvRY6eFRMRgoKcHdXU1CAoKVhtYUNBuXLteLhCq347fvH0LH19/xL59DT6U0k57woQJMNDXw/v38Vi8ZAnIiyMnJw+fUlKhrKQAQUEByDdpgj17gjDfxhY3bt6EirICOUwTxcWl6Nu3H2zmz0WTJk3w4sVz2NrZoaioGPHvE2h6KSlJeK72RIcOHeDn74+du/Zgi/cmDBs6hJZ3+Qp3qLZtC319PfrFePp0JEJC9yI7O5OeiDlo8GBYmJmhUSPeDujSmq4Fe/uFPAsEMjKjrjENN65dxs0bN+Cw2AV7gwPRpq0qtZfY6LV+A6SlJWFpYVllndV2P1BYWADrufPQr29PmJtbYcDAIVhob4cZM7SrtOXLCD8jENauW4cnf0cjODgU1taWUFZWgaurK9f9TU1N0bx5UzgvWUTrkbQXQUEJ+txUFUpLilBaUojAoFD6XIaHhVeVhKfrMa9eYvpMXWzeuA7Dh4/AoMHDcPbMaUhJSfGUD0cgrEXk6dM8pcvNzcEktamYNVMb5ubm0NTSwiJ7WwwewttIScX7TFAM/IJfHPxWWoqS4nx8/PQR+oZmWDDfCpPV1LlsJH3ejVt3EbB9Kw4cPICrV65i167dPJWjriNXWyBEXbgIokj79+uLXbv30A56ob0t+vTpTW389OkT7Bc5YqX7cty9cw9BIaHIycmG96YN6NKlC5KTP8J+oQMdRiFh3RoP9O7NSUvCIgcndO7cCSdOnIK2thZkZWURGLgHpnNmY/z4cTTOw4ePsG37Djqs1LpNa9jb2qBFixYVncY6r/UQERGFmtokeKxeg7i4eAweNJC+sMiLS6VZU5jOnl1xTzK8o29gjCVLHHnuxOq6Yn7H/PcfOIAdATvQvEVLbNvqB2FhYdjaLoCScjMspgLhT7i6reASCGFhwThz9gL8fH1wPuoiAgN3QV5BGb5bNuP58+fw8FiF7Nw8hAYH4/nzZ7C0tsGeHZug0rQp8vNzsMRlNaRkGmPjBi/Exb2DHqlPh3kYPKhfBUJ+ASHIyjWlAoJcX+pIrg9AcXEh7t+7h5Vrt+LI4UNQUKj+4U01EQjkRWVuYQWUFmDlMicIi4gh4X0sTK2XYKu/H7p07oD01A8gZ17cuHUHm7fsxJaNq6CkpAB+fkHIybfAfJsFyEhPxUYvd/qizMlOxzxbV0yerA4LCzMUFeYjLSUeiYnJMDG3pelVVdtCppEShIRE4evrg5DQMHTr1h07d2ynjJYtd4OqqioM9A3x8OFDWFrPg5O9OYYOHYLc3CzYO7pj/PiJsDA346lZ1lQgJCcnw8jICKdOncSjRw8wb7499kXshYoKZ4iWHNX94sVLKpykpKQhJCQIN1cXDBo4gF5/GxuLdevWY8MGL3hv8cGFC5do3YYEBdLrRIT27dsHmtM06O/ExCTYL3LA3pCgir7k7t178N8WgI8fk+nQs43NfDQvGyImw8cLFy7E8OGDoaU1ExMnTYK1lRWmTOH+QqwK1s8IBF8/P7yOeYENGzbDzW0pZGTlqUgh4dTpSGzc5I3k5CSIiopSRiS0b6dKR7xIePbsGbb4+CEuPh6Kikqwt7NBxw4dKpm8O3APzp07U0kgZGfngFy7fOUK/RBQn6IG3Vk6EBAQoHkQUb87MAhRUVFUkEzX0sTMGdoV1z98iIeauhZ2bPdF7959oTZlCvZFREBCgrdD4GoqEEpLSjB+4mTMMTGAjo4uDI0MsXTxEnTs1InaHxV1ASdOnoKurg68vX1RXFwEKysLDB/GERAfP36Crd1CJCQm0t92tjaYPGliJX6k/ejqGWHBfMtKAiFsbzDOX7hCn/2TJ0/gxvVrWL9hU1XN5pder7ZAiIw8Bc8166GhPgFqk8fh/v1H2B20H6EhQXSOMTMzA2bmFmjdujUKC3IxeuRgOu/Vf9AwyMsrIz8/F4//uouPycnY4L0dy9xcMHTo8IrCGhoaQFJSAnqzNLHKcwsGDuiNJo1lcejIGRw/ehjkobS0ssbYUYPRoYMqbt95gEfRzxASvIeTR2kpfP18cfjIcXTv2gn9+nSnp/ZJS8ti0JDReHDvBpavXIeDB/bTFxfpXMPCwxEcEoKwkEA0bsJO5vvZlkcEwonjx2jHvWCBHXr06MGzQLh+7RLev0+A55q1OHPmLIQFinDg8EmEhnwWCHtDAtGseQukpabCxdUV7durYrHTYpB5UyIAyLDlqFGV5yRjYl5Vul6Qn4Mhw0bjyJ+HoKKiUm0ENREIJSUlMDQyRrNmKljp7k5FNhEDMS+ioazSBuISnI6chIsXz2O1pxf2BO6qeDGSvxOBkJuTh507OS93oBSuLkshICiM5ctXVKR/Hx+HadNnIihwFzp27FjxdyIQzp+Pol+Tjg6OdG6/XCDo6xlglYcHbt2+jYi9wZCSJnP+pYiLfY5SCKB5C84XfHVDTQVCeno6Nm1ch+UrPPAu9g1We3rC03MNZGU5Pgg3rp3HZp8AqLZpickTx9Kv446de0CuMcenKSkxETq6ehg/fjxQkoe+fXqQo7UwdjznC87MzBTDho+AoYEB/U2mNAwMjRB1/hz9/fTpv3BxdcGsGVOhrKyI27fv4e6Df2hdiIiIoKSkmHbqAwf2R5++A7Fs2VJMmjSF5ynTnxEIx44dRcqnRBibmCMiPBjCwuLQ1JpO7U9MiMXL50+xwmMj+vXpiUkTRtO/S0pKoUdvznTPHFNT9O3dBd26dsY/T5/hbNQNHNwfUalqvycQvLf44t+n0dDV0QQf+LD/0DFMmzYdo0Zx/ClWrfZE0od3mKYxCaTdBwZFYODgYZhnbUWvZ2Sk075h2TI3tGzZBitWuMDJyRmiomLVbV40Xk0FAklLRionT56EocNGYr2XJ4yMZkNeQZHme/LkKXh5rceYMcOhOXUioh8/wWbfXVREEjGdn5+Hx4/uIC0tFR5rt8DSwhQzZ86qZPuPBALp667fuIWFCx1w795dPHn8CLNNqx4R4wnQT0autkA4c+Y0PNd64dzpExAUFkNWZjrMzC0xafIkGBr5x3SsAAAgAElEQVQYoqAgH1bW8+icS3BgAOQVm5aZxk8VJmeYrxQpKZ9gMscMjovsuQSCvoE+Jv4xHpPV1KCvb4Q1niuQm5sPu0VLcGBfGBTk5ZGc8AoKTduiuKgESUmJmKVvhMhTJyscW/btC8eatRvhtXYFxoz5g/QJtGMgHUh2VibMLMxpJU5VVwdxUplvY4cB/bpijqk1O5nvJxsSSU4EwuHDh6CtpYG94Qdx8OAB2NvZ8jSCcPXqRbRp3QrCIpK4e/c2nJc4Ye58Oy6BICEhDgEBQRBnseFDesPR0QHSMgp4/TqGCoDhw4agTZu2FSVqp6qKUaNGVlwvFxCfUlLg7b0F0dGPELwnCNIyMtWmUBOBQETsnVuXYLtoGdq0aU2/OMaNG4fGjeXofb88HbI6AoHMc5LphiVLnLHS3RljxkyosP9HAuHO3fsYPrQ/rt98QEd6Vnt60E5PZ+YszLNZgKLCAuzcsaPCnpoO0ddUIJAXSl5OGsQl5eiXW052KiQkG1c41+Xn5WL+Ajv06tEFllZzy8pMnnPO0DmZStKZpYtuXTtizerVEBTmDP2SfoCEqgQCmT5o26YFjI1n0y6EvAwW2NrB0soKo0eNpn1ZXm4GhIRFISgogpysFAiJiNMRGl7CzwiE/LxsKi5FxaSQn5tF+zoRUUl6+/K+dpqmJiZOnARzM9MKs8oZJMQ/g4JyGzpFRUbSpqhPw5+HD0NSkpNHefieQFi4aBFatWyGefNsaNTsjE8oRSmkZBSoICBz+gFbt0C2URN6/eLFC1jluR5Xr1yEpIQEyBd8VuZHWsfkWSYMxSRkK+qouhx/RiBkZ36CsIgErcfc7DSIiEmBn58zAnLy1Ck60nTtUiQkpRvj06dk6Oobw8rCFNOmaVUwJh/GOrMMYGSoy7NAKCzIQ2FhHsTEZVBUlI/iogKIin3+SKgug7qMx5NACAkJRWjoXmpPuSBo07olnJ1dwJmXmw9JCTFs3LjxuxVNBILxbFM4LrLjEggGBgbQ1p6BESOGUzW/zd8HScnJdHhx/769kJGRxSbvLXj04AGEhQVQXFKCf5+9woXzZ9G4cWNqE3khbfb2xb6IEKiocKYeygN5mAICtuLsucvYGxpMh4gsLC0REbYHUtKc9CxwEyAdzfPnL+gQdfnQ4Y8YlQsE703rMX2GPlavXoVDBw/wLBBmzdTBqtVroKSkiHVr10BXz5BLILi72UNBvgkSk5Jx/MQ5yMgpYOWKZXQOnwiEFs2U0Fjus8d7v/79aWf/+vVrel1YWBCiIiJ4/yER/fv2gLWVKXr3GcxT51QjgQCgpKQI8bHPcC7qMh48iMbrt3Ho1r0nHBbaVbRjTof6/RGE69dvQkGxMT59TIWMjBR0tKfSqTJRsc+d+w8Fwr2H8N28FvpGpljtsRoHDu6jAmGG9kzMm78AAgJ82LZ1K27fvo2lLi7Iycml04Q7A8pHLar3pNRUIFSVO3ESnL9gAXr16Ep9Ur4OqampmKWrB+fFdhg2gjM9+WWoSiAMGzEKIsKCaNKYe9UEGUJXn/rZEa0qO6u6/jMCoaq8yXWNadOoQPh6aogIazK9cO3aVYgIC4Cfnw9Pnr7E2ciTkJfnXln2PYFw/twpbNzsC7nG8hg4YCAGDOiPXj17UD+e2HfvqODo0K5VpRUTRJCTKY3aCj8jEH5kAxEImzZtwvlzZ+lHZnp6GnR0DWD8lRDIyCACQa9GAqG2GNRlPrwJhNC9CA0JpfaQh9TKei5U27bG0qXOFQKhTesW9Ivme+G7AsHQgHZQZDmNgZERtm/1o8vIygXC3Xv3Ebh7N3y910BGVg4pqWnQNzLHkcMH0bgxR6USgeDjtw1H/zxYMRz5pR1JiXHQ0NSFr683HUZN+5SIJUvd2OjBdyqLCITwsGCUQIjOL1a1nK9cIISHhWH3rq14+vwdCgtyoKzcnPogHDlyBM6uy/Hw/h06zUMCedFeunQVvj4+OBd1AWQEYZX7SupoN2nieEyYOAVa02dwCYQ/D4ajRcuWdFopOzMNf0zWxL6IMCpaiQDwWOmCkSNGVpSKfDXx8QkipmyEwdHeCgP694HjkuXUQcrMzJwncVBud02cFElaIlbJP/LFkJwUh2Ur1qBnr36YWzb8SuL8SCCkpaZgnacrLly8jNDwIzh4IBzi4lJc7bgqgRAUuBOhwbvw6s0H8PGVUC94PV19LHJwRGxsHJ3zJ9MvH5NicToyCrfv/YVdO3fx1BfVt0Dw9dkEVdXK8+pfC4T4+Hj6UXIh6jwt3+gxY6ClqQED3Rlc5RURlYDIFyKMJxjfiFxfAuHa9evw8PBAgJ8XZBrJ0+daQ0sX4WGh1RYIZNQh6cMbvHv3Gtdv3MXps1ehoaEBaytLvI9/hxk6ejgYEVRp2aKEdGM6YlBboS4FgveWLTgbGUlNJdNexPeFCYTv1ByZYljpsQaRp05RXwGi0slUgf4sLUzXnlUhEFTbtoKT05JaFwgHDx3E2zdvsKHMiePmrVuwsLTGhfNn0KQJx7mMCARfv+04euQgHXH4OpAX3ob1niguFcaZM5FY7bECAwdyPLn/38Offx5C9F+PKmFISU3FP/++QOCuXZXW8X4duVwgRIRHoCA/C3oGJmgiJ4eWrYmPgAOios7D1t4Rx44cROvWbainvaOTA/VVWbPGE6cjz1KBsGH9RhSRlS4CoigsBrSma3MLhEP70LIlZ71yQkIipqhPxYH9EXRumBcfhOvXLsBukTP8fX3Qp08fnoRiTUYQyLr11Z5roaerg759+1ZMvTk7L6H/9/D4vEytOlMMaakfMX+BLVq3bgcX5yUVootwqVog7MK7d29gbmFN1++TNfTESfHQwX3Y7LMdO3dsQ4f27SnjiPAwnIuKajACoSA/Hza2dujUQRULbO0rtdnyEQR/vy1o06ay34SNzTx07NgF1mWC7Ny5KKxa7YHLFy/QvFxcnJCRWQDvzWQklA9kKod8UAwaOJCnlS5V9Sn1JRCCgsgS3evYsWMnNfHly1eYrj0TZyJPVPq6JyMIZ89GgjzTX4a//36CDh3aU3+j0uJ86oUfsCsEUefO0VGy0WPGY+3aNRjQvz9NRvYNSc9IR+9evarCwtP130Ig6BvBZq4F1KbwtoSSJxB1FJmnEYR1XhvQtm07aGhMxc2bt3Dr1k0cPrAXUjJNqhQIZFMIsgdCVnYWtm0LwJQpk9ChfUeIiolhxPBhMDYx/uEIQlzsazgtXY6VK93pBiHnz59FTMxrmBibQE1tMvV+rUogEIbvYl/DyMQM4uJi2L8vjH55sQDQZU2lJVwoiNeIu/tKzNBSQ+eu/cBXxYZAXwoE4m+y1d+HdhozZ8ygAiE56QO0tGdBuakKRo4YgZjXr3H27DmscHPCVI3pOHrseJlA+OzJS0aqvhYIRob6kJOTo+Ig6sIFqCg3gY+PL/1NBMLokSMqlsSVF4h8EZLRqy8FBJn/81y9Cv++iEXANv9K868/ahc1EQjEUXf5MjfcvhcNtckTIS8vT1fmkPXsG9etQv+Bn5dYVUcgEMH775P7mGNhBy+vdRgyeBCdOiMcMzPS6Uoi4jmurKyMSRMn0PsRJ8U79x5S50UiqNzdl+PIsUgsWmhDBUJudgbsFy1EbFwy/hg/FlnZ2Yg6fwFDBveFu7sHT49KXY0gELuJQ+aNm3egr69LX+Bkg5vyzXKqEgj7I0IQtPcAlrm5IeXTJ+wNC0NiYgLOnjlDyxf/7hVMTK0xZMhQ+oI7e+48UlKSqECqza/f+hIIr2P+hZGJFTxWraQb+Rw7fgxJiQlQV9eApuY0SEt/ngffGxZOV4I4L1lMnWr79e9Hl9wSUZufX4xx48ehuKgYIXv3YlD/brBZ4EgZ+vpuwv6Dx2FpaQFhISEEBYdAT0cdOrNMeGpDVUWuL4FAHFnJlGVuXh62bPGlK1oGDRwMGVkZ9O/Xr2KvCTo1MUsfHTu2x9ix42i/RTZN4mVJdVUM6vI6TwJh3759MDXRw9ETkRAU4IfurOno0o2ztIisMti61QdNlZWgNb2yN+eOAH/aGX4dGsk1wvLlq+CzZQP1Ju3SpSv1YLaea0M9RLdv2wpHp6WQkpTAgf17ce/+I7RrpwpDPR2cOnMO9+49gKXVPOqUdv36ZZw4cQKuLssgLsHtbFN+36ysTJiamUFbS73MzqrXBNdlBTT0vIvy0yAgLF2tIfhrVy/jxo2rcHRyocWKefkMm7d4Y/jwkZg+fQYVIB/ePUdYxCG8jY2DtLQURo0YjNFjJtA1xLdu3cCTJ39hzhyOpzMJxLfFc/VKLFzkRB1g/f19UJBfSK+RvQ66dOmIaVOnQkauKRITP2DD+nUgS7C+Dq6uy8DHz0evGxgaont3zhJb4gzntmwFdHT00LtP5Z3ovlc/NREIRDQV5KUjMjKSvqQz0jOgqCiP8eNGoU/foSDLMctDdPQDHNi/ny6latz48/LL7dv8kJ9fAJsFnCVtpSXFOLA/BDFv4qgXeGzsG6xdw71hjpCwEOxsF6FV69Y4eeII9SuxtSNr4/nw9vVzrF23Htra2hg1mjNfn5mWCLKnxeMn/0BKUgpDBvfDiBEjISbBm69OXQkEwjHh/RvsCQpGQkISfaFNnjQZAwYNpfaTZ9xrnSedAlVSqrwyJTcnA2SJ2eO/n1JhoTVNDbsCQ+mqCcq0tARPHt/F4T+PIy0tHS1bNscMbS0oq3x2fK2N57auBcKqVcvQt29/TJgwmctcsnb/yOEIXLpyA61btYLZbENcuX4TkZFnYWpmgW7dyKoPTiDLcLdu34rkpE/097z5NujcuSuSE97i4OE/8fLlayoABvTvTZfxCYlw+t283HQcP3YUd+49gAC/AEYOH4yx4ydBUIi3VQpVca4rgUAcpI8f+xPuK9dQE3Kys7FunSfGjBmNYcNH49Ch/Yg6z5mS+jK0bNUS8+fbVUytkLZ04fwpHDtxGoUFhWirqkodO8ly/N8h8CQQIvbtx+5dO2mnRAIfv2DFi4N8zZSWFtElL+TvX4eSkkLSm32DCYlPlnsVleXFTzfoIH8jHQH5suX8n/ws5nzl8hGPZcGK3+V2ELtI4yfxv/QI//Km9+7fx9o1axAasgdkTpGF2iPA4V9S8aKjc+2k/ogPQFmboO2kpIjWLW1DfALgK/McJnVH05fXN6fSUVLM3R7K05avUAHJo2ylDGk7n69/LhunDfGVta3P7Zb4MZC2SWwgtlQ31EwgcMpTzqn8Xpz2S4TqZ7Fawe6rtkzKR8h9yYgz+lNKuXPScQTUF6WveFZpXJTSfRUoj7L45Hn6XA+lQCknz/I6AvXj4E1M151A4Hjqc7WjL+qPc43TZr5lc3lfReq+vC8h8T9v3Eb6svL8aSOl/Q2v5a+qLdW1QCgpLuB6vr60p2LEkI8P/HyCZX4xpO/84tkoWxHx5TPFYcrP4VNaRP2AOG2EH+XPIW3l5O/l/XXZc16TNlQVw7oSCLQvKimuaBMVbaqsv+Lw47wHuQOnr/uyrZS/l2i/VOYPVdttqSpONb3Os0AI3M3ZbOR3C8TbdMPGzbh9+xbsF1hi/ATuXa1+t/Iwe+uXQM0FQv3a/SvvXpcC4VeWo67uVdcCoa7sbkj51pVAaEhlrE9bqi0Q0lIT8SkpHm07fN79sD4N5/XehQX5ePHvXboZTbMWHSAoJMJrFiw+I1BBIDnxLTLTU9FatXuVvhn/r9ie/3MHys1UISXN2eeBBW4CZI+Hl//eQ4cuAxmaGhLISPuI+LgX6NSVnetTQ4Q/TFZtgVAXN2d5MgKMACPACDACjEDDJMAEQsOsF2YVI8AIMAKMACNQrwSYQKhX/OzmjAAjwAgwAoxAwyTABELDrBdmFSPACDACjAAjUK8EmECoV/zs5owAI8AIMAKMQMMkwARCw6wXZhUjwAgwAowAI1CvBJhAqFf87OaMACPACDACjEDDJMAEQsOsF2YVI8AIMAKMACNQrwSYQKhX/PVz85SUFHouxogRw3k+NOTRX9EoKS5Gz5498O+/z5CRmYmBAzgntn0ZyAE6d+7eQ98+vSEi8nlTqjdv3uLDhw/o378fPTc+5lUMRo4cAQGB6m9zXD/Ufu1d8/LycPPWbfTp3Yvr8JxfYQWpV7LLX6/evRD9VzTy8vPRv1/fiuO+ybkrpP3IK8ijFTl2+6sQ//49Xr58iRHDh+PZs+f4+OlTpXZQnXIQO8TFxdGiRfPqRGdxGAFGoJYJMIFQy0B/h+xu3LgGU/O5uHPzKiSlPp/cVh3b7exskZ2TCz9fX6xatQrPnj+rdBQsycdrwwa8jXmJDRs3cR1MQs7A2H/wCPZFhCM8IoJuf/340QPwM4HAhT8pKQEzdfTg5+uDzp07V6dqai3OmjWr8eLlK+wI2IF58xcgITEBB/fvqxAIZAdAcmjUpau36SmYsrLcR6sfP34M6zdswuVLF+Hl5YXzFy4ifG8I5OR4O+xp+XI3tGrdFsZGRrVWNpYRI8AIVJ8AEwjVZ/WfifkzAmHlyuX4+CkNG9avx8ZNG/H2zWv4+W3lYhMd/Riz55ghYOsm9OozkOvgklMnjyEoJAzBQXtw+M8j8PX1w/VrVxs028+HFvF2WNHPFIoc8FKUnwoBEZmvDq/6mVyrl3bbVj88e/ECmzZugoPjYiQnJ2NP4G6uxHk56TAwmgPtGTqYoT2d69q1a1exdu06HD9+HNu2bcXxE6exL2IvJCV5O1p92XIXtG6lCmNj4+oZXhaLHGl97NgJZGRmoaCwEE3kGqF7j25Y77Wexhg8dDg5f4meECshKYWhQ4dCd5YOFBUU6PX5Ngtw+/YdyMpwi2cHh4UYN248vU5G0k4cOwIZGRmQI8nnmJljkb0dPX3U2dmV5kPunZKaBiUFzmmc4hLiiAgPp/G1tWeghJxumpAMFWVFen3fvgg0atSIHiM8Zaommipx7CkPQ4cNgZurG4qLizFx4iT65/gPiRXpIyLCqAiLiXmFqdO0oaz4+RRQErdJEzmEhYXT6xqa2jR/ctQSOTiICLEF8+ehU6eOPLFmkf/bBJhA+G/X7zdL9zMCYau/D96+ew+PVauwfft2JCTEw92dc0xueSDHB8fFxWDzJm8IfHGEMbl+5/YN+G/bgYDt23Hy1CnsCQzE0aNHq10LZOpie8AOXL9xE1JSUpiupYnx48bS9K9exWDZcncsdnJA165d6N+uXbuOAwcPwWOVO0pKSmBn74BpGlNBTvV8/vw5unfrhvnz50JCgnOy54kTp3Dn3l3Y29lS8fLoUTRUVdvCzdW54gjXy5evIDQsnA7D9+3bB2Zz5kBK6vPx4lFRF3Ho8GGkZ2TQKQLTObO5pgkePvoLwcEhSExKQjtVVZiZzUEzFc6xxOSoagNDzgtRRFQE7iuW0Thfhif//IMdO3YhISERHTq0g6WFOZSVlTnlvX4DR44chcZUdYSF70NBQT60NDXxxx/jKkYAqoK9b18Ynj59huXLV8Dd3R1kSmrz5s3cyUpLceXSOazb6IcTx7nr78mTv+Hp6YnQ0L0ICwvBvv1/4uD+CAgJC1d1a67rNRUIaSkfkJWZRo8Vf/HyNZa5LIKIqDjkFTnTIUOGDoPZHAOMGTUUqSnJWLdxO2Rkm8DPdwu9Pm/eXMjISMHKnHvkolFjZUhIytL2cvvuA6hNngw3Vxf6wp9taopF9gvQqWNHfEx6R/N5+TIGHmu9EbjDm/7m5xeAsooqRxjEvUBOTi50DCxx7FAQva7crB0EBAQR8zoGhoYmiAjdxsVDTEIajZuo0JMS42P/pdemahnj6KE9nPQqqhAQFELMqxcws7RG0E5OecqDgKAglFXa0evmltYI3u1LL5E2sitwL6Iu3cL5s6cr2nl1KsvRaQmkZaThsnRJdaKzOL8ZASYQfrMKqw1zf0YgRJ4+jjdv42BhYYljx48iMy0F+oazuczS0tbGwgVWGDx0dCVzY9/EIGRvKJycluLWrRs4c+YUVpaduV5V2bJzcmBjYwtJCWFoqE9AcvJHbA0IgYWFBWbO0KZH/Pr4bMbf/7yC9+ZNSE1Ng/HsObAw1YeW1ixkZGZAXUMLzVWUYWFmAAlxUazx8kXXbj3hvHQx9YO4dfMqlq1YA0VFeXTp1AZdO3egx4IPHzkOQkLCOHrsGHbu3AkTw5n0C/PwkZMoKhHApo3racdKxMNqT0/MszKGjLQUTkVegKi4FFycnam/x7u4OMyePQezjWaiebOmuHvvEV69iadHkBORQgTQtcuRFMVSt7UI2L4V3bp1q0Dz6NFfWGBrB12dqejcsT3OnL+E6MfPsXNHABQU5ClPt2UeGDd2BLQ0JuLZ85fw3x5Mr7dv364qxPT69WtX8CrmJQwNZyMkOBCZWZmwtraplPZ9fBz0DY3h7+eHjh07VFx/+/YtwsOCsXiJKy5dOo8TJ07Dy2s9z8cl11QglBuy1d8X/zz9Fz4+nBdheSACwcnREerqU+hxxXHvXkBH3ww7ArbTFzwRCE1VmmHpkm+/9Mh10nYuXr6J/fvCoaysVCEQevXqW3GfJ38/xkIHJ0SePvVN7pmZmRg5eizu373NdZ0IBBOTOXSKpqrQt/9A3Ltzizv9qxewmmuDM5Gnv5mcCISvrx87dgSLly7DhfORUFLiiM3qhBkzZ0JWVgYB2wOqE53F+c0IMIHwm1VYbZj7MwIhPy8LRUWFEJeQBfl/aUkJxCRkKswiXzeDhwzDmdMnIC3DPTdNIhUXFSInOx2S0o1RWJCLvNwsSMtyD6V+r4x3796F1dz5OBC+B7KN5FGKUkSEheLewyf0609MTBQFeTlY6rIUnTr3Qlx8PMRFSmBruwhCwqJIT0/HVI3pmDRxLBYtWkTPsL96+Tw2em9HcFAg/cqPj4+lR4Hb25jC2MSMfvUBfPQcdzJioKdvBLVJY6ClNYO+8LIyU6FnaIagPYFo3boVvL034cHDaGzz94GoqBhyczKQnvYJik1b07yizp/FZh8/BO7agcaNG6OkqBAf3r+GkooqBAWFQM6MJ0xJGDpiFLb5+1UIBDICYrPAFiXFhfDevBGCgsLIy8uGxjRtLHV2pk6B586ehoenF3bv3IrWbdrRM+3VNabByWkJhg0dUq3mU5CfU1bHMrSuSB4SUpVPZMzMzICpmQXUJk+EgYFhRd6kfZByS0k3RkFeNnJzsyDTiDOMzkv4JQKBjNpkZcLUzBwTJ06AoaERFQjpmdkYM/qzwCXiTXu6FjWfXO/duw+ePHmEjp16wNBAv8EJBCLazc3NuHCPHTMazZo1oyMI5QKBtKmkpCS4uq1ATnYagoKCy9ph9WrqxdO7EBQSQmvVntVLwGL9VgSYQPitqqt2jP0ZgVCVBampqdCYpoVTJ49XDNtXlaa6109HRsJp8VJ07sg95E486V3dllfc7+mTR5hjYQNlJXns2rEVso04AiQ9PY0KBAtzE8yapUf/Fh/3FvpGc6gTHnlhf0xOwiS1qYgIC0abttxf3PHxcTAwNIGIiCAdHSgPRCh4eq5Fq1at8Pb1czgtcUFBUSn69O6DwYMGoWfP7nRumYTsrDTYLVyI9x8+okf3HhgyZDB69ewJJSXFSl/YQ4YN5xIIOTk5MDaZg8GD+sLWdmHF/S0szKgoMzI0pAJh8xZ/BAXuQhN5Trln6syEuZkFxoypPKJTXfbfikdWWlhazUX3bp1hb//Znp/J88u0v0og5ORkw8LSGkMG94el5VwqAJ6/eAnVNp9XaMg2ksXq1esqBELffgMwduQgLFzshp0BAbC0tqZTDLU1gqA+VQtKX/kQWFlaQEuLI1LKw/dGEKbP1MPAftwvbSsrK3Tr3osKBA2tmWjaVBFZWTlISUnDNPXxcHKwh3Sj6o8e1FY9s3waLgEmEBpu3dSZZXUpENJSU6A+TQunT56odYFw5swZODguwYVzxyAsRL62OYFfQBASko3Ax89Pf9+4cQNLljrT++/auaNifr5cIFhazIaOji6NG/v2DYxnm+LAFwJBU3smwkKD0awZ9/I6OqRuZAJTE32oTZrAVT/kC5vM/5aWliA9JQHv42Jw9/4j7P/zDNq0bos1nh7UHjLCkp35iV6Pfvw3Dh05Cz4BYfh4b6IC5cvwtUDIzcmBkckc9OvbEw4OThVRyZfisGFDYWBgRAWCt+82KhAaN25SJhB0YG5mhjFjxtRqmyoXCD27d4at3e8rEMjIkoGRMazNTTBhkjpniqFpUyx2WvQFLz7wC3B8KMh1IhD09WbBwWERunTpjstXLsPezqbWBIKhoTHCQ7dz1ZesrAKkZLjbyPcEgqX1fESe4vYN4eMXoqNm5T4IIYF+eP36DUytHLBl0zqMGTue52mgWm1QLLMGR4AJhAZXJXVvUF0KBPKCHDJsBCJPnaz19fsPH9yHmeVc+PtuQb9+/Siof/55CjFxMbRu1Yp2bmRed958G+jNVMfrt+9w78ETbN60kb6cywXChAnj4OjgQJ32Tp48iV27d1MvfWlpGTqCoKWtg71UIDTjqoyc7CwYGJmga9eu1DmN+CwQp0LiNNirZw/qY/Dm7VuIi4lDUVEBJUV5iI97BaM5tggNCaIvHeJYWFBQgObNm1GfiYK8NKhp6GHb1q1Q/coZ8WuBQKYe7BbaIzsnD/6+PhASEkJObi7Up2pgxTJnDBnCmWL4VQKBM8VgCXW1P+jUS22HXzGCQIbYiWOni6srThw5AGnZJtXyQSACwcjQAFHnTsPZbRWtT+eljrUmEH6VD0JpSRF8fTbi9v1/sDNgG0RFRXmqRrJXB3Fi/WP8OJ73VOHpRixyvRBgAqFesNfvTetSIJCSac/Qhp2tHQYPHlyrBSVz2Q4ODkhMSoWp6Rx8/PgRO3cFYp7VHGhqzaAOfouXOENECFixwh05OZkwNbfGkCHDYDN/HrKyMukUQ5MmjTBt2jS67M7ffxtGDB9I5+iJB/1YcAAAAAahSURBVPmPBAL5+j935hjcV2+CibExmjdToUs1+flL6bJP4nOwbZsfrl67AwMDXfr73LlziIuLhb+fLyQlpXEx6iw2bdkKE2MjNG7SBPfv38elSxewcwfxSSC/HyAtPZ1yc3ZxgYW5OVq0aAEFeXn06NENTx7fh7WNI3RmzqT7Ixw5egzv496CLE1sJCf/SwXC+/fvoWdghO3+m9C+Q9darWuSWU0Fwt179/D8+Qtcu3oFHxISoa2tDUUFRYwdy5liIU6Kw4YNR+fOnehmX9euX4epiQ4MDM2oyCQjBJlZuRg/fhxXmRQVFUHm8ctHEIyNDJGXmw1dPX28jIlFUOD2agmEvLx8usqFrH7w3uIDRwfOSIWW5jT6gq7KSZGImvCIfTSNl9cGkOWXJGhO04CYmBgdIdA3mo251taV6mSKmho+JidwOSkSnxNLK2soN22OlSvdwU/WgFYzTJo8Bb17dMJKjzV0dIKF/xYBJhD+W/VZrdLUtUDw8lqD2Nh4eHt7V3tpXbUMJ0uyclIQHLoXt+88hJS0JNQmjcXIkePBLyiKx48fY8uWzVi1whWKyi2pb+GbV0+wYZM/VrivpF/8RCDo6UxFaloGnr94hS6d2sHMzBSS0pw14+lpKXBxdYGb23LIl83hf2lbSUkhbl6LwoHDJ0F8Anr36gZdnRmQklWmL5eigiy6nv3W7QcoKMxH504dMGuWNuQVOCMcJcX5OHvmOM6eu4LMrCy0atkcs3S00LptV7q+ffVqD7x48aISjj59elFnS+Iw+OTxbYSGHUJy8id06tQORga6aKLIyf/unRs4eOgwli51gUyZk+jyZc6Yoq6BPn04oy61FciKDbIXxpHDB8HHL1hb2VbkU1OBELRnF85HXeCyh6yycHZ2o3+ztjJHZlY25aWkpIBJE0Zj2LDREBASp9c3b1qH+w/+qlSe8jzI9Q4du2DixMk0zr07V+Dtsx2uri5o375TRbrXMS/h5++L9eu5l4iSUS5ra8tK+ZNltaTO3r+Ph+fqVfDx5d5fpDwBaSfGxp+dQsv/TlZryMo2wvv4d3BavPib9bFunRdtQxs2rseGDZzllyTcunkZfv4BdA+Hjh2rtxdCYmIipmpo4ujhMM7zxsJ/jgATCP+5Kq26QHUtEP5+/BBGsy0RsG0r+vTpXbVBPMUoRUlxEVBaTFORF1P5y6m0tBilxYV0Tr/8a4ZMeZQWF9C/ZWRkUIEwb645/dpCaQldncCZm+V8NZFRgtLifK48vjaPdLBkeqDMAK70NI+SQtoJf/96EcjQLuc6X1l6fs69Swo4dn0d+AQq5sBpmcj9S0sr209sKy0CHz9hwCkTESV8fIRT7W1nTaZJZs7ShZ6OJqZrc/w5ajvUVCAQEYdyvuVG8fGDX4Cz5TeZ+iGrRSrqh0+gjE05L1IHZfX3ZaHK8igh7Ym2G44o4rQH0sZEuL6iy+up/L7lWXHaGLGBO/AJiNI6K2+zRPR+O5SWleFH6fO/mZTYyLG5APwCn/P/Xhl+VKeBgbvx99/RWLvWi6eVD7XdTlh+dUeACYS6Y9tgc65rgUBefj5bNuLZyzhs3ODFdRZDfUIp90GYN9cC06dr16cpv/W9yVkM27YH4Mb1q/D320KXnNZFqKlAqAtbWJ6VCdgusME0jSkYPnIsc278jzYQJhD+oxX7o2KlpSTh7+jbGDh0Qp0p/4L8LEQ/vIXuvYZB+IvDmuoTd1FhAR7cu4QWrTpAiQ2J1rgqyD4HT6JvQU5OHs1adqizl8PL548gJiYFleZta2wrS1h3BOJin0NBsTmERcTq7iYs53olwARCveJnN2cEGAFGgBFgBBomASYQGma9MKsYAUaAEWAEGIF6JcAEQr3iZzdnBBgBRoARYAQaJgEmEBpmvTCrGAFGgBFgBBiBeiXABEK94mc3ZwQYAUaAEWAEGiYBJhAaZr0wqxgBRoARYAQYgXolwARCveJnN2cEGAFGgBFgBBomASYQGma9MKsYAUaAEWAEGIF6JcAEQr3iZzdnBBgBRoARYAQaJgEmEBpmvTCrGAFGgBFgBBiBeiXABEK94mc3ZwQYAUaAEWAEGiYBJhAaZr0wqxgBRoARYAQYgXolwARCveJnN2cEGAFGgBFgBBomASYQGma9MKsYAUaAEWAEGIF6JcAEQr3iZzdnBBgBRoARYAQaJgEmEBpmvTCrGAFGgBFgBBiBeiXABEK94mc3ZwQYAUaAEWAEGiYBJhAaZr0wqxgBRoARYAQYgXol8D87N8DKSZ1f3QAAAABJRU5ErkJggg==;fontStyle=1" vertex="1" parent="1">
                    <mxGeometry width="520" height="384" as="geometry"/>
                </mxCell>
            </root>
        </mxGraphModel>
    </diagram>
</mxfile>